G75*
G70*
%OFA0B0*%
%FSLAX24Y24*%
%IPPOS*%
%LPD*%
%AMOC8*
5,1,8,0,0,1.08239X$1,22.5*
%
%ADD10C,0.0000*%
%ADD11C,0.0520*%
%ADD12OC8,0.0520*%
%ADD13C,0.0515*%
%ADD14C,0.0600*%
%ADD15OC8,0.0600*%
%ADD16C,0.0100*%
%ADD17OC8,0.0400*%
D10*
X000417Y000150D02*
X000417Y016150D01*
X016417Y016150D01*
X016417Y000150D01*
X000417Y000150D01*
X000641Y000650D02*
X000643Y000683D01*
X000649Y000715D01*
X000658Y000746D01*
X000671Y000776D01*
X000688Y000804D01*
X000708Y000830D01*
X000731Y000854D01*
X000756Y000874D01*
X000784Y000892D01*
X000813Y000906D01*
X000844Y000916D01*
X000876Y000923D01*
X000909Y000926D01*
X000942Y000925D01*
X000974Y000920D01*
X001005Y000911D01*
X001036Y000899D01*
X001064Y000883D01*
X001091Y000864D01*
X001115Y000842D01*
X001136Y000817D01*
X001155Y000790D01*
X001170Y000761D01*
X001181Y000731D01*
X001189Y000699D01*
X001193Y000666D01*
X001193Y000634D01*
X001189Y000601D01*
X001181Y000569D01*
X001170Y000539D01*
X001155Y000510D01*
X001136Y000483D01*
X001115Y000458D01*
X001091Y000436D01*
X001064Y000417D01*
X001036Y000401D01*
X001005Y000389D01*
X000974Y000380D01*
X000942Y000375D01*
X000909Y000374D01*
X000876Y000377D01*
X000844Y000384D01*
X000813Y000394D01*
X000784Y000408D01*
X000756Y000426D01*
X000731Y000446D01*
X000708Y000470D01*
X000688Y000496D01*
X000671Y000524D01*
X000658Y000554D01*
X000649Y000585D01*
X000643Y000617D01*
X000641Y000650D01*
X015641Y000650D02*
X015643Y000683D01*
X015649Y000715D01*
X015658Y000746D01*
X015671Y000776D01*
X015688Y000804D01*
X015708Y000830D01*
X015731Y000854D01*
X015756Y000874D01*
X015784Y000892D01*
X015813Y000906D01*
X015844Y000916D01*
X015876Y000923D01*
X015909Y000926D01*
X015942Y000925D01*
X015974Y000920D01*
X016005Y000911D01*
X016036Y000899D01*
X016064Y000883D01*
X016091Y000864D01*
X016115Y000842D01*
X016136Y000817D01*
X016155Y000790D01*
X016170Y000761D01*
X016181Y000731D01*
X016189Y000699D01*
X016193Y000666D01*
X016193Y000634D01*
X016189Y000601D01*
X016181Y000569D01*
X016170Y000539D01*
X016155Y000510D01*
X016136Y000483D01*
X016115Y000458D01*
X016091Y000436D01*
X016064Y000417D01*
X016036Y000401D01*
X016005Y000389D01*
X015974Y000380D01*
X015942Y000375D01*
X015909Y000374D01*
X015876Y000377D01*
X015844Y000384D01*
X015813Y000394D01*
X015784Y000408D01*
X015756Y000426D01*
X015731Y000446D01*
X015708Y000470D01*
X015688Y000496D01*
X015671Y000524D01*
X015658Y000554D01*
X015649Y000585D01*
X015643Y000617D01*
X015641Y000650D01*
X015641Y015650D02*
X015643Y015683D01*
X015649Y015715D01*
X015658Y015746D01*
X015671Y015776D01*
X015688Y015804D01*
X015708Y015830D01*
X015731Y015854D01*
X015756Y015874D01*
X015784Y015892D01*
X015813Y015906D01*
X015844Y015916D01*
X015876Y015923D01*
X015909Y015926D01*
X015942Y015925D01*
X015974Y015920D01*
X016005Y015911D01*
X016036Y015899D01*
X016064Y015883D01*
X016091Y015864D01*
X016115Y015842D01*
X016136Y015817D01*
X016155Y015790D01*
X016170Y015761D01*
X016181Y015731D01*
X016189Y015699D01*
X016193Y015666D01*
X016193Y015634D01*
X016189Y015601D01*
X016181Y015569D01*
X016170Y015539D01*
X016155Y015510D01*
X016136Y015483D01*
X016115Y015458D01*
X016091Y015436D01*
X016064Y015417D01*
X016036Y015401D01*
X016005Y015389D01*
X015974Y015380D01*
X015942Y015375D01*
X015909Y015374D01*
X015876Y015377D01*
X015844Y015384D01*
X015813Y015394D01*
X015784Y015408D01*
X015756Y015426D01*
X015731Y015446D01*
X015708Y015470D01*
X015688Y015496D01*
X015671Y015524D01*
X015658Y015554D01*
X015649Y015585D01*
X015643Y015617D01*
X015641Y015650D01*
X000641Y015650D02*
X000643Y015683D01*
X000649Y015715D01*
X000658Y015746D01*
X000671Y015776D01*
X000688Y015804D01*
X000708Y015830D01*
X000731Y015854D01*
X000756Y015874D01*
X000784Y015892D01*
X000813Y015906D01*
X000844Y015916D01*
X000876Y015923D01*
X000909Y015926D01*
X000942Y015925D01*
X000974Y015920D01*
X001005Y015911D01*
X001036Y015899D01*
X001064Y015883D01*
X001091Y015864D01*
X001115Y015842D01*
X001136Y015817D01*
X001155Y015790D01*
X001170Y015761D01*
X001181Y015731D01*
X001189Y015699D01*
X001193Y015666D01*
X001193Y015634D01*
X001189Y015601D01*
X001181Y015569D01*
X001170Y015539D01*
X001155Y015510D01*
X001136Y015483D01*
X001115Y015458D01*
X001091Y015436D01*
X001064Y015417D01*
X001036Y015401D01*
X001005Y015389D01*
X000974Y015380D01*
X000942Y015375D01*
X000909Y015374D01*
X000876Y015377D01*
X000844Y015384D01*
X000813Y015394D01*
X000784Y015408D01*
X000756Y015426D01*
X000731Y015446D01*
X000708Y015470D01*
X000688Y015496D01*
X000671Y015524D01*
X000658Y015554D01*
X000649Y015585D01*
X000643Y015617D01*
X000641Y015650D01*
D11*
X009467Y003650D03*
X011367Y003650D03*
D12*
X011917Y001650D03*
X009917Y001650D03*
X008917Y001650D03*
X006917Y001650D03*
D13*
X003086Y006107D03*
X003086Y006894D03*
X003086Y007681D03*
X003086Y008469D03*
X003086Y009256D03*
X003086Y010044D03*
X003086Y010831D03*
X003086Y011619D03*
X003086Y012406D03*
X003086Y013193D03*
X011747Y013193D03*
X011747Y012406D03*
X011747Y011619D03*
X011747Y010831D03*
X011747Y010044D03*
X011747Y009256D03*
X011747Y008469D03*
X011747Y007681D03*
X011747Y006894D03*
X011747Y006107D03*
D14*
X015117Y005650D02*
X015717Y005650D01*
X015717Y004650D02*
X015117Y004650D01*
X015117Y003650D02*
X015717Y003650D01*
X015717Y002650D02*
X015117Y002650D01*
X015117Y001650D02*
X015717Y001650D01*
X015717Y006650D02*
X015117Y006650D01*
X015117Y007650D02*
X015717Y007650D01*
X015717Y008650D02*
X015117Y008650D01*
X015117Y009650D02*
X015717Y009650D01*
X015717Y010650D02*
X015117Y010650D01*
X015117Y011650D02*
X015717Y011650D01*
X015717Y012650D02*
X015117Y012650D01*
X005917Y001450D02*
X005917Y000850D01*
X004917Y000850D02*
X004917Y001450D01*
X003917Y001450D02*
X003917Y000850D01*
X002917Y000850D02*
X002917Y001450D01*
X001717Y002150D02*
X001117Y002150D01*
X001117Y003150D02*
X001717Y003150D01*
X001717Y004150D02*
X001117Y004150D01*
X001117Y005150D02*
X001717Y005150D01*
X001717Y006150D02*
X001117Y006150D01*
X001117Y007150D02*
X001717Y007150D01*
X001717Y008150D02*
X001117Y008150D01*
X001117Y009150D02*
X001717Y009150D01*
X001717Y010150D02*
X001117Y010150D01*
X001117Y011150D02*
X001717Y011150D01*
X001717Y012150D02*
X001117Y012150D01*
X001117Y013150D02*
X001717Y013150D01*
D15*
X013417Y012650D03*
X014417Y012650D03*
X014417Y011650D03*
X014417Y010650D03*
X014417Y009650D03*
X014417Y008650D03*
X013417Y008650D03*
X013417Y009650D03*
X013417Y010650D03*
X013417Y011650D03*
X013417Y007650D03*
X014417Y007650D03*
X014417Y006650D03*
X014417Y005650D03*
X014417Y004650D03*
X014417Y003650D03*
X014417Y002650D03*
X014417Y001650D03*
X013417Y001650D03*
X013417Y002650D03*
X013417Y003650D03*
X013417Y004650D03*
X013417Y005650D03*
X013417Y006650D03*
D16*
X013873Y006159D02*
X013961Y006159D01*
X013969Y006150D02*
X013917Y006202D01*
X013864Y006150D01*
X013917Y006098D01*
X013969Y006150D01*
X014864Y006150D02*
X015087Y006372D01*
X015087Y006928D01*
X014864Y007150D01*
X015087Y007372D01*
X015087Y007928D01*
X014864Y008150D01*
X015087Y008372D01*
X015087Y008928D01*
X014864Y009150D01*
X015087Y009372D01*
X015087Y009928D01*
X014864Y010150D01*
X015087Y010372D01*
X015087Y010928D01*
X014864Y011150D01*
X015087Y011372D01*
X015087Y011928D01*
X014864Y012150D01*
X015087Y012372D01*
X015087Y012928D01*
X014694Y013320D01*
X014139Y013320D01*
X013917Y013098D01*
X013694Y013320D01*
X013139Y013320D01*
X012970Y013151D01*
X012293Y013828D01*
X012175Y013946D01*
X012020Y014010D01*
X011493Y014010D01*
X011339Y013946D01*
X011221Y013828D01*
X009721Y012328D01*
X009657Y012174D01*
X009657Y012084D01*
X006897Y009324D01*
X006897Y011274D01*
X006833Y011428D01*
X006715Y011546D01*
X005037Y013224D01*
X005037Y013564D01*
X005187Y013714D01*
X005187Y014186D01*
X004853Y014520D01*
X004381Y014520D01*
X004047Y014186D01*
X004047Y013714D01*
X004197Y013564D01*
X004197Y012966D01*
X004261Y012812D01*
X004997Y012076D01*
X004887Y011966D01*
X004887Y011494D01*
X005037Y011344D01*
X005037Y010404D01*
X003897Y011544D01*
X003897Y013494D01*
X003833Y013648D01*
X003653Y013828D01*
X003535Y013946D01*
X003380Y014010D01*
X002793Y014010D01*
X002639Y013946D01*
X002039Y013346D01*
X001921Y013228D01*
X001857Y013074D01*
X001857Y012896D01*
X001781Y012820D01*
X000983Y012820D01*
X000867Y012772D01*
X000867Y014924D01*
X001061Y014924D01*
X001328Y015035D01*
X001532Y015239D01*
X001642Y015506D01*
X001642Y015700D01*
X015191Y015700D01*
X015191Y015506D01*
X015302Y015239D01*
X015506Y015035D01*
X015772Y014924D01*
X015967Y014924D01*
X015967Y001376D01*
X015772Y001376D01*
X015506Y001265D01*
X015302Y001061D01*
X015191Y000794D01*
X015191Y000600D01*
X006538Y000600D01*
X006587Y000717D01*
X006587Y000854D01*
X006693Y000810D01*
X009991Y000810D01*
X010141Y000660D01*
X010613Y000660D01*
X010947Y000994D01*
X010947Y001466D01*
X010613Y001800D01*
X010547Y001800D01*
X010547Y001860D01*
X010793Y001860D01*
X011127Y002194D01*
X011127Y002666D01*
X010977Y002816D01*
X010977Y003149D01*
X011010Y003116D01*
X011241Y003020D01*
X011492Y003020D01*
X011724Y003116D01*
X011820Y003213D01*
X012537Y002496D01*
X012537Y001986D01*
X012601Y001832D01*
X012747Y001686D01*
X012747Y001372D01*
X013139Y000980D01*
X013694Y000980D01*
X013917Y001202D01*
X014139Y000980D01*
X014694Y000980D01*
X015087Y001372D01*
X015087Y001928D01*
X014864Y002150D01*
X015087Y002372D01*
X015087Y002928D01*
X014864Y003150D01*
X015087Y003372D01*
X015087Y003928D01*
X014864Y004150D01*
X015087Y004372D01*
X015087Y004928D01*
X014864Y005150D01*
X015087Y005372D01*
X015087Y005928D01*
X014864Y006150D01*
X014873Y006159D02*
X015967Y006159D01*
X015967Y006257D02*
X014971Y006257D01*
X015070Y006356D02*
X015967Y006356D01*
X015967Y006454D02*
X015087Y006454D01*
X015087Y006553D02*
X015967Y006553D01*
X015967Y006651D02*
X015087Y006651D01*
X015087Y006750D02*
X015967Y006750D01*
X015967Y006848D02*
X015087Y006848D01*
X015068Y006947D02*
X015967Y006947D01*
X015967Y007045D02*
X014969Y007045D01*
X014871Y007144D02*
X015967Y007144D01*
X015967Y007242D02*
X014956Y007242D01*
X015055Y007341D02*
X015967Y007341D01*
X015967Y007439D02*
X015087Y007439D01*
X015087Y007538D02*
X015967Y007538D01*
X015967Y007636D02*
X015087Y007636D01*
X015087Y007735D02*
X015967Y007735D01*
X015967Y007833D02*
X015087Y007833D01*
X015083Y007932D02*
X015967Y007932D01*
X015967Y008030D02*
X014984Y008030D01*
X014886Y008129D02*
X015967Y008129D01*
X015967Y008227D02*
X014941Y008227D01*
X015040Y008326D02*
X015967Y008326D01*
X015967Y008424D02*
X015087Y008424D01*
X015087Y008523D02*
X015967Y008523D01*
X015967Y008621D02*
X015087Y008621D01*
X015087Y008720D02*
X015967Y008720D01*
X015967Y008818D02*
X015087Y008818D01*
X015087Y008917D02*
X015967Y008917D01*
X015967Y009015D02*
X014999Y009015D01*
X014901Y009114D02*
X015967Y009114D01*
X015967Y009212D02*
X014926Y009212D01*
X015025Y009311D02*
X015967Y009311D01*
X015967Y009409D02*
X015087Y009409D01*
X015087Y009508D02*
X015967Y009508D01*
X015967Y009606D02*
X015087Y009606D01*
X015087Y009705D02*
X015967Y009705D01*
X015967Y009803D02*
X015087Y009803D01*
X015087Y009902D02*
X015967Y009902D01*
X015967Y010000D02*
X015014Y010000D01*
X014916Y010099D02*
X015967Y010099D01*
X015967Y010197D02*
X014911Y010197D01*
X015010Y010296D02*
X015967Y010296D01*
X015967Y010394D02*
X015087Y010394D01*
X015087Y010493D02*
X015967Y010493D01*
X015967Y010591D02*
X015087Y010591D01*
X015087Y010690D02*
X015967Y010690D01*
X015967Y010788D02*
X015087Y010788D01*
X015087Y010887D02*
X015967Y010887D01*
X015967Y010985D02*
X015029Y010985D01*
X014931Y011084D02*
X015967Y011084D01*
X015967Y011182D02*
X014896Y011182D01*
X014995Y011281D02*
X015967Y011281D01*
X015967Y011379D02*
X015087Y011379D01*
X015087Y011478D02*
X015967Y011478D01*
X015967Y011576D02*
X015087Y011576D01*
X015087Y011675D02*
X015967Y011675D01*
X015967Y011773D02*
X015087Y011773D01*
X015087Y011872D02*
X015967Y011872D01*
X015967Y011970D02*
X015044Y011970D01*
X014946Y012069D02*
X015967Y012069D01*
X015967Y012167D02*
X014881Y012167D01*
X014980Y012266D02*
X015967Y012266D01*
X015967Y012364D02*
X015078Y012364D01*
X015087Y012463D02*
X015967Y012463D01*
X015967Y012561D02*
X015087Y012561D01*
X015087Y012660D02*
X015967Y012660D01*
X015967Y012758D02*
X015087Y012758D01*
X015087Y012857D02*
X015967Y012857D01*
X015967Y012955D02*
X015059Y012955D01*
X014961Y013054D02*
X015967Y013054D01*
X015967Y013152D02*
X014862Y013152D01*
X014764Y013251D02*
X015967Y013251D01*
X015967Y013349D02*
X012772Y013349D01*
X012870Y013251D02*
X013070Y013251D01*
X012971Y013152D02*
X012969Y013152D01*
X012673Y013448D02*
X015967Y013448D01*
X015967Y013546D02*
X012575Y013546D01*
X012476Y013645D02*
X015967Y013645D01*
X015967Y013743D02*
X012378Y013743D01*
X012293Y013828D02*
X012293Y013828D01*
X012279Y013842D02*
X015967Y013842D01*
X015967Y013940D02*
X012181Y013940D01*
X011937Y013590D02*
X012957Y012570D01*
X012957Y012090D01*
X013377Y011670D01*
X013417Y011650D01*
X013896Y011182D02*
X013937Y011182D01*
X013917Y011202D02*
X013969Y011150D01*
X013917Y011098D01*
X013864Y011150D01*
X013917Y011202D01*
X013417Y010650D02*
X013377Y010650D01*
X012957Y010230D01*
X012957Y009090D01*
X011937Y008070D01*
X011577Y008070D01*
X011337Y007830D01*
X011337Y007590D01*
X010917Y007170D01*
X007317Y007170D01*
X006657Y006510D01*
X006657Y003630D01*
X005397Y002370D01*
X004947Y002014D02*
X004947Y001654D01*
X005247Y001354D01*
X005247Y000717D01*
X005295Y000600D01*
X004538Y000600D01*
X004587Y000717D01*
X004587Y001583D01*
X004497Y001801D01*
X004497Y001920D01*
X004733Y001920D01*
X004887Y002074D01*
X004947Y002014D01*
X004939Y002022D02*
X004834Y002022D01*
X004736Y001923D02*
X004947Y001923D01*
X004947Y001825D02*
X004497Y001825D01*
X004528Y001726D02*
X004947Y001726D01*
X004973Y001628D02*
X004568Y001628D01*
X004587Y001529D02*
X005072Y001529D01*
X005170Y001431D02*
X004587Y001431D01*
X004587Y001332D02*
X005247Y001332D01*
X005247Y001234D02*
X004587Y001234D01*
X004587Y001135D02*
X005247Y001135D01*
X005247Y001037D02*
X004587Y001037D01*
X004587Y000938D02*
X005247Y000938D01*
X005247Y000840D02*
X004587Y000840D01*
X004587Y000741D02*
X005247Y000741D01*
X005277Y000643D02*
X004556Y000643D01*
X004917Y001150D02*
X004917Y003210D01*
X005217Y003510D01*
X005260Y003499D02*
X005932Y003499D01*
X006030Y003598D02*
X005358Y003598D01*
X005457Y003696D02*
X006129Y003696D01*
X006227Y003795D02*
X005555Y003795D01*
X005654Y003893D02*
X006237Y003893D01*
X006237Y003804D02*
X005373Y002940D01*
X005161Y002940D01*
X005007Y002786D01*
X004917Y002876D01*
X004917Y003156D01*
X006237Y004476D01*
X006237Y003804D01*
X006237Y003992D02*
X005752Y003992D01*
X005851Y004090D02*
X006237Y004090D01*
X006237Y004189D02*
X005949Y004189D01*
X006048Y004287D02*
X006237Y004287D01*
X006237Y004386D02*
X006146Y004386D01*
X005697Y005190D02*
X005697Y008010D01*
X006477Y008790D01*
X006477Y011190D01*
X004617Y013050D01*
X004617Y013950D01*
X005039Y014334D02*
X015967Y014334D01*
X015967Y014236D02*
X005137Y014236D01*
X005187Y014137D02*
X015967Y014137D01*
X015967Y014039D02*
X005187Y014039D01*
X005187Y013940D02*
X011333Y013940D01*
X011234Y013842D02*
X005187Y013842D01*
X005187Y013743D02*
X011136Y013743D01*
X011037Y013645D02*
X005117Y013645D01*
X005037Y013546D02*
X010939Y013546D01*
X010840Y013448D02*
X005037Y013448D01*
X005037Y013349D02*
X010742Y013349D01*
X010643Y013251D02*
X005037Y013251D01*
X005109Y013152D02*
X010545Y013152D01*
X010446Y013054D02*
X005207Y013054D01*
X005306Y012955D02*
X010348Y012955D01*
X010249Y012857D02*
X005404Y012857D01*
X005503Y012758D02*
X010151Y012758D01*
X010052Y012660D02*
X005601Y012660D01*
X005700Y012561D02*
X009954Y012561D01*
X009855Y012463D02*
X005798Y012463D01*
X005897Y012364D02*
X009757Y012364D01*
X009695Y012266D02*
X005995Y012266D01*
X006094Y012167D02*
X009657Y012167D01*
X009641Y012069D02*
X006192Y012069D01*
X006291Y011970D02*
X009543Y011970D01*
X009444Y011872D02*
X006389Y011872D01*
X006488Y011773D02*
X009346Y011773D01*
X009247Y011675D02*
X006586Y011675D01*
X006685Y011576D02*
X009149Y011576D01*
X009050Y011478D02*
X006783Y011478D01*
X006853Y011379D02*
X008952Y011379D01*
X008853Y011281D02*
X006894Y011281D01*
X006897Y011182D02*
X008755Y011182D01*
X008656Y011084D02*
X006897Y011084D01*
X006897Y010985D02*
X008558Y010985D01*
X008459Y010887D02*
X006897Y010887D01*
X006897Y010788D02*
X008361Y010788D01*
X008262Y010690D02*
X006897Y010690D01*
X006897Y010591D02*
X008164Y010591D01*
X008065Y010493D02*
X006897Y010493D01*
X006897Y010394D02*
X007967Y010394D01*
X007868Y010296D02*
X006897Y010296D01*
X006897Y010197D02*
X007770Y010197D01*
X007671Y010099D02*
X006897Y010099D01*
X006897Y010000D02*
X007573Y010000D01*
X007474Y009902D02*
X006897Y009902D01*
X006897Y009803D02*
X007376Y009803D01*
X007277Y009705D02*
X006897Y009705D01*
X006897Y009606D02*
X007179Y009606D01*
X007080Y009508D02*
X006897Y009508D01*
X006897Y009409D02*
X006982Y009409D01*
X007579Y008818D02*
X010377Y008818D01*
X010377Y008720D02*
X007480Y008720D01*
X007382Y008621D02*
X010377Y008621D01*
X010377Y008523D02*
X007283Y008523D01*
X007185Y008424D02*
X010377Y008424D01*
X010377Y008326D02*
X007086Y008326D01*
X006988Y008227D02*
X010377Y008227D01*
X010377Y008129D02*
X006897Y008129D01*
X006897Y008136D02*
X010121Y011360D01*
X010201Y011280D01*
X010377Y011280D01*
X010377Y007916D01*
X010227Y007766D01*
X010227Y007590D01*
X007233Y007590D01*
X007079Y007526D01*
X006961Y007408D01*
X006897Y007344D01*
X006897Y008136D01*
X006897Y008030D02*
X010377Y008030D01*
X010377Y007932D02*
X006897Y007932D01*
X006897Y007833D02*
X010294Y007833D01*
X010227Y007735D02*
X006897Y007735D01*
X006897Y007636D02*
X010227Y007636D01*
X010797Y007530D02*
X010797Y011490D01*
X010437Y011850D01*
X010077Y011910D02*
X010077Y012090D01*
X011577Y013590D01*
X011937Y013590D01*
X012356Y012577D02*
X012537Y012396D01*
X012537Y012006D01*
X012601Y011852D01*
X012747Y011706D01*
X012747Y011372D01*
X012969Y011150D01*
X012747Y010928D01*
X012747Y010614D01*
X012601Y010468D01*
X012537Y010314D01*
X012537Y009264D01*
X012354Y009081D01*
X012375Y009131D01*
X012375Y009381D01*
X012279Y009612D01*
X012241Y009650D01*
X012279Y009688D01*
X012375Y009919D01*
X012375Y010169D01*
X012279Y010399D01*
X012241Y010437D01*
X012279Y010476D01*
X012375Y010706D01*
X012375Y010956D01*
X012279Y011187D01*
X012241Y011225D01*
X012279Y011263D01*
X012375Y011494D01*
X012375Y011743D01*
X012279Y011974D01*
X012241Y012012D01*
X012279Y012050D01*
X012375Y012281D01*
X012375Y012531D01*
X012356Y012577D01*
X012362Y012561D02*
X012372Y012561D01*
X012375Y012463D02*
X012470Y012463D01*
X012537Y012364D02*
X012375Y012364D01*
X012368Y012266D02*
X012537Y012266D01*
X012537Y012167D02*
X012328Y012167D01*
X012287Y012069D02*
X012537Y012069D01*
X012552Y011970D02*
X012281Y011970D01*
X012322Y011872D02*
X012593Y011872D01*
X012680Y011773D02*
X012363Y011773D01*
X012375Y011675D02*
X012747Y011675D01*
X012747Y011576D02*
X012375Y011576D01*
X012368Y011478D02*
X012747Y011478D01*
X012747Y011379D02*
X012327Y011379D01*
X012287Y011281D02*
X012839Y011281D01*
X012937Y011182D02*
X012281Y011182D01*
X012322Y011084D02*
X012903Y011084D01*
X012804Y010985D02*
X012363Y010985D01*
X012375Y010887D02*
X012747Y010887D01*
X012747Y010788D02*
X012375Y010788D01*
X012368Y010690D02*
X012747Y010690D01*
X012724Y010591D02*
X012327Y010591D01*
X012286Y010493D02*
X012625Y010493D01*
X012570Y010394D02*
X012281Y010394D01*
X012322Y010296D02*
X012537Y010296D01*
X012537Y010197D02*
X012363Y010197D01*
X012375Y010099D02*
X012537Y010099D01*
X012537Y010000D02*
X012375Y010000D01*
X012368Y009902D02*
X012537Y009902D01*
X012537Y009803D02*
X012327Y009803D01*
X012286Y009705D02*
X012537Y009705D01*
X012537Y009606D02*
X012282Y009606D01*
X012322Y009508D02*
X012537Y009508D01*
X012537Y009409D02*
X012363Y009409D01*
X012375Y009311D02*
X012537Y009311D01*
X012485Y009212D02*
X012375Y009212D01*
X012367Y009114D02*
X012386Y009114D01*
X013417Y008650D02*
X012057Y007290D01*
X011577Y007290D01*
X010617Y006330D01*
X010617Y006030D01*
X010737Y005430D02*
X010737Y004890D01*
X012957Y002670D01*
X012957Y002070D01*
X013377Y001650D01*
X013417Y001650D01*
X013894Y002120D02*
X013939Y002120D01*
X013917Y002098D02*
X013864Y002150D01*
X013917Y002202D01*
X013969Y002150D01*
X013917Y002098D01*
X013417Y002650D02*
X013377Y002670D01*
X011097Y004950D01*
X011097Y005310D01*
X010737Y005430D02*
X009417Y006750D01*
X007377Y006750D01*
X007077Y006244D02*
X007141Y006180D01*
X007173Y006180D01*
X007077Y006084D01*
X007077Y006244D01*
X007077Y006159D02*
X007151Y006159D01*
X007737Y005670D02*
X008097Y006030D01*
X008539Y005666D02*
X008847Y005666D01*
X008847Y005726D02*
X008847Y005514D01*
X008157Y004824D01*
X008157Y005460D01*
X008333Y005460D01*
X008667Y005794D01*
X008667Y005970D01*
X009091Y005970D01*
X008847Y005726D01*
X008885Y005765D02*
X008637Y005765D01*
X008667Y005863D02*
X008984Y005863D01*
X009082Y005962D02*
X008667Y005962D01*
X008847Y005568D02*
X008440Y005568D01*
X008342Y005469D02*
X008802Y005469D01*
X008703Y005371D02*
X008157Y005371D01*
X008157Y005272D02*
X008605Y005272D01*
X008506Y005174D02*
X008157Y005174D01*
X008157Y005075D02*
X008408Y005075D01*
X008309Y004977D02*
X008157Y004977D01*
X008157Y004878D02*
X008211Y004878D01*
X008808Y004287D02*
X008940Y004287D01*
X008906Y004386D02*
X009038Y004386D01*
X009005Y004484D02*
X009137Y004484D01*
X009103Y004583D02*
X009235Y004583D01*
X009202Y004681D02*
X009334Y004681D01*
X009300Y004780D02*
X009432Y004780D01*
X009477Y004824D02*
X009477Y004920D01*
X009441Y004920D01*
X008337Y003816D01*
X008337Y003684D01*
X009477Y004824D01*
X009477Y004878D02*
X009399Y004878D01*
X009897Y004650D02*
X009897Y005490D01*
X009417Y005490D02*
X007917Y003990D01*
X007917Y003150D01*
X008037Y002790D02*
X007557Y002790D01*
X008037Y002790D02*
X009897Y004650D01*
X010137Y004296D02*
X010137Y003564D01*
X010097Y003604D01*
X010097Y003775D01*
X010001Y004007D01*
X009924Y004083D01*
X010135Y004294D01*
X010137Y004296D01*
X010137Y004287D02*
X010128Y004287D01*
X010137Y004189D02*
X010029Y004189D01*
X009931Y004090D02*
X010137Y004090D01*
X010137Y003992D02*
X010007Y003992D01*
X010048Y003893D02*
X010137Y003893D01*
X010137Y003795D02*
X010089Y003795D01*
X010097Y003696D02*
X010137Y003696D01*
X010137Y003598D02*
X010103Y003598D01*
X009897Y003210D02*
X009477Y003630D01*
X009467Y003650D01*
X009897Y003210D02*
X009897Y001650D01*
X009917Y001650D01*
X009477Y002101D02*
X009417Y002041D01*
X009178Y002280D01*
X008656Y002280D01*
X008287Y001911D01*
X008287Y001650D01*
X006951Y001650D01*
X006697Y001904D01*
X006987Y002194D01*
X006987Y002586D01*
X006987Y002554D01*
X007321Y002220D01*
X007793Y002220D01*
X007943Y002370D01*
X008120Y002370D01*
X008275Y002434D01*
X009033Y003193D01*
X009110Y003116D01*
X009341Y003020D01*
X009477Y003020D01*
X009477Y002101D01*
X009477Y002120D02*
X009338Y002120D01*
X009239Y002219D02*
X009477Y002219D01*
X009477Y002317D02*
X007890Y002317D01*
X008230Y002416D02*
X009477Y002416D01*
X009477Y002514D02*
X008355Y002514D01*
X008453Y002613D02*
X009477Y002613D01*
X009477Y002711D02*
X008552Y002711D01*
X008650Y002810D02*
X009477Y002810D01*
X009477Y002908D02*
X008749Y002908D01*
X008847Y003007D02*
X009477Y003007D01*
X009136Y003105D02*
X008946Y003105D01*
X008349Y003696D02*
X008337Y003696D01*
X008337Y003795D02*
X008447Y003795D01*
X008414Y003893D02*
X008546Y003893D01*
X008512Y003992D02*
X008644Y003992D01*
X008611Y004090D02*
X008743Y004090D01*
X008709Y004189D02*
X008841Y004189D01*
X007737Y003930D02*
X007737Y005670D01*
X007977Y006390D02*
X007017Y005430D01*
X006477Y005310D02*
X006477Y008310D01*
X010077Y011910D01*
X010041Y011281D02*
X010200Y011281D01*
X010377Y011182D02*
X009943Y011182D01*
X009844Y011084D02*
X010377Y011084D01*
X010377Y010985D02*
X009746Y010985D01*
X009647Y010887D02*
X010377Y010887D01*
X010377Y010788D02*
X009549Y010788D01*
X009450Y010690D02*
X010377Y010690D01*
X010377Y010591D02*
X009352Y010591D01*
X009253Y010493D02*
X010377Y010493D01*
X010377Y010394D02*
X009155Y010394D01*
X009056Y010296D02*
X010377Y010296D01*
X010377Y010197D02*
X008958Y010197D01*
X008859Y010099D02*
X010377Y010099D01*
X010377Y010000D02*
X008761Y010000D01*
X008662Y009902D02*
X010377Y009902D01*
X010377Y009803D02*
X008564Y009803D01*
X008465Y009705D02*
X010377Y009705D01*
X010377Y009606D02*
X008367Y009606D01*
X008268Y009508D02*
X010377Y009508D01*
X010377Y009409D02*
X008170Y009409D01*
X008071Y009311D02*
X010377Y009311D01*
X010377Y009212D02*
X007973Y009212D01*
X007874Y009114D02*
X010377Y009114D01*
X010377Y009015D02*
X007776Y009015D01*
X007677Y008917D02*
X010377Y008917D01*
X011217Y008900D02*
X011254Y008863D01*
X011217Y008826D01*
X011217Y008900D01*
X011217Y009613D02*
X011217Y009687D01*
X011254Y009650D01*
X011217Y009613D01*
X011217Y010400D02*
X011217Y010474D01*
X011254Y010437D01*
X011217Y010400D01*
X011217Y011188D02*
X011217Y011262D01*
X011254Y011225D01*
X011217Y011188D01*
X011125Y011756D02*
X011007Y011874D01*
X011007Y012086D01*
X010837Y012256D01*
X011126Y012545D01*
X011120Y012531D01*
X011120Y012281D01*
X011215Y012050D01*
X011254Y012012D01*
X011215Y011974D01*
X011125Y011756D01*
X011132Y011773D02*
X011108Y011773D01*
X011173Y011872D02*
X011009Y011872D01*
X011007Y011970D02*
X011214Y011970D01*
X011208Y012069D02*
X011007Y012069D01*
X010926Y012167D02*
X011167Y012167D01*
X011126Y012266D02*
X010846Y012266D01*
X010945Y012364D02*
X011120Y012364D01*
X011120Y012463D02*
X011043Y012463D01*
X013764Y013251D02*
X014070Y013251D01*
X013971Y013152D02*
X013862Y013152D01*
X013917Y012202D02*
X013969Y012150D01*
X013917Y012098D01*
X013864Y012150D01*
X013917Y012202D01*
X013952Y012167D02*
X013881Y012167D01*
X013917Y010202D02*
X013969Y010150D01*
X013917Y010098D01*
X013864Y010150D01*
X013917Y010202D01*
X013911Y010197D02*
X013922Y010197D01*
X013916Y010099D02*
X013918Y010099D01*
X013917Y009202D02*
X013969Y009150D01*
X013917Y009098D01*
X013864Y009150D01*
X013917Y009202D01*
X013901Y009114D02*
X013933Y009114D01*
X013917Y008202D02*
X013969Y008150D01*
X013917Y008098D01*
X013864Y008150D01*
X013917Y008202D01*
X013886Y008129D02*
X013948Y008129D01*
X013417Y007650D02*
X013377Y007650D01*
X012837Y007110D01*
X012837Y004710D01*
X012417Y005456D02*
X012200Y005672D01*
X012279Y005751D01*
X012375Y005982D01*
X012375Y006232D01*
X012279Y006462D01*
X012241Y006500D01*
X012279Y006539D01*
X012375Y006769D01*
X012375Y007014D01*
X012417Y007056D01*
X012417Y005456D01*
X012417Y005469D02*
X012404Y005469D01*
X012417Y005568D02*
X012305Y005568D01*
X012207Y005666D02*
X012417Y005666D01*
X012417Y005765D02*
X012285Y005765D01*
X012326Y005863D02*
X012417Y005863D01*
X012417Y005962D02*
X012366Y005962D01*
X012375Y006060D02*
X012417Y006060D01*
X012417Y006159D02*
X012375Y006159D01*
X012364Y006257D02*
X012417Y006257D01*
X012417Y006356D02*
X012323Y006356D01*
X012283Y006454D02*
X012417Y006454D01*
X012417Y006553D02*
X012285Y006553D01*
X012326Y006651D02*
X012417Y006651D01*
X012417Y006750D02*
X012367Y006750D01*
X012375Y006848D02*
X012417Y006848D01*
X012417Y006947D02*
X012375Y006947D01*
X012406Y007045D02*
X012417Y007045D01*
X013864Y007150D02*
X013917Y007202D01*
X013969Y007150D01*
X013917Y007098D01*
X013864Y007150D01*
X013871Y007144D02*
X013963Y007144D01*
X014954Y006060D02*
X015967Y006060D01*
X015967Y005962D02*
X015053Y005962D01*
X015087Y005863D02*
X015967Y005863D01*
X015967Y005765D02*
X015087Y005765D01*
X015087Y005666D02*
X015967Y005666D01*
X015967Y005568D02*
X015087Y005568D01*
X015087Y005469D02*
X015967Y005469D01*
X015967Y005371D02*
X015085Y005371D01*
X014986Y005272D02*
X015967Y005272D01*
X015967Y005174D02*
X014888Y005174D01*
X014939Y005075D02*
X015967Y005075D01*
X015967Y004977D02*
X015038Y004977D01*
X015087Y004878D02*
X015967Y004878D01*
X015967Y004780D02*
X015087Y004780D01*
X015087Y004681D02*
X015967Y004681D01*
X015967Y004583D02*
X015087Y004583D01*
X015087Y004484D02*
X015967Y004484D01*
X015967Y004386D02*
X015087Y004386D01*
X015001Y004287D02*
X015967Y004287D01*
X015967Y004189D02*
X014903Y004189D01*
X014924Y004090D02*
X015967Y004090D01*
X015967Y003992D02*
X015023Y003992D01*
X015087Y003893D02*
X015967Y003893D01*
X015967Y003795D02*
X015087Y003795D01*
X015087Y003696D02*
X015967Y003696D01*
X015967Y003598D02*
X015087Y003598D01*
X015087Y003499D02*
X015967Y003499D01*
X015967Y003401D02*
X015087Y003401D01*
X015016Y003302D02*
X015967Y003302D01*
X015967Y003204D02*
X014918Y003204D01*
X014909Y003105D02*
X015967Y003105D01*
X015967Y003007D02*
X015008Y003007D01*
X015087Y002908D02*
X015967Y002908D01*
X015967Y002810D02*
X015087Y002810D01*
X015087Y002711D02*
X015967Y002711D01*
X015967Y002613D02*
X015087Y002613D01*
X015087Y002514D02*
X015967Y002514D01*
X015967Y002416D02*
X015087Y002416D01*
X015031Y002317D02*
X015967Y002317D01*
X015967Y002219D02*
X014933Y002219D01*
X014894Y002120D02*
X015967Y002120D01*
X015967Y002022D02*
X014993Y002022D01*
X015087Y001923D02*
X015967Y001923D01*
X015967Y001825D02*
X015087Y001825D01*
X015087Y001726D02*
X015967Y001726D01*
X015967Y001628D02*
X015087Y001628D01*
X015087Y001529D02*
X015967Y001529D01*
X015967Y001431D02*
X015087Y001431D01*
X015046Y001332D02*
X015667Y001332D01*
X015474Y001234D02*
X014948Y001234D01*
X014849Y001135D02*
X015376Y001135D01*
X015291Y001037D02*
X014751Y001037D01*
X015210Y000840D02*
X010792Y000840D01*
X010891Y000938D02*
X015251Y000938D01*
X015191Y000741D02*
X010694Y000741D01*
X010947Y001037D02*
X013083Y001037D01*
X012984Y001135D02*
X010947Y001135D01*
X010947Y001234D02*
X012886Y001234D01*
X012787Y001332D02*
X010947Y001332D01*
X010947Y001431D02*
X012747Y001431D01*
X012747Y001529D02*
X010884Y001529D01*
X010785Y001628D02*
X012747Y001628D01*
X012707Y001726D02*
X010687Y001726D01*
X010547Y001825D02*
X012608Y001825D01*
X012563Y001923D02*
X010856Y001923D01*
X010954Y002022D02*
X012537Y002022D01*
X012537Y002120D02*
X011053Y002120D01*
X011127Y002219D02*
X012537Y002219D01*
X012537Y002317D02*
X011127Y002317D01*
X011127Y002416D02*
X012537Y002416D01*
X012519Y002514D02*
X011127Y002514D01*
X011127Y002613D02*
X012420Y002613D01*
X012322Y002711D02*
X011082Y002711D01*
X010983Y002810D02*
X012223Y002810D01*
X012125Y002908D02*
X010977Y002908D01*
X010977Y003007D02*
X012026Y003007D01*
X011928Y003105D02*
X011697Y003105D01*
X011811Y003204D02*
X011829Y003204D01*
X011036Y003105D02*
X010977Y003105D01*
X010557Y002430D02*
X010557Y005310D01*
X009477Y006390D01*
X007977Y006390D01*
X006992Y007439D02*
X006897Y007439D01*
X006897Y007538D02*
X007106Y007538D01*
X005997Y008850D02*
X003477Y011370D01*
X003477Y013410D01*
X003297Y013590D01*
X002877Y013590D01*
X002277Y012990D01*
X002277Y012510D01*
X002637Y012390D02*
X002637Y012870D01*
X002637Y012390D02*
X001437Y011190D01*
X001417Y011150D01*
X001417Y010150D02*
X002517Y011250D01*
X002517Y011850D01*
X003057Y012390D01*
X003086Y012406D01*
X003086Y011619D02*
X003057Y011610D01*
X002697Y011250D01*
X002697Y010410D01*
X001437Y009150D01*
X001417Y009150D01*
X002164Y008650D02*
X002285Y008770D01*
X002387Y009017D01*
X002387Y009283D01*
X002321Y009441D01*
X002561Y009681D01*
X002592Y009650D01*
X002554Y009612D01*
X002458Y009381D01*
X002458Y009131D01*
X002554Y008901D01*
X002592Y008863D01*
X002554Y008824D01*
X002458Y008594D01*
X002458Y008490D01*
X002301Y008490D01*
X002285Y008530D01*
X002164Y008650D01*
X002193Y008621D02*
X002470Y008621D01*
X002458Y008523D02*
X002288Y008523D01*
X002234Y008720D02*
X002511Y008720D01*
X002551Y008818D02*
X002304Y008818D01*
X002345Y008917D02*
X002548Y008917D01*
X002507Y009015D02*
X002386Y009015D01*
X002387Y009114D02*
X002466Y009114D01*
X002458Y009212D02*
X002387Y009212D01*
X002375Y009311D02*
X002458Y009311D01*
X002470Y009409D02*
X002335Y009409D01*
X002388Y009508D02*
X002511Y009508D01*
X002487Y009606D02*
X002552Y009606D01*
X003580Y009650D02*
X003618Y009612D01*
X003713Y009381D01*
X003713Y009131D01*
X003618Y008901D01*
X003580Y008863D01*
X003618Y008824D01*
X003713Y008594D01*
X003713Y008344D01*
X003685Y008276D01*
X004431Y007530D01*
X004531Y007530D01*
X004681Y007680D01*
X004917Y007680D01*
X004917Y008856D01*
X003713Y010059D01*
X003713Y009919D01*
X003618Y009688D01*
X003580Y009650D01*
X003620Y009606D02*
X004167Y009606D01*
X004265Y009508D02*
X003661Y009508D01*
X003702Y009409D02*
X004364Y009409D01*
X004462Y009311D02*
X003713Y009311D01*
X003713Y009212D02*
X004561Y009212D01*
X004659Y009114D02*
X003706Y009114D01*
X003665Y009015D02*
X004758Y009015D01*
X004856Y008917D02*
X003624Y008917D01*
X003621Y008818D02*
X004917Y008818D01*
X004917Y008720D02*
X003661Y008720D01*
X003702Y008621D02*
X004917Y008621D01*
X004917Y008523D02*
X003713Y008523D01*
X003713Y008424D02*
X004917Y008424D01*
X004917Y008326D02*
X003706Y008326D01*
X003734Y008227D02*
X004917Y008227D01*
X004917Y008129D02*
X003832Y008129D01*
X003931Y008030D02*
X004917Y008030D01*
X004917Y007932D02*
X004029Y007932D01*
X004128Y007833D02*
X004917Y007833D01*
X004917Y007735D02*
X004226Y007735D01*
X004325Y007636D02*
X004637Y007636D01*
X004538Y007538D02*
X004423Y007538D01*
X004257Y007110D02*
X003297Y008070D01*
X002337Y008070D01*
X001417Y007150D01*
X002517Y007710D02*
X002517Y006090D01*
X003537Y005070D01*
X003537Y003870D01*
X003177Y003450D02*
X003177Y004290D01*
X002517Y004950D01*
X002517Y005550D01*
X002445Y005568D02*
X002247Y005568D01*
X002285Y005530D02*
X002164Y005650D01*
X002263Y005749D01*
X002279Y005734D01*
X003117Y004896D01*
X003117Y004256D01*
X002967Y004106D01*
X002967Y003634D01*
X003107Y003494D01*
X002877Y003264D01*
X002877Y004144D01*
X003027Y004294D01*
X003027Y004766D01*
X002693Y005100D01*
X002387Y005100D01*
X002387Y005283D01*
X002285Y005530D01*
X002310Y005469D02*
X002544Y005469D01*
X002642Y005371D02*
X002351Y005371D01*
X002387Y005272D02*
X002741Y005272D01*
X002839Y005174D02*
X002387Y005174D01*
X002718Y005075D02*
X002938Y005075D01*
X003036Y004977D02*
X002816Y004977D01*
X002915Y004878D02*
X003117Y004878D01*
X003117Y004780D02*
X003013Y004780D01*
X003027Y004681D02*
X003117Y004681D01*
X003117Y004583D02*
X003027Y004583D01*
X003027Y004484D02*
X003117Y004484D01*
X003117Y004386D02*
X003027Y004386D01*
X003020Y004287D02*
X003117Y004287D01*
X003049Y004189D02*
X002921Y004189D01*
X002877Y004090D02*
X002967Y004090D01*
X002967Y003992D02*
X002877Y003992D01*
X002877Y003893D02*
X002967Y003893D01*
X002967Y003795D02*
X002877Y003795D01*
X002877Y003696D02*
X002967Y003696D01*
X003003Y003598D02*
X002877Y003598D01*
X002877Y003499D02*
X003102Y003499D01*
X003013Y003401D02*
X002877Y003401D01*
X002877Y003302D02*
X002915Y003302D01*
X002457Y003210D02*
X001437Y002190D01*
X001417Y002150D01*
X001850Y001480D02*
X000983Y001480D01*
X000867Y001528D01*
X000867Y001376D01*
X001061Y001376D01*
X001328Y001265D01*
X001532Y001061D01*
X001642Y000794D01*
X001642Y000600D01*
X002295Y000600D01*
X002247Y000717D01*
X002247Y001583D01*
X002287Y001680D01*
X002221Y001680D01*
X002207Y001693D01*
X002096Y001582D01*
X001850Y001480D01*
X001968Y001529D02*
X002247Y001529D01*
X002247Y001431D02*
X000867Y001431D01*
X001166Y001332D02*
X002247Y001332D01*
X002247Y001234D02*
X001359Y001234D01*
X001458Y001135D02*
X002247Y001135D01*
X002247Y001037D02*
X001542Y001037D01*
X001583Y000938D02*
X002247Y000938D01*
X002247Y000840D02*
X001624Y000840D01*
X001642Y000741D02*
X002247Y000741D01*
X002277Y000643D02*
X001642Y000643D01*
X002142Y001628D02*
X002265Y001628D01*
X002457Y002250D02*
X003897Y003690D01*
X003897Y004890D01*
X004797Y005790D01*
X005157Y005910D02*
X005157Y005670D01*
X004797Y005310D01*
X004797Y004830D02*
X004797Y004590D01*
X004077Y003870D01*
X004077Y001290D01*
X003957Y001170D01*
X003917Y001150D01*
X003417Y001898D02*
X003296Y002018D01*
X003050Y002120D01*
X003027Y002120D01*
X003657Y002120D01*
X003657Y002068D02*
X003537Y002018D01*
X003417Y001898D01*
X003442Y001923D02*
X003391Y001923D01*
X003288Y002022D02*
X003546Y002022D01*
X003657Y002068D02*
X003657Y002856D01*
X003027Y002226D01*
X003027Y002120D01*
X003027Y002219D02*
X003657Y002219D01*
X003657Y002317D02*
X003118Y002317D01*
X003216Y002416D02*
X003657Y002416D01*
X003657Y002514D02*
X003315Y002514D01*
X003413Y002613D02*
X003657Y002613D01*
X003657Y002711D02*
X003512Y002711D01*
X003610Y002810D02*
X003657Y002810D01*
X004497Y002490D02*
X004497Y003330D01*
X006477Y005310D01*
X007077Y004860D02*
X007253Y004860D01*
X007317Y004924D01*
X007317Y004104D01*
X007077Y003864D01*
X007077Y004860D01*
X007077Y004780D02*
X007317Y004780D01*
X007317Y004878D02*
X007271Y004878D01*
X007317Y004681D02*
X007077Y004681D01*
X007077Y004583D02*
X007317Y004583D01*
X007317Y004484D02*
X007077Y004484D01*
X007077Y004386D02*
X007317Y004386D01*
X007317Y004287D02*
X007077Y004287D01*
X007077Y004189D02*
X007317Y004189D01*
X007303Y004090D02*
X007077Y004090D01*
X007077Y003992D02*
X007204Y003992D01*
X007106Y003893D02*
X007077Y003893D01*
X007017Y003870D02*
X007017Y003510D01*
X006057Y002550D01*
X006057Y002310D01*
X006717Y001650D01*
X006917Y001650D01*
X006875Y001726D02*
X008287Y001726D01*
X008287Y001825D02*
X006776Y001825D01*
X006716Y001923D02*
X008299Y001923D01*
X008397Y002022D02*
X006814Y002022D01*
X006913Y002120D02*
X008496Y002120D01*
X008594Y002219D02*
X006987Y002219D01*
X006987Y002317D02*
X007224Y002317D01*
X007125Y002416D02*
X006987Y002416D01*
X006987Y002514D02*
X007027Y002514D01*
X006987Y002586D02*
X006987Y002586D01*
X006417Y002610D02*
X006417Y002430D01*
X006417Y002610D02*
X007737Y003930D01*
X005833Y003401D02*
X005161Y003401D01*
X005063Y003302D02*
X005735Y003302D01*
X005636Y003204D02*
X004964Y003204D01*
X004917Y003105D02*
X005538Y003105D01*
X005439Y003007D02*
X004917Y003007D01*
X004917Y002908D02*
X005129Y002908D01*
X005030Y002810D02*
X004983Y002810D01*
X005517Y001890D02*
X006117Y001890D01*
X006777Y001230D01*
X010377Y001230D01*
X010060Y000741D02*
X006587Y000741D01*
X006587Y000840D02*
X006622Y000840D01*
X006556Y000643D02*
X015191Y000643D01*
X014083Y001037D02*
X013751Y001037D01*
X013849Y001135D02*
X013984Y001135D01*
X013917Y003098D02*
X013864Y003150D01*
X013917Y003202D01*
X013969Y003150D01*
X013917Y003098D01*
X013924Y003105D02*
X013909Y003105D01*
X013417Y003650D02*
X011937Y005130D01*
X010344Y006651D02*
X010110Y006651D01*
X010208Y006553D02*
X010254Y006553D01*
X010261Y006568D02*
X010241Y006520D01*
X010011Y006750D01*
X010443Y006750D01*
X010261Y006568D01*
X010442Y006750D02*
X010011Y006750D01*
X013864Y005150D02*
X013917Y005202D01*
X013969Y005150D01*
X013917Y005098D01*
X013864Y005150D01*
X013888Y005174D02*
X013946Y005174D01*
X013917Y004202D02*
X013969Y004150D01*
X013917Y004098D01*
X013864Y004150D01*
X013917Y004202D01*
X013903Y004189D02*
X013931Y004189D01*
X006057Y010076D02*
X005877Y010256D01*
X005877Y011196D01*
X006057Y011016D01*
X006057Y010076D01*
X006057Y010099D02*
X006034Y010099D01*
X006057Y010197D02*
X005936Y010197D01*
X005877Y010296D02*
X006057Y010296D01*
X006057Y010394D02*
X005877Y010394D01*
X005877Y010493D02*
X006057Y010493D01*
X006057Y010591D02*
X005877Y010591D01*
X005877Y010690D02*
X006057Y010690D01*
X006057Y010788D02*
X005877Y010788D01*
X005877Y010887D02*
X006057Y010887D01*
X006057Y010985D02*
X005877Y010985D01*
X005877Y011084D02*
X005989Y011084D01*
X005891Y011182D02*
X005877Y011182D01*
X005457Y011730D02*
X005457Y009870D01*
X005637Y009690D01*
X005337Y009030D02*
X003657Y010710D01*
X003713Y010000D02*
X003773Y010000D01*
X003706Y009902D02*
X003871Y009902D01*
X003970Y009803D02*
X003665Y009803D01*
X003625Y009705D02*
X004068Y009705D01*
X004948Y010493D02*
X005037Y010493D01*
X005037Y010591D02*
X004850Y010591D01*
X004751Y010690D02*
X005037Y010690D01*
X005037Y010788D02*
X004653Y010788D01*
X004554Y010887D02*
X005037Y010887D01*
X005037Y010985D02*
X004456Y010985D01*
X004357Y011084D02*
X005037Y011084D01*
X005037Y011182D02*
X004259Y011182D01*
X004160Y011281D02*
X005037Y011281D01*
X005037Y011190D02*
X005037Y012150D01*
X003417Y013770D01*
X002037Y013770D01*
X001417Y013150D01*
X001817Y012857D02*
X000867Y012857D01*
X000867Y012955D02*
X001857Y012955D01*
X001857Y013054D02*
X000867Y013054D01*
X000867Y013152D02*
X001889Y013152D01*
X001943Y013251D02*
X000867Y013251D01*
X000867Y013349D02*
X002042Y013349D01*
X002140Y013448D02*
X000867Y013448D01*
X000867Y013546D02*
X002239Y013546D01*
X002337Y013645D02*
X000867Y013645D01*
X000867Y013743D02*
X002436Y013743D01*
X002534Y013842D02*
X000867Y013842D01*
X000867Y013940D02*
X002633Y013940D01*
X003541Y013940D02*
X004047Y013940D01*
X004047Y013842D02*
X003639Y013842D01*
X003738Y013743D02*
X004047Y013743D01*
X004116Y013645D02*
X003834Y013645D01*
X003875Y013546D02*
X004197Y013546D01*
X004197Y013448D02*
X003897Y013448D01*
X003897Y013349D02*
X004197Y013349D01*
X004197Y013251D02*
X003897Y013251D01*
X003897Y013152D02*
X004197Y013152D01*
X004197Y013054D02*
X003897Y013054D01*
X003897Y012955D02*
X004201Y012955D01*
X004242Y012857D02*
X003897Y012857D01*
X003897Y012758D02*
X004315Y012758D01*
X004413Y012660D02*
X003897Y012660D01*
X003897Y012561D02*
X004512Y012561D01*
X004610Y012463D02*
X003897Y012463D01*
X003897Y012364D02*
X004709Y012364D01*
X004807Y012266D02*
X003897Y012266D01*
X003897Y012167D02*
X004906Y012167D01*
X004989Y012069D02*
X003897Y012069D01*
X003897Y011970D02*
X004891Y011970D01*
X004887Y011872D02*
X003897Y011872D01*
X003897Y011773D02*
X004887Y011773D01*
X004887Y011675D02*
X003897Y011675D01*
X003897Y011576D02*
X004887Y011576D01*
X004903Y011478D02*
X003963Y011478D01*
X004062Y011379D02*
X005002Y011379D01*
X005337Y009030D02*
X005337Y004830D01*
X004797Y004290D01*
X004797Y004110D01*
X003807Y005394D02*
X003561Y005640D01*
X003893Y005640D01*
X004043Y005790D01*
X004203Y005790D01*
X003807Y005394D01*
X003732Y005469D02*
X003882Y005469D01*
X003980Y005568D02*
X003633Y005568D01*
X003919Y005666D02*
X004079Y005666D01*
X004017Y005765D02*
X004177Y005765D01*
X003657Y006210D02*
X004857Y006210D01*
X005157Y005910D01*
X004591Y006630D02*
X004043Y006630D01*
X003893Y006780D01*
X003713Y006780D01*
X003713Y007019D01*
X003685Y007088D01*
X004019Y006754D01*
X004173Y006690D01*
X004531Y006690D01*
X004591Y006630D01*
X004570Y006651D02*
X004022Y006651D01*
X004029Y006750D02*
X003923Y006750D01*
X003925Y006848D02*
X003713Y006848D01*
X003713Y006947D02*
X003826Y006947D01*
X003728Y007045D02*
X003703Y007045D01*
X004257Y007110D02*
X004917Y007110D01*
X002347Y005666D02*
X002180Y005666D01*
X002457Y004530D02*
X002457Y003210D01*
X000867Y014039D02*
X004047Y014039D01*
X004047Y014137D02*
X000867Y014137D01*
X000867Y014236D02*
X004096Y014236D01*
X004195Y014334D02*
X000867Y014334D01*
X000867Y014433D02*
X004293Y014433D01*
X004940Y014433D02*
X015967Y014433D01*
X015967Y014531D02*
X000867Y014531D01*
X000867Y014630D02*
X015967Y014630D01*
X015967Y014728D02*
X000867Y014728D01*
X000867Y014827D02*
X015967Y014827D01*
X015771Y014925D02*
X001063Y014925D01*
X001300Y015024D02*
X015533Y015024D01*
X015418Y015122D02*
X001415Y015122D01*
X001513Y015221D02*
X015320Y015221D01*
X015268Y015319D02*
X001565Y015319D01*
X001606Y015418D02*
X015228Y015418D01*
X015191Y015516D02*
X001642Y015516D01*
X001642Y015615D02*
X015191Y015615D01*
D17*
X010437Y011850D03*
X006477Y008790D03*
X005997Y008850D03*
X005637Y009690D03*
X005037Y011190D03*
X005457Y011730D03*
X003657Y010710D03*
X002277Y012510D03*
X002637Y012870D03*
X004617Y013950D03*
X002517Y007710D03*
X003657Y006210D03*
X004797Y005790D03*
X004797Y005310D03*
X004797Y004830D03*
X004797Y004110D03*
X005217Y003510D03*
X004497Y002490D03*
X005397Y002370D03*
X005517Y001890D03*
X006417Y002430D03*
X007557Y002790D03*
X007917Y003150D03*
X007017Y003870D03*
X005697Y005190D03*
X007017Y005430D03*
X008097Y006030D03*
X007377Y006750D03*
X009417Y005490D03*
X009897Y005490D03*
X010617Y006030D03*
X011097Y005310D03*
X011937Y005130D03*
X012837Y004710D03*
X010557Y002430D03*
X010377Y001230D03*
X004917Y007110D03*
X002517Y005550D03*
X002457Y004530D03*
X003537Y003870D03*
X003177Y003450D03*
X002457Y002250D03*
X010797Y007530D03*
M02*
