G75*
G70*
%OFA0B0*%
%FSLAX24Y24*%
%IPPOS*%
%LPD*%
%AMOC8*
5,1,8,0,0,1.08239X$1,22.5*
%
%ADD10C,0.0000*%
%ADD11R,0.0500X0.0220*%
%ADD12R,0.0220X0.0500*%
%ADD13C,0.0520*%
%ADD14OC8,0.0520*%
%ADD15C,0.0515*%
%ADD16R,0.0480X0.0880*%
%ADD17R,0.1417X0.0866*%
%ADD18R,0.0512X0.0630*%
%ADD19C,0.0600*%
%ADD20R,0.0394X0.0433*%
%ADD21R,0.0433X0.0394*%
%ADD22R,0.0591X0.0591*%
%ADD23OC8,0.0600*%
%ADD24C,0.0100*%
%ADD25OC8,0.0400*%
%ADD26C,0.0500*%
%ADD27C,0.0320*%
D10*
X000417Y000150D02*
X000417Y016150D01*
X016417Y016150D01*
X016417Y000150D01*
X000417Y000150D01*
X000641Y000650D02*
X000643Y000683D01*
X000649Y000715D01*
X000658Y000746D01*
X000671Y000776D01*
X000688Y000804D01*
X000708Y000830D01*
X000731Y000854D01*
X000756Y000874D01*
X000784Y000892D01*
X000813Y000906D01*
X000844Y000916D01*
X000876Y000923D01*
X000909Y000926D01*
X000942Y000925D01*
X000974Y000920D01*
X001005Y000911D01*
X001036Y000899D01*
X001064Y000883D01*
X001091Y000864D01*
X001115Y000842D01*
X001136Y000817D01*
X001155Y000790D01*
X001170Y000761D01*
X001181Y000731D01*
X001189Y000699D01*
X001193Y000666D01*
X001193Y000634D01*
X001189Y000601D01*
X001181Y000569D01*
X001170Y000539D01*
X001155Y000510D01*
X001136Y000483D01*
X001115Y000458D01*
X001091Y000436D01*
X001064Y000417D01*
X001036Y000401D01*
X001005Y000389D01*
X000974Y000380D01*
X000942Y000375D01*
X000909Y000374D01*
X000876Y000377D01*
X000844Y000384D01*
X000813Y000394D01*
X000784Y000408D01*
X000756Y000426D01*
X000731Y000446D01*
X000708Y000470D01*
X000688Y000496D01*
X000671Y000524D01*
X000658Y000554D01*
X000649Y000585D01*
X000643Y000617D01*
X000641Y000650D01*
X015641Y000650D02*
X015643Y000683D01*
X015649Y000715D01*
X015658Y000746D01*
X015671Y000776D01*
X015688Y000804D01*
X015708Y000830D01*
X015731Y000854D01*
X015756Y000874D01*
X015784Y000892D01*
X015813Y000906D01*
X015844Y000916D01*
X015876Y000923D01*
X015909Y000926D01*
X015942Y000925D01*
X015974Y000920D01*
X016005Y000911D01*
X016036Y000899D01*
X016064Y000883D01*
X016091Y000864D01*
X016115Y000842D01*
X016136Y000817D01*
X016155Y000790D01*
X016170Y000761D01*
X016181Y000731D01*
X016189Y000699D01*
X016193Y000666D01*
X016193Y000634D01*
X016189Y000601D01*
X016181Y000569D01*
X016170Y000539D01*
X016155Y000510D01*
X016136Y000483D01*
X016115Y000458D01*
X016091Y000436D01*
X016064Y000417D01*
X016036Y000401D01*
X016005Y000389D01*
X015974Y000380D01*
X015942Y000375D01*
X015909Y000374D01*
X015876Y000377D01*
X015844Y000384D01*
X015813Y000394D01*
X015784Y000408D01*
X015756Y000426D01*
X015731Y000446D01*
X015708Y000470D01*
X015688Y000496D01*
X015671Y000524D01*
X015658Y000554D01*
X015649Y000585D01*
X015643Y000617D01*
X015641Y000650D01*
X015641Y015650D02*
X015643Y015683D01*
X015649Y015715D01*
X015658Y015746D01*
X015671Y015776D01*
X015688Y015804D01*
X015708Y015830D01*
X015731Y015854D01*
X015756Y015874D01*
X015784Y015892D01*
X015813Y015906D01*
X015844Y015916D01*
X015876Y015923D01*
X015909Y015926D01*
X015942Y015925D01*
X015974Y015920D01*
X016005Y015911D01*
X016036Y015899D01*
X016064Y015883D01*
X016091Y015864D01*
X016115Y015842D01*
X016136Y015817D01*
X016155Y015790D01*
X016170Y015761D01*
X016181Y015731D01*
X016189Y015699D01*
X016193Y015666D01*
X016193Y015634D01*
X016189Y015601D01*
X016181Y015569D01*
X016170Y015539D01*
X016155Y015510D01*
X016136Y015483D01*
X016115Y015458D01*
X016091Y015436D01*
X016064Y015417D01*
X016036Y015401D01*
X016005Y015389D01*
X015974Y015380D01*
X015942Y015375D01*
X015909Y015374D01*
X015876Y015377D01*
X015844Y015384D01*
X015813Y015394D01*
X015784Y015408D01*
X015756Y015426D01*
X015731Y015446D01*
X015708Y015470D01*
X015688Y015496D01*
X015671Y015524D01*
X015658Y015554D01*
X015649Y015585D01*
X015643Y015617D01*
X015641Y015650D01*
X000641Y015650D02*
X000643Y015683D01*
X000649Y015715D01*
X000658Y015746D01*
X000671Y015776D01*
X000688Y015804D01*
X000708Y015830D01*
X000731Y015854D01*
X000756Y015874D01*
X000784Y015892D01*
X000813Y015906D01*
X000844Y015916D01*
X000876Y015923D01*
X000909Y015926D01*
X000942Y015925D01*
X000974Y015920D01*
X001005Y015911D01*
X001036Y015899D01*
X001064Y015883D01*
X001091Y015864D01*
X001115Y015842D01*
X001136Y015817D01*
X001155Y015790D01*
X001170Y015761D01*
X001181Y015731D01*
X001189Y015699D01*
X001193Y015666D01*
X001193Y015634D01*
X001189Y015601D01*
X001181Y015569D01*
X001170Y015539D01*
X001155Y015510D01*
X001136Y015483D01*
X001115Y015458D01*
X001091Y015436D01*
X001064Y015417D01*
X001036Y015401D01*
X001005Y015389D01*
X000974Y015380D01*
X000942Y015375D01*
X000909Y015374D01*
X000876Y015377D01*
X000844Y015384D01*
X000813Y015394D01*
X000784Y015408D01*
X000756Y015426D01*
X000731Y015446D01*
X000708Y015470D01*
X000688Y015496D01*
X000671Y015524D01*
X000658Y015554D01*
X000649Y015585D01*
X000643Y015617D01*
X000641Y015650D01*
D11*
G36*
X004917Y006586D02*
X004918Y006087D01*
X004699Y006086D01*
X004698Y006585D01*
X004917Y006586D01*
G37*
G36*
X005232Y006587D02*
X005233Y006088D01*
X005014Y006087D01*
X005013Y006586D01*
X005232Y006587D01*
G37*
G36*
X005547Y006588D02*
X005548Y006089D01*
X005329Y006088D01*
X005328Y006587D01*
X005547Y006588D01*
G37*
G36*
X005862Y006589D02*
X005863Y006090D01*
X005644Y006089D01*
X005643Y006588D01*
X005862Y006589D01*
G37*
G36*
X006177Y006591D02*
X006178Y006092D01*
X005959Y006091D01*
X005958Y006590D01*
X006177Y006591D01*
G37*
G36*
X006492Y006592D02*
X006493Y006093D01*
X006274Y006092D01*
X006273Y006591D01*
X006492Y006592D01*
G37*
G36*
X006807Y006593D02*
X006808Y006094D01*
X006589Y006093D01*
X006588Y006592D01*
X006807Y006593D01*
G37*
G36*
X007122Y006594D02*
X007123Y006095D01*
X006904Y006094D01*
X006903Y006593D01*
X007122Y006594D01*
G37*
G36*
X007134Y003214D02*
X007135Y002715D01*
X006916Y002714D01*
X006915Y003213D01*
X007134Y003214D01*
G37*
G36*
X006819Y003213D02*
X006820Y002714D01*
X006601Y002713D01*
X006600Y003212D01*
X006819Y003213D01*
G37*
G36*
X006504Y003212D02*
X006505Y002713D01*
X006286Y002712D01*
X006285Y003211D01*
X006504Y003212D01*
G37*
G36*
X006189Y003211D02*
X006190Y002712D01*
X005971Y002711D01*
X005970Y003210D01*
X006189Y003211D01*
G37*
G36*
X005874Y003209D02*
X005875Y002710D01*
X005656Y002709D01*
X005655Y003208D01*
X005874Y003209D01*
G37*
G36*
X005559Y003208D02*
X005560Y002709D01*
X005341Y002708D01*
X005340Y003207D01*
X005559Y003208D01*
G37*
G36*
X005244Y003207D02*
X005245Y002708D01*
X005026Y002707D01*
X005025Y003206D01*
X005244Y003207D01*
G37*
G36*
X004929Y003206D02*
X004930Y002707D01*
X004711Y002706D01*
X004710Y003205D01*
X004929Y003206D01*
G37*
D12*
G36*
X004480Y003652D02*
X004481Y003433D01*
X003982Y003432D01*
X003981Y003651D01*
X004480Y003652D01*
G37*
G36*
X004478Y003967D02*
X004479Y003748D01*
X003980Y003747D01*
X003979Y003966D01*
X004478Y003967D01*
G37*
G36*
X004477Y004282D02*
X004478Y004063D01*
X003979Y004062D01*
X003978Y004281D01*
X004477Y004282D01*
G37*
G36*
X004476Y004597D02*
X004477Y004378D01*
X003978Y004377D01*
X003977Y004596D01*
X004476Y004597D01*
G37*
G36*
X004475Y004912D02*
X004476Y004693D01*
X003977Y004692D01*
X003976Y004911D01*
X004475Y004912D01*
G37*
G36*
X004474Y005227D02*
X004475Y005008D01*
X003976Y005007D01*
X003975Y005226D01*
X004474Y005227D01*
G37*
G36*
X004473Y005541D02*
X004474Y005322D01*
X003975Y005321D01*
X003974Y005540D01*
X004473Y005541D01*
G37*
G36*
X004472Y005856D02*
X004473Y005637D01*
X003974Y005636D01*
X003973Y005855D01*
X004472Y005856D01*
G37*
G36*
X007852Y005868D02*
X007853Y005649D01*
X007354Y005648D01*
X007353Y005867D01*
X007852Y005868D01*
G37*
G36*
X007853Y005553D02*
X007854Y005334D01*
X007355Y005333D01*
X007354Y005552D01*
X007853Y005553D01*
G37*
G36*
X007854Y005238D02*
X007855Y005019D01*
X007356Y005018D01*
X007355Y005237D01*
X007854Y005238D01*
G37*
G36*
X007855Y004923D02*
X007856Y004704D01*
X007357Y004703D01*
X007356Y004922D01*
X007855Y004923D01*
G37*
G36*
X007856Y004608D02*
X007857Y004389D01*
X007358Y004388D01*
X007357Y004607D01*
X007856Y004608D01*
G37*
G36*
X007857Y004293D02*
X007858Y004074D01*
X007359Y004073D01*
X007358Y004292D01*
X007857Y004293D01*
G37*
G36*
X007858Y003979D02*
X007859Y003760D01*
X007360Y003759D01*
X007359Y003978D01*
X007858Y003979D01*
G37*
G36*
X007860Y003664D02*
X007861Y003445D01*
X007362Y003444D01*
X007361Y003663D01*
X007860Y003664D01*
G37*
D13*
X009467Y003650D03*
X011367Y003650D03*
D14*
X011917Y001650D03*
X009917Y001650D03*
X008917Y001650D03*
X006917Y001650D03*
D15*
X003086Y006107D03*
X003086Y006894D03*
X003086Y007681D03*
X003086Y008469D03*
X003086Y009256D03*
X003086Y010044D03*
X003086Y010831D03*
X003086Y011619D03*
X003086Y012406D03*
X003086Y013193D03*
X011747Y013193D03*
X011747Y012406D03*
X011747Y011619D03*
X011747Y010831D03*
X011747Y010044D03*
X011747Y009256D03*
X011747Y008469D03*
X011747Y007681D03*
X011747Y006894D03*
X011747Y006107D03*
D16*
X010327Y010430D03*
X009417Y010430D03*
X008507Y010430D03*
X006327Y010430D03*
X005417Y010430D03*
X004507Y010430D03*
D17*
X005417Y012870D03*
X009417Y012870D03*
D18*
X010023Y008150D03*
X010810Y008150D03*
X010810Y006650D03*
X010023Y006650D03*
X008810Y006650D03*
X008023Y006650D03*
X008023Y008150D03*
X008810Y008150D03*
X006810Y008150D03*
X006023Y008150D03*
X004810Y008150D03*
X004023Y008150D03*
D19*
X001717Y008150D02*
X001117Y008150D01*
X001117Y009150D02*
X001717Y009150D01*
X001717Y010150D02*
X001117Y010150D01*
X001117Y011150D02*
X001717Y011150D01*
X001717Y012150D02*
X001117Y012150D01*
X001117Y013150D02*
X001717Y013150D01*
X001717Y007150D02*
X001117Y007150D01*
X001117Y006150D02*
X001717Y006150D01*
X001717Y005150D02*
X001117Y005150D01*
X001117Y004150D02*
X001717Y004150D01*
X001717Y003150D02*
X001117Y003150D01*
X001117Y002150D02*
X001717Y002150D01*
X002917Y001450D02*
X002917Y000850D01*
X003917Y000850D02*
X003917Y001450D01*
X004917Y001450D02*
X004917Y000850D01*
X005917Y000850D02*
X005917Y001450D01*
X015117Y001650D02*
X015717Y001650D01*
X015717Y002650D02*
X015117Y002650D01*
X015117Y003650D02*
X015717Y003650D01*
X015717Y004650D02*
X015117Y004650D01*
X015117Y005650D02*
X015717Y005650D01*
X015717Y006650D02*
X015117Y006650D01*
X015117Y007650D02*
X015717Y007650D01*
X015717Y008650D02*
X015117Y008650D01*
X015117Y009650D02*
X015717Y009650D01*
X015717Y010650D02*
X015117Y010650D01*
X015117Y011650D02*
X015717Y011650D01*
X015717Y012650D02*
X015117Y012650D01*
D20*
X005251Y014650D03*
X004582Y014650D03*
D21*
X012417Y014315D03*
X012417Y014985D03*
D22*
X013728Y014650D03*
X015106Y014650D03*
D23*
X014417Y012650D03*
X014417Y011650D03*
X014417Y010650D03*
X014417Y009650D03*
X014417Y008650D03*
X013417Y008650D03*
X013417Y009650D03*
X013417Y010650D03*
X013417Y011650D03*
X013417Y012650D03*
X013417Y007650D03*
X014417Y007650D03*
X014417Y006650D03*
X014417Y005650D03*
X014417Y004650D03*
X014417Y003650D03*
X014417Y002650D03*
X014417Y001650D03*
X013417Y001650D03*
X013417Y002650D03*
X013417Y003650D03*
X013417Y004650D03*
X013417Y005650D03*
X013417Y006650D03*
D24*
X012957Y006750D02*
X012957Y009210D01*
X013377Y009630D01*
X013417Y009650D01*
X012918Y010099D02*
X012375Y010099D01*
X012375Y010169D02*
X012375Y009919D01*
X012279Y009688D01*
X012241Y009650D01*
X012279Y009612D01*
X012375Y009381D01*
X012375Y009131D01*
X012279Y008901D01*
X012241Y008863D01*
X012279Y008824D01*
X012375Y008594D01*
X012375Y008344D01*
X012279Y008113D01*
X012241Y008075D01*
X012279Y008037D01*
X012375Y007806D01*
X012375Y007557D01*
X012279Y007326D01*
X012241Y007288D01*
X012279Y007250D01*
X012375Y007019D01*
X012375Y006769D01*
X012370Y006757D01*
X012537Y006924D01*
X012537Y009294D01*
X012601Y009448D01*
X012747Y009594D01*
X012747Y009928D01*
X012969Y010150D01*
X012747Y010372D01*
X012747Y010928D01*
X012969Y011150D01*
X012747Y011372D01*
X012747Y011928D01*
X012969Y012150D01*
X012747Y012372D01*
X012747Y012928D01*
X012849Y013030D01*
X012359Y013030D01*
X012279Y012838D01*
X012241Y012800D01*
X012279Y012761D01*
X012375Y012531D01*
X012375Y012281D01*
X012279Y012050D01*
X012241Y012012D01*
X012279Y011974D01*
X012375Y011743D01*
X012375Y011494D01*
X012279Y011263D01*
X012241Y011225D01*
X012279Y011187D01*
X012375Y010956D01*
X012375Y010706D01*
X012279Y010476D01*
X012241Y010437D01*
X012279Y010399D01*
X012375Y010169D01*
X012363Y010197D02*
X012922Y010197D01*
X012824Y010296D02*
X012322Y010296D01*
X012281Y010394D02*
X012747Y010394D01*
X012747Y010493D02*
X012286Y010493D01*
X012327Y010591D02*
X012747Y010591D01*
X012747Y010690D02*
X012368Y010690D01*
X012375Y010788D02*
X012747Y010788D01*
X012747Y010887D02*
X012375Y010887D01*
X012363Y010985D02*
X012804Y010985D01*
X012903Y011084D02*
X012322Y011084D01*
X012281Y011182D02*
X012937Y011182D01*
X012839Y011281D02*
X012287Y011281D01*
X012327Y011379D02*
X012747Y011379D01*
X012747Y011478D02*
X012368Y011478D01*
X012375Y011576D02*
X012747Y011576D01*
X012747Y011675D02*
X012375Y011675D01*
X012363Y011773D02*
X012747Y011773D01*
X012747Y011872D02*
X012322Y011872D01*
X012281Y011970D02*
X012789Y011970D01*
X012888Y012069D02*
X012287Y012069D01*
X012328Y012167D02*
X012952Y012167D01*
X012854Y012266D02*
X012368Y012266D01*
X012375Y012364D02*
X012755Y012364D01*
X012747Y012463D02*
X012375Y012463D01*
X012362Y012561D02*
X012747Y012561D01*
X012747Y012660D02*
X012321Y012660D01*
X012281Y012758D02*
X012747Y012758D01*
X012747Y012857D02*
X012287Y012857D01*
X012328Y012955D02*
X012774Y012955D01*
X013417Y012650D02*
X013857Y012210D01*
X013857Y004470D01*
X013557Y004170D01*
X013317Y004170D01*
X010377Y001230D01*
X010792Y000840D02*
X015210Y000840D01*
X015191Y000794D02*
X015191Y000600D01*
X006538Y000600D01*
X006587Y000717D01*
X006587Y001583D01*
X006485Y001830D01*
X006454Y001860D01*
X006653Y001860D01*
X006793Y002000D01*
X007201Y001592D01*
X007319Y001474D01*
X007473Y001410D01*
X008287Y001410D01*
X008287Y001389D01*
X008656Y001020D01*
X009178Y001020D01*
X009417Y001259D01*
X009656Y001020D01*
X009807Y001020D01*
X009807Y000994D01*
X010141Y000660D01*
X010613Y000660D01*
X010947Y000994D01*
X010947Y001206D01*
X012930Y003189D01*
X012969Y003150D01*
X012747Y002928D01*
X012747Y002372D01*
X012969Y002150D01*
X012747Y001928D01*
X012747Y001372D01*
X013139Y000980D01*
X013694Y000980D01*
X013917Y001202D01*
X014139Y000980D01*
X014694Y000980D01*
X015087Y001372D01*
X015087Y001928D01*
X015037Y001978D01*
X015037Y002322D01*
X015087Y002372D01*
X015087Y002928D01*
X015037Y002978D01*
X015037Y003322D01*
X015087Y003372D01*
X015087Y003928D01*
X015037Y003978D01*
X015037Y004322D01*
X015087Y004372D01*
X015087Y004928D01*
X015037Y004978D01*
X015037Y005322D01*
X015087Y005372D01*
X015087Y005928D01*
X015037Y005978D01*
X015037Y006322D01*
X015087Y006372D01*
X015087Y006928D01*
X015037Y006978D01*
X015037Y007322D01*
X015087Y007372D01*
X015087Y007928D01*
X015037Y007978D01*
X015037Y008322D01*
X015087Y008372D01*
X015087Y008928D01*
X015037Y008978D01*
X015037Y009322D01*
X015087Y009372D01*
X015087Y009928D01*
X015037Y009978D01*
X015037Y010322D01*
X015087Y010372D01*
X015087Y010928D01*
X015037Y010978D01*
X015037Y011322D01*
X015087Y011372D01*
X015087Y011928D01*
X015037Y011978D01*
X015037Y012322D01*
X015087Y012372D01*
X015087Y012928D01*
X014694Y013320D01*
X014623Y013320D01*
X013959Y013985D01*
X014097Y013985D01*
X014233Y014041D01*
X014337Y014145D01*
X014393Y014281D01*
X014393Y015019D01*
X014337Y015155D01*
X014233Y015259D01*
X014097Y015315D01*
X013625Y015315D01*
X013615Y015326D01*
X013460Y015390D01*
X012947Y015390D01*
X012947Y015391D01*
X012843Y015495D01*
X012707Y015551D01*
X012127Y015551D01*
X011991Y015495D01*
X011886Y015391D01*
X011830Y015255D01*
X011830Y014714D01*
X011844Y014680D01*
X010811Y014680D01*
X010616Y014599D01*
X010467Y014450D01*
X010387Y014255D01*
X010387Y013565D01*
X010335Y013617D01*
X010199Y013673D01*
X008634Y013673D01*
X008498Y013617D01*
X008394Y013513D01*
X008338Y013377D01*
X008338Y012363D01*
X008349Y012336D01*
X007803Y011790D01*
X006027Y011790D01*
X006027Y011966D01*
X005926Y012067D01*
X006199Y012067D01*
X006335Y012123D01*
X006439Y012227D01*
X006495Y012363D01*
X006495Y013377D01*
X006439Y013513D01*
X006335Y013617D01*
X006199Y013673D01*
X005697Y013673D01*
X005697Y014159D01*
X005762Y014224D01*
X005818Y014360D01*
X005818Y014940D01*
X005762Y015076D01*
X005658Y015180D01*
X005522Y015237D01*
X004981Y015237D01*
X004917Y015210D01*
X004852Y015237D01*
X004312Y015237D01*
X004176Y015180D01*
X004071Y015076D01*
X004015Y014940D01*
X004015Y014360D01*
X004071Y014224D01*
X004078Y014217D01*
X004047Y014186D01*
X004047Y014010D01*
X002793Y014010D01*
X002639Y013946D01*
X002521Y013828D01*
X002281Y013588D01*
X002217Y013434D01*
X002217Y013256D01*
X002067Y013106D01*
X002067Y013080D01*
X002041Y013080D01*
X001781Y012820D01*
X000983Y012820D01*
X000867Y012772D01*
X000867Y014924D01*
X001061Y014924D01*
X001328Y015035D01*
X001532Y015239D01*
X001642Y015506D01*
X001642Y015700D01*
X015191Y015700D01*
X015191Y015506D01*
X015302Y015239D01*
X015506Y015035D01*
X015772Y014924D01*
X015967Y014924D01*
X015967Y001376D01*
X015772Y001376D01*
X015506Y001265D01*
X015302Y001061D01*
X015191Y000794D01*
X015191Y000741D02*
X010694Y000741D01*
X010891Y000938D02*
X015251Y000938D01*
X015291Y001037D02*
X014751Y001037D01*
X014849Y001135D02*
X015376Y001135D01*
X015474Y001234D02*
X014948Y001234D01*
X014937Y001170D02*
X015417Y001650D01*
X015417Y002650D01*
X015417Y003650D01*
X015417Y004650D01*
X015417Y005650D01*
X015417Y006650D01*
X015417Y007650D01*
X015417Y008650D01*
X015417Y009650D01*
X015417Y010650D01*
X015417Y011650D01*
X015417Y012650D01*
X015417Y012690D01*
X015117Y012990D01*
X015117Y014610D01*
X015106Y014650D01*
X015057Y014670D01*
X014397Y015330D01*
X004317Y015330D01*
X002157Y013170D01*
X001437Y013170D01*
X001417Y013150D01*
X001817Y012857D02*
X000867Y012857D01*
X000867Y012955D02*
X001916Y012955D01*
X002014Y013054D02*
X000867Y013054D01*
X000867Y013152D02*
X002113Y013152D01*
X002211Y013251D02*
X000867Y013251D01*
X000867Y013349D02*
X002217Y013349D01*
X002222Y013448D02*
X000867Y013448D01*
X000867Y013546D02*
X002263Y013546D01*
X002337Y013645D02*
X000867Y013645D01*
X000867Y013743D02*
X002436Y013743D01*
X002534Y013842D02*
X000867Y013842D01*
X000867Y013940D02*
X002633Y013940D01*
X002877Y013590D02*
X005277Y013590D01*
X005277Y014610D01*
X005251Y014650D01*
X005818Y014630D02*
X010689Y014630D01*
X010548Y014531D02*
X005818Y014531D01*
X005818Y014433D02*
X010460Y014433D01*
X010419Y014334D02*
X005807Y014334D01*
X005767Y014236D02*
X010387Y014236D01*
X010387Y014137D02*
X005697Y014137D01*
X005697Y014039D02*
X010387Y014039D01*
X010387Y013940D02*
X005697Y013940D01*
X005697Y013842D02*
X010387Y013842D01*
X010387Y013743D02*
X005697Y013743D01*
X005277Y013590D02*
X005277Y013050D01*
X005397Y012930D01*
X005417Y012870D01*
X005457Y012870D01*
X005457Y011730D01*
X005337Y011370D02*
X007977Y011370D01*
X009417Y012810D01*
X009417Y012870D01*
X009417Y012870D01*
X010437Y011850D01*
X010003Y011478D02*
X008678Y011478D01*
X008777Y011576D02*
X009905Y011576D01*
X009867Y011614D02*
X010201Y011280D01*
X010387Y011280D01*
X010387Y011240D01*
X010013Y011240D01*
X009877Y011184D01*
X009872Y011178D01*
X009866Y011184D01*
X009730Y011240D01*
X009103Y011240D01*
X008967Y011184D01*
X008863Y011080D01*
X008807Y010944D01*
X008807Y009916D01*
X008863Y009780D01*
X008963Y009680D01*
X008705Y009680D01*
X007947Y009680D01*
X007947Y010535D01*
X007866Y010730D01*
X007717Y010879D01*
X007546Y010950D01*
X008060Y010950D01*
X008215Y011014D01*
X009268Y012067D01*
X009626Y012067D01*
X009867Y011826D01*
X009867Y011614D01*
X009867Y011675D02*
X008875Y011675D01*
X008974Y011773D02*
X009867Y011773D01*
X009821Y011872D02*
X009072Y011872D01*
X009171Y011970D02*
X009723Y011970D01*
X010102Y011379D02*
X008580Y011379D01*
X008481Y011281D02*
X010200Y011281D01*
X009875Y011182D02*
X009868Y011182D01*
X008965Y011182D02*
X008383Y011182D01*
X008284Y011084D02*
X008867Y011084D01*
X008824Y010985D02*
X008145Y010985D01*
X007808Y010788D02*
X008807Y010788D01*
X008807Y010690D02*
X007883Y010690D01*
X007924Y010591D02*
X008807Y010591D01*
X008807Y010493D02*
X007947Y010493D01*
X007947Y010394D02*
X008807Y010394D01*
X008807Y010296D02*
X007947Y010296D01*
X007947Y010197D02*
X008807Y010197D01*
X008807Y010099D02*
X007947Y010099D01*
X007947Y010000D02*
X008807Y010000D01*
X008813Y009902D02*
X007947Y009902D01*
X007947Y009803D02*
X008854Y009803D01*
X008939Y009705D02*
X007947Y009705D01*
X008507Y010430D02*
X008457Y010470D01*
X007797Y010470D01*
X007257Y011010D01*
X005937Y011010D01*
X005937Y009930D01*
X007677Y008190D01*
X007977Y008190D01*
X008023Y008150D01*
X008037Y008130D01*
X009027Y007140D01*
X010017Y008130D01*
X010023Y008150D01*
X010184Y008129D02*
X009436Y008129D01*
X009436Y008227D02*
X010184Y008227D01*
X010184Y008326D02*
X009436Y008326D01*
X009436Y008424D02*
X010184Y008424D01*
X010184Y008523D02*
X009436Y008523D01*
X009436Y008539D02*
X009403Y008620D01*
X010218Y008620D01*
X010184Y008539D01*
X010184Y007761D01*
X010227Y007660D01*
X010227Y007294D01*
X010293Y007227D01*
X010241Y007175D01*
X010184Y007039D01*
X010184Y006450D01*
X009873Y006450D01*
X009719Y006386D01*
X009601Y006268D01*
X009393Y006060D01*
X008667Y006060D01*
X008667Y005962D02*
X009082Y005962D01*
X009181Y006060D02*
X008847Y005726D01*
X008847Y005550D01*
X008691Y005550D01*
X008557Y005684D01*
X008667Y005794D01*
X008667Y006266D01*
X008649Y006284D01*
X008649Y007039D01*
X008593Y007175D01*
X008488Y007279D01*
X008352Y007335D01*
X007926Y007335D01*
X007795Y007466D01*
X007640Y007530D01*
X007284Y007530D01*
X007380Y007625D01*
X007436Y007761D01*
X007436Y008539D01*
X007403Y008620D01*
X008218Y008620D01*
X008184Y008539D01*
X008184Y007761D01*
X008241Y007625D01*
X008345Y007521D01*
X008481Y007465D01*
X009140Y007465D01*
X009276Y007521D01*
X009380Y007625D01*
X009436Y007761D01*
X009436Y008539D01*
X009436Y008030D02*
X010184Y008030D01*
X010184Y007932D02*
X009436Y007932D01*
X009436Y007833D02*
X010184Y007833D01*
X010196Y007735D02*
X009425Y007735D01*
X009384Y007636D02*
X010227Y007636D01*
X010227Y007538D02*
X009292Y007538D01*
X009027Y007140D02*
X009477Y006690D01*
X008817Y006690D01*
X008810Y006650D01*
X008649Y006651D02*
X010184Y006651D01*
X010184Y006553D02*
X008649Y006553D01*
X008649Y006454D02*
X010184Y006454D01*
X010023Y006650D02*
X010017Y006690D01*
X009477Y006690D01*
X009688Y006356D02*
X008649Y006356D01*
X008667Y006257D02*
X009590Y006257D01*
X009491Y006159D02*
X008667Y006159D01*
X008667Y005863D02*
X008984Y005863D01*
X008885Y005765D02*
X008637Y005765D01*
X008575Y005666D02*
X008847Y005666D01*
X008847Y005568D02*
X008673Y005568D01*
X008517Y005130D02*
X010917Y005130D01*
X011097Y005310D01*
X010797Y005490D02*
X010977Y005670D01*
X011877Y005670D01*
X012957Y006750D01*
X012537Y006947D02*
X012375Y006947D01*
X012364Y007045D02*
X012537Y007045D01*
X012537Y007144D02*
X012323Y007144D01*
X012282Y007242D02*
X012537Y007242D01*
X012537Y007341D02*
X012285Y007341D01*
X012326Y007439D02*
X012537Y007439D01*
X012537Y007538D02*
X012367Y007538D01*
X012375Y007636D02*
X012537Y007636D01*
X012537Y007735D02*
X012375Y007735D01*
X012364Y007833D02*
X012537Y007833D01*
X012537Y007932D02*
X012323Y007932D01*
X012282Y008030D02*
X012537Y008030D01*
X012537Y008129D02*
X012286Y008129D01*
X012326Y008227D02*
X012537Y008227D01*
X012537Y008326D02*
X012367Y008326D01*
X012375Y008424D02*
X012537Y008424D01*
X012537Y008523D02*
X012375Y008523D01*
X012364Y008621D02*
X012537Y008621D01*
X012537Y008720D02*
X012323Y008720D01*
X012282Y008818D02*
X012537Y008818D01*
X012537Y008917D02*
X012286Y008917D01*
X012327Y009015D02*
X012537Y009015D01*
X012537Y009114D02*
X012367Y009114D01*
X012375Y009212D02*
X012537Y009212D01*
X012544Y009311D02*
X012375Y009311D01*
X012363Y009409D02*
X012584Y009409D01*
X012660Y009508D02*
X012322Y009508D01*
X012282Y009606D02*
X012747Y009606D01*
X012747Y009705D02*
X012286Y009705D01*
X012327Y009803D02*
X012747Y009803D01*
X012747Y009902D02*
X012368Y009902D01*
X012375Y010000D02*
X012819Y010000D01*
X015037Y010000D02*
X015967Y010000D01*
X015967Y009902D02*
X015087Y009902D01*
X015087Y009803D02*
X015967Y009803D01*
X015967Y009705D02*
X015087Y009705D01*
X015087Y009606D02*
X015967Y009606D01*
X015967Y009508D02*
X015087Y009508D01*
X015087Y009409D02*
X015967Y009409D01*
X015967Y009311D02*
X015037Y009311D01*
X015037Y009212D02*
X015967Y009212D01*
X015967Y009114D02*
X015037Y009114D01*
X015037Y009015D02*
X015967Y009015D01*
X015967Y008917D02*
X015087Y008917D01*
X015087Y008818D02*
X015967Y008818D01*
X015967Y008720D02*
X015087Y008720D01*
X015087Y008621D02*
X015967Y008621D01*
X015967Y008523D02*
X015087Y008523D01*
X015087Y008424D02*
X015967Y008424D01*
X015967Y008326D02*
X015040Y008326D01*
X015037Y008227D02*
X015967Y008227D01*
X015967Y008129D02*
X015037Y008129D01*
X015037Y008030D02*
X015967Y008030D01*
X015967Y007932D02*
X015083Y007932D01*
X015087Y007833D02*
X015967Y007833D01*
X015967Y007735D02*
X015087Y007735D01*
X015087Y007636D02*
X015967Y007636D01*
X015967Y007538D02*
X015087Y007538D01*
X015087Y007439D02*
X015967Y007439D01*
X015967Y007341D02*
X015055Y007341D01*
X015037Y007242D02*
X015967Y007242D01*
X015967Y007144D02*
X015037Y007144D01*
X015037Y007045D02*
X015967Y007045D01*
X015967Y006947D02*
X015068Y006947D01*
X015087Y006848D02*
X015967Y006848D01*
X015967Y006750D02*
X015087Y006750D01*
X015087Y006651D02*
X015967Y006651D01*
X015967Y006553D02*
X015087Y006553D01*
X015087Y006454D02*
X015967Y006454D01*
X015967Y006356D02*
X015070Y006356D01*
X015037Y006257D02*
X015967Y006257D01*
X015967Y006159D02*
X015037Y006159D01*
X015037Y006060D02*
X015967Y006060D01*
X015967Y005962D02*
X015053Y005962D01*
X015087Y005863D02*
X015967Y005863D01*
X015967Y005765D02*
X015087Y005765D01*
X015087Y005666D02*
X015967Y005666D01*
X015967Y005568D02*
X015087Y005568D01*
X015087Y005469D02*
X015967Y005469D01*
X015967Y005371D02*
X015085Y005371D01*
X015037Y005272D02*
X015967Y005272D01*
X015967Y005174D02*
X015037Y005174D01*
X015037Y005075D02*
X015967Y005075D01*
X015967Y004977D02*
X015038Y004977D01*
X015087Y004878D02*
X015967Y004878D01*
X015967Y004780D02*
X015087Y004780D01*
X015087Y004681D02*
X015967Y004681D01*
X015967Y004583D02*
X015087Y004583D01*
X015087Y004484D02*
X015967Y004484D01*
X015967Y004386D02*
X015087Y004386D01*
X015037Y004287D02*
X015967Y004287D01*
X015967Y004189D02*
X015037Y004189D01*
X015037Y004090D02*
X015967Y004090D01*
X015967Y003992D02*
X015037Y003992D01*
X015087Y003893D02*
X015967Y003893D01*
X015967Y003795D02*
X015087Y003795D01*
X015087Y003696D02*
X015967Y003696D01*
X015967Y003598D02*
X015087Y003598D01*
X015087Y003499D02*
X015967Y003499D01*
X015967Y003401D02*
X015087Y003401D01*
X015037Y003302D02*
X015967Y003302D01*
X015967Y003204D02*
X015037Y003204D01*
X015037Y003105D02*
X015967Y003105D01*
X015967Y003007D02*
X015037Y003007D01*
X015087Y002908D02*
X015967Y002908D01*
X015967Y002810D02*
X015087Y002810D01*
X015087Y002711D02*
X015967Y002711D01*
X015967Y002613D02*
X015087Y002613D01*
X015087Y002514D02*
X015967Y002514D01*
X015967Y002416D02*
X015087Y002416D01*
X015037Y002317D02*
X015967Y002317D01*
X015967Y002219D02*
X015037Y002219D01*
X015037Y002120D02*
X015967Y002120D01*
X015967Y002022D02*
X015037Y002022D01*
X015087Y001923D02*
X015967Y001923D01*
X015967Y001825D02*
X015087Y001825D01*
X015087Y001726D02*
X015967Y001726D01*
X015967Y001628D02*
X015087Y001628D01*
X015087Y001529D02*
X015967Y001529D01*
X015967Y001431D02*
X015087Y001431D01*
X015046Y001332D02*
X015667Y001332D01*
X014937Y001170D02*
X013257Y001170D01*
X012777Y001650D01*
X011917Y001650D01*
X011877Y001650D01*
X011097Y000870D01*
X009117Y000870D01*
X008337Y001650D01*
X006917Y001650D01*
X007067Y001726D02*
X006528Y001726D01*
X006568Y001628D02*
X007165Y001628D01*
X007264Y001529D02*
X006587Y001529D01*
X006587Y001431D02*
X007424Y001431D01*
X007557Y001830D02*
X008697Y001830D01*
X008877Y001650D01*
X008917Y001650D01*
X008937Y001650D01*
X010917Y003630D01*
X011337Y003630D01*
X011367Y003650D01*
X011179Y003046D02*
X011010Y003116D01*
X011003Y003123D01*
X010837Y002956D01*
X010943Y002850D01*
X010983Y002850D01*
X011179Y003046D01*
X011139Y003007D02*
X010887Y003007D01*
X010885Y002908D02*
X011041Y002908D01*
X011036Y003105D02*
X010986Y003105D01*
X010389Y003696D02*
X010097Y003696D01*
X010097Y003775D02*
X010097Y003525D01*
X010011Y003319D01*
X010503Y003810D01*
X010082Y003810D01*
X010097Y003775D01*
X010089Y003795D02*
X010487Y003795D01*
X010290Y003598D02*
X010097Y003598D01*
X010086Y003499D02*
X010192Y003499D01*
X010093Y003401D02*
X010045Y003401D01*
X009798Y003105D02*
X008973Y002280D01*
X008661Y002280D01*
X009401Y003020D01*
X009592Y003020D01*
X009798Y003105D01*
X009797Y003105D01*
X009699Y003007D02*
X009387Y003007D01*
X009289Y002908D02*
X009601Y002908D01*
X009502Y002810D02*
X009190Y002810D01*
X009092Y002711D02*
X009404Y002711D01*
X009305Y002613D02*
X008993Y002613D01*
X008895Y002514D02*
X009207Y002514D01*
X009108Y002416D02*
X008796Y002416D01*
X008698Y002317D02*
X009010Y002317D01*
X008217Y002430D02*
X009417Y003630D01*
X009467Y003650D01*
X008837Y003644D02*
X008487Y003294D01*
X008487Y003386D01*
X008457Y003416D01*
X008457Y003774D01*
X008442Y003810D01*
X008851Y003810D01*
X008837Y003775D01*
X008837Y003644D01*
X008837Y003696D02*
X008457Y003696D01*
X008457Y003598D02*
X008790Y003598D01*
X008692Y003499D02*
X008457Y003499D01*
X008472Y003401D02*
X008593Y003401D01*
X008495Y003302D02*
X008487Y003302D01*
X008037Y003270D02*
X007917Y003150D01*
X008037Y003270D02*
X008037Y003690D01*
X007917Y003810D01*
X007617Y003810D01*
X007609Y003869D01*
X007608Y004183D02*
X007617Y004230D01*
X012357Y004230D01*
X012837Y004710D01*
X012417Y004770D02*
X013257Y005610D01*
X013377Y005610D01*
X013417Y005650D01*
X012969Y006150D02*
X012747Y005928D01*
X012747Y005694D01*
X012463Y005410D01*
X012337Y005536D01*
X012960Y006159D01*
X012969Y006150D01*
X012961Y006159D02*
X012959Y006159D01*
X012879Y006060D02*
X012861Y006060D01*
X012781Y005962D02*
X012762Y005962D01*
X012747Y005863D02*
X012664Y005863D01*
X012747Y005765D02*
X012565Y005765D01*
X012467Y005666D02*
X012719Y005666D01*
X012620Y005568D02*
X012368Y005568D01*
X012404Y005469D02*
X012522Y005469D01*
X011937Y005130D02*
X011757Y004950D01*
X008397Y004950D01*
X007917Y005430D01*
X007617Y005430D01*
X007604Y005443D01*
X007617Y005730D02*
X007603Y005758D01*
X007617Y005730D02*
X007917Y005730D01*
X008517Y005130D01*
X007605Y005128D02*
X007557Y005130D01*
X007317Y005130D01*
X007017Y005430D01*
X006777Y005670D02*
X006717Y005670D01*
X006717Y005850D01*
X006657Y005910D01*
X006297Y005550D01*
X005397Y005550D01*
X005277Y005670D01*
X005157Y005670D01*
X005037Y005550D01*
X005097Y005490D01*
X005157Y005490D01*
X005697Y006030D01*
X005697Y006330D01*
X005753Y006339D01*
X005438Y006338D02*
X005397Y006390D01*
X005397Y006630D01*
X004917Y007110D01*
X004977Y006750D02*
X004677Y006750D01*
X002457Y004530D01*
X002817Y004590D02*
X002817Y004410D01*
X002577Y004170D01*
X001437Y004170D01*
X001417Y004150D01*
X002164Y003650D02*
X002264Y003750D01*
X002412Y003750D01*
X002397Y003714D01*
X002397Y002904D01*
X002357Y002944D01*
X002387Y003017D01*
X002387Y003283D01*
X002285Y003530D01*
X002164Y003650D01*
X002210Y003696D02*
X002397Y003696D01*
X002397Y003598D02*
X002217Y003598D01*
X002297Y003499D02*
X002397Y003499D01*
X002397Y003401D02*
X002338Y003401D01*
X002379Y003302D02*
X002397Y003302D01*
X002387Y003204D02*
X002397Y003204D01*
X002387Y003105D02*
X002397Y003105D01*
X002397Y003007D02*
X002382Y003007D01*
X002393Y002908D02*
X002397Y002908D01*
X002457Y002250D02*
X001557Y003150D01*
X001417Y003150D01*
X002817Y003630D02*
X002817Y001230D01*
X002877Y001170D01*
X002917Y001150D01*
X002247Y001135D02*
X001458Y001135D01*
X001532Y001061D02*
X001328Y001265D01*
X001061Y001376D01*
X000867Y001376D01*
X000867Y001528D01*
X000983Y001480D01*
X001850Y001480D01*
X002096Y001582D01*
X002207Y001693D01*
X002221Y001680D01*
X002287Y001680D01*
X002247Y001583D01*
X002247Y000717D01*
X002295Y000600D01*
X001642Y000600D01*
X001642Y000794D01*
X001532Y001061D01*
X001542Y001037D02*
X002247Y001037D01*
X002247Y000938D02*
X001583Y000938D01*
X001624Y000840D02*
X002247Y000840D01*
X002247Y000741D02*
X001642Y000741D01*
X001642Y000643D02*
X002277Y000643D01*
X002247Y001234D02*
X001359Y001234D01*
X001166Y001332D02*
X002247Y001332D01*
X002247Y001431D02*
X000867Y001431D01*
X001968Y001529D02*
X002247Y001529D01*
X002265Y001628D02*
X002142Y001628D01*
X003237Y002043D02*
X003237Y003364D01*
X003301Y003300D01*
X003635Y003300D01*
X003668Y003220D01*
X003772Y003116D01*
X003777Y003115D01*
X003777Y002838D01*
X003717Y002694D01*
X003717Y002286D01*
X003781Y002132D01*
X003793Y002120D01*
X003783Y002120D01*
X003537Y002018D01*
X003417Y001898D01*
X003296Y002018D01*
X003237Y002043D01*
X003288Y002022D02*
X003546Y002022D01*
X003442Y001923D02*
X003391Y001923D01*
X003237Y002120D02*
X003793Y002120D01*
X003745Y002219D02*
X003237Y002219D01*
X003237Y002317D02*
X003717Y002317D01*
X003717Y002416D02*
X003237Y002416D01*
X003237Y002514D02*
X003717Y002514D01*
X003717Y002613D02*
X003237Y002613D01*
X003237Y002711D02*
X003724Y002711D01*
X003765Y002810D02*
X003237Y002810D01*
X003237Y002908D02*
X003777Y002908D01*
X003777Y003007D02*
X003237Y003007D01*
X003237Y003105D02*
X003777Y003105D01*
X003685Y003204D02*
X003237Y003204D01*
X003237Y003302D02*
X003299Y003302D01*
X003177Y003450D02*
X003177Y002910D01*
X004917Y001170D01*
X004917Y001150D01*
X005170Y001431D02*
X004587Y001431D01*
X004587Y001470D02*
X005131Y001470D01*
X005247Y001354D01*
X005247Y000717D01*
X005295Y000600D01*
X004538Y000600D01*
X004587Y000717D01*
X004587Y001470D01*
X004587Y001332D02*
X005247Y001332D01*
X005247Y001234D02*
X004587Y001234D01*
X004587Y001135D02*
X005247Y001135D01*
X005247Y001037D02*
X004587Y001037D01*
X004587Y000938D02*
X005247Y000938D01*
X005247Y000840D02*
X004587Y000840D01*
X004587Y000741D02*
X005247Y000741D01*
X005277Y000643D02*
X004556Y000643D01*
X005877Y001170D02*
X005917Y001150D01*
X005877Y001170D02*
X005877Y002010D01*
X005817Y002070D01*
X005817Y002130D01*
X006267Y002580D01*
X006417Y002430D01*
X006267Y002580D02*
X006357Y002670D01*
X006357Y002910D01*
X006395Y002962D01*
X006117Y002970D02*
X006080Y002961D01*
X006117Y002970D02*
X006117Y003330D01*
X006357Y003570D01*
X006357Y003690D01*
X005757Y003690D01*
X005577Y003870D01*
X005247Y003540D01*
X005217Y003510D01*
X005157Y003510D01*
X005097Y003570D01*
X005097Y003630D01*
X005157Y003690D01*
X005157Y003870D01*
X005097Y003870D01*
X004977Y003750D01*
X004677Y003750D01*
X004617Y003690D01*
X004617Y003570D01*
X004677Y003510D01*
X005097Y003510D01*
X005217Y003630D01*
X005217Y003870D01*
X005157Y003930D01*
X005097Y003930D01*
X004977Y003810D01*
X005247Y003540D01*
X005397Y003390D01*
X005397Y002970D01*
X005450Y002958D01*
X005157Y002910D02*
X005157Y002610D01*
X005397Y002370D01*
X005817Y002130D02*
X005817Y002910D01*
X005765Y002959D01*
X005579Y003579D02*
X005448Y003524D01*
X005317Y003578D01*
X005070Y003577D01*
X005367Y003874D01*
X005367Y004266D01*
X005721Y004620D01*
X005933Y004620D01*
X006267Y004954D01*
X006267Y005426D01*
X005973Y005720D01*
X006254Y005721D01*
X006503Y005722D01*
X006447Y005666D01*
X006027Y005666D01*
X006125Y005568D02*
X006447Y005568D01*
X006447Y005666D02*
X006447Y005194D01*
X006781Y004860D01*
X006986Y004860D01*
X006987Y004628D01*
X006988Y004313D01*
X006989Y004050D01*
X006989Y004050D01*
X006990Y003683D01*
X006990Y003584D01*
X006891Y003583D01*
X006524Y003582D01*
X006209Y003581D01*
X006078Y003526D01*
X005947Y003580D01*
X005579Y003579D01*
X005287Y003795D02*
X006990Y003795D01*
X007017Y003870D02*
X006897Y003750D01*
X006717Y003750D01*
X006717Y003930D01*
X006687Y003960D01*
X006657Y003990D01*
X006657Y004290D01*
X006777Y004410D01*
X007077Y004410D01*
X007137Y004350D01*
X007137Y004290D01*
X007077Y004230D01*
X006897Y004230D01*
X006717Y004410D01*
X006717Y004590D01*
X006777Y004650D01*
X006957Y004650D01*
X006957Y005010D01*
X006717Y005010D01*
X006657Y005070D01*
X006657Y005250D01*
X006597Y005310D01*
X006657Y005370D01*
X006657Y005850D01*
X006717Y005910D01*
X006837Y005910D01*
X006897Y005850D01*
X006897Y005790D01*
X006777Y005670D01*
X006447Y005469D02*
X006224Y005469D01*
X006267Y005371D02*
X006447Y005371D01*
X006447Y005272D02*
X006267Y005272D01*
X006267Y005174D02*
X006467Y005174D01*
X006566Y005075D02*
X006267Y005075D01*
X006267Y004977D02*
X006664Y004977D01*
X006763Y004878D02*
X006191Y004878D01*
X006092Y004780D02*
X006986Y004780D01*
X006987Y004681D02*
X005994Y004681D01*
X005683Y004583D02*
X006987Y004583D01*
X006987Y004628D02*
X006987Y004628D01*
X006987Y004484D02*
X005585Y004484D01*
X005486Y004386D02*
X006988Y004386D01*
X006988Y004313D02*
X006988Y004313D01*
X006988Y004287D02*
X005388Y004287D01*
X005367Y004189D02*
X006988Y004189D01*
X006989Y004090D02*
X005367Y004090D01*
X005367Y003992D02*
X006989Y003992D01*
X007077Y003990D02*
X006717Y003990D01*
X006687Y003960D01*
X006657Y003930D01*
X006657Y003690D01*
X006957Y003690D01*
X007137Y003870D01*
X007077Y003930D01*
X006717Y003930D01*
X006989Y003893D02*
X005367Y003893D01*
X005189Y003696D02*
X006990Y003696D01*
X006990Y003683D02*
X006990Y003683D01*
X006957Y003630D02*
X007197Y003870D01*
X007077Y003990D01*
X006957Y003630D02*
X006477Y003630D01*
X006417Y003690D01*
X006357Y003690D01*
X006524Y003582D02*
X006524Y003582D01*
X006891Y003583D02*
X006891Y003583D01*
X006990Y003598D02*
X005090Y003598D01*
X004797Y004110D02*
X004737Y004170D01*
X004257Y004170D01*
X004228Y004172D01*
X004257Y004470D02*
X004227Y004487D01*
X004257Y004470D02*
X004977Y004470D01*
X005697Y005190D01*
X005367Y005666D02*
X005367Y005718D01*
X005419Y005718D01*
X005367Y005666D01*
X005722Y005760D02*
X005755Y005774D01*
X005789Y005760D01*
X005722Y005760D01*
X005733Y005765D02*
X005778Y005765D01*
X006383Y006342D02*
X006357Y006390D01*
X006357Y006630D01*
X005517Y007470D01*
X003477Y007470D01*
X003297Y007290D01*
X002577Y007290D01*
X001437Y006150D01*
X001417Y006150D01*
X002164Y005650D02*
X002204Y005610D01*
X002583Y005610D01*
X003087Y006114D01*
X003087Y006267D01*
X002961Y006267D01*
X002731Y006362D01*
X002554Y006539D01*
X002515Y006634D01*
X002321Y006441D01*
X002387Y006283D01*
X002387Y006017D01*
X002285Y005770D01*
X002164Y005650D01*
X002180Y005666D02*
X002639Y005666D01*
X002737Y005765D02*
X002279Y005765D01*
X002323Y005863D02*
X002836Y005863D01*
X002934Y005962D02*
X002364Y005962D01*
X002387Y006060D02*
X003033Y006060D01*
X003057Y006090D02*
X003086Y006107D01*
X003057Y006090D02*
X002517Y005550D01*
X002757Y005190D02*
X001437Y005190D01*
X001417Y005150D01*
X002387Y006159D02*
X003087Y006159D01*
X003087Y006257D02*
X002387Y006257D01*
X002357Y006356D02*
X002747Y006356D01*
X002639Y006454D02*
X002335Y006454D01*
X002433Y006553D02*
X002548Y006553D01*
X003657Y006210D02*
X003657Y006090D01*
X002757Y005190D01*
X002817Y004590D02*
X003957Y005730D01*
X004197Y005730D01*
X004223Y005746D01*
X004224Y005431D02*
X004257Y005430D01*
X004677Y005430D01*
X004797Y005310D01*
X004557Y005070D02*
X004797Y004830D01*
X004557Y005070D02*
X004257Y005070D01*
X004225Y005117D01*
X004226Y004802D02*
X004197Y004770D01*
X003957Y004770D01*
X002817Y003630D01*
X003537Y003870D02*
X004197Y003870D01*
X004229Y003857D01*
X004231Y003542D02*
X004197Y003510D01*
X004197Y002670D01*
X004137Y002610D01*
X004137Y002370D01*
X004617Y001890D01*
X005517Y001890D01*
X006487Y001825D02*
X006968Y001825D01*
X006870Y001923D02*
X006716Y001923D01*
X006587Y001332D02*
X008344Y001332D01*
X008442Y001234D02*
X006587Y001234D01*
X006587Y001135D02*
X008541Y001135D01*
X008639Y001037D02*
X006587Y001037D01*
X006587Y000938D02*
X009863Y000938D01*
X009961Y000840D02*
X006587Y000840D01*
X006587Y000741D02*
X010060Y000741D01*
X009639Y001037D02*
X009194Y001037D01*
X009293Y001135D02*
X009541Y001135D01*
X009442Y001234D02*
X009391Y001234D01*
X010557Y002430D02*
X011157Y002430D01*
X013377Y004650D01*
X013417Y004650D01*
X012417Y004770D02*
X007617Y004770D01*
X007606Y004813D01*
X008448Y003795D02*
X008845Y003795D01*
X007611Y003554D02*
X007557Y003510D01*
X007557Y002790D01*
X007437Y002430D02*
X008217Y002430D01*
X007437Y002430D02*
X007077Y002790D01*
X007077Y002910D01*
X007025Y002964D01*
X006717Y002910D02*
X006717Y002670D01*
X007557Y001830D01*
X006717Y002910D02*
X006710Y002963D01*
X005157Y002910D02*
X005135Y002957D01*
X004820Y002956D02*
X004797Y002910D01*
X004797Y002790D01*
X004497Y002490D01*
X006556Y000643D02*
X015191Y000643D01*
X014083Y001037D02*
X013751Y001037D01*
X013849Y001135D02*
X013984Y001135D01*
X013083Y001037D02*
X010947Y001037D01*
X010947Y001135D02*
X012984Y001135D01*
X012886Y001234D02*
X010974Y001234D01*
X011073Y001332D02*
X012787Y001332D01*
X012747Y001431D02*
X011171Y001431D01*
X011270Y001529D02*
X012747Y001529D01*
X012747Y001628D02*
X011368Y001628D01*
X011467Y001726D02*
X012747Y001726D01*
X012747Y001825D02*
X011565Y001825D01*
X011664Y001923D02*
X012747Y001923D01*
X012841Y002022D02*
X011762Y002022D01*
X011861Y002120D02*
X012939Y002120D01*
X012901Y002219D02*
X011959Y002219D01*
X012058Y002317D02*
X012802Y002317D01*
X012747Y002416D02*
X012156Y002416D01*
X012255Y002514D02*
X012747Y002514D01*
X012747Y002613D02*
X012353Y002613D01*
X012452Y002711D02*
X012747Y002711D01*
X012747Y002810D02*
X012550Y002810D01*
X012649Y002908D02*
X012747Y002908D01*
X012747Y003007D02*
X012826Y003007D01*
X012846Y003105D02*
X012924Y003105D01*
X010797Y005490D02*
X009897Y005490D01*
X009417Y005490D02*
X009957Y006030D01*
X010617Y006030D01*
X010810Y006650D02*
X010797Y006690D01*
X010797Y007530D01*
X010227Y007439D02*
X007822Y007439D01*
X007920Y007341D02*
X010227Y007341D01*
X010279Y007242D02*
X008525Y007242D01*
X008605Y007144D02*
X010228Y007144D01*
X010187Y007045D02*
X008646Y007045D01*
X008649Y006947D02*
X010184Y006947D01*
X010184Y006848D02*
X008649Y006848D01*
X008649Y006750D02*
X010184Y006750D01*
X009393Y006060D02*
X009181Y006060D01*
X008097Y006030D02*
X008097Y006570D01*
X008037Y006630D01*
X008023Y006650D01*
X007977Y006690D01*
X007557Y007110D01*
X007197Y007110D01*
X006747Y006660D01*
X005607Y007800D01*
X005637Y007830D01*
X005637Y009690D01*
X005217Y009304D02*
X005217Y008803D01*
X005140Y008835D01*
X004481Y008835D01*
X004345Y008779D01*
X004241Y008675D01*
X004184Y008539D01*
X004184Y007890D01*
X003679Y007890D01*
X003618Y008037D01*
X003580Y008075D01*
X003618Y008113D01*
X003713Y008344D01*
X003713Y008594D01*
X003618Y008824D01*
X003580Y008863D01*
X003618Y008901D01*
X003713Y009131D01*
X003713Y009381D01*
X003618Y009612D01*
X003580Y009650D01*
X003618Y009688D01*
X003713Y009919D01*
X003713Y010140D01*
X003893Y010140D01*
X004227Y010474D01*
X004227Y010946D01*
X004077Y011096D01*
X004077Y011934D01*
X004013Y012088D01*
X003713Y012387D01*
X003713Y012399D01*
X004948Y011165D01*
X004863Y011080D01*
X004807Y010944D01*
X004807Y009916D01*
X004863Y009780D01*
X004967Y009676D01*
X005067Y009635D01*
X005067Y009454D01*
X005217Y009304D01*
X005210Y009311D02*
X003713Y009311D01*
X003702Y009409D02*
X005112Y009409D01*
X005067Y009508D02*
X003661Y009508D01*
X003620Y009606D02*
X005067Y009606D01*
X004939Y009705D02*
X003625Y009705D01*
X003665Y009803D02*
X004854Y009803D01*
X004813Y009902D02*
X003706Y009902D01*
X003713Y010000D02*
X004807Y010000D01*
X004807Y010099D02*
X003713Y010099D01*
X003950Y010197D02*
X004807Y010197D01*
X004807Y010296D02*
X004048Y010296D01*
X004147Y010394D02*
X004807Y010394D01*
X004807Y010493D02*
X004227Y010493D01*
X004227Y010591D02*
X004807Y010591D01*
X004807Y010690D02*
X004227Y010690D01*
X004227Y010788D02*
X004807Y010788D01*
X004807Y010887D02*
X004227Y010887D01*
X004188Y010985D02*
X004824Y010985D01*
X004867Y011084D02*
X004089Y011084D01*
X004077Y011182D02*
X004931Y011182D01*
X005037Y011190D02*
X005037Y011010D01*
X005067Y010980D01*
X005097Y011010D01*
X005937Y011010D01*
X005337Y011370D02*
X003537Y013170D01*
X003117Y013170D01*
X003086Y013193D01*
X002877Y013590D02*
X002637Y013350D01*
X002637Y012870D01*
X002277Y012510D02*
X002277Y009030D01*
X001437Y008190D01*
X001417Y008150D01*
X002517Y007710D02*
X002517Y011070D01*
X003057Y011610D01*
X003086Y011619D01*
X003657Y011850D02*
X003117Y012390D01*
X003086Y012406D01*
X003737Y012364D02*
X003749Y012364D01*
X003835Y012266D02*
X003847Y012266D01*
X003934Y012167D02*
X003946Y012167D01*
X004021Y012069D02*
X004044Y012069D01*
X004062Y011970D02*
X004143Y011970D01*
X004077Y011872D02*
X004241Y011872D01*
X004340Y011773D02*
X004077Y011773D01*
X004077Y011675D02*
X004438Y011675D01*
X004537Y011576D02*
X004077Y011576D01*
X004077Y011478D02*
X004635Y011478D01*
X004734Y011379D02*
X004077Y011379D01*
X004077Y011281D02*
X004832Y011281D01*
X005067Y010980D02*
X004557Y010470D01*
X004507Y010430D01*
X004497Y010410D01*
X004077Y009990D01*
X004077Y008190D01*
X004023Y008150D01*
X004184Y008129D02*
X003624Y008129D01*
X003621Y008030D02*
X004184Y008030D01*
X004184Y007932D02*
X003662Y007932D01*
X003665Y008227D02*
X004184Y008227D01*
X004184Y008326D02*
X003706Y008326D01*
X003713Y008424D02*
X004184Y008424D01*
X004184Y008523D02*
X003713Y008523D01*
X003702Y008621D02*
X004219Y008621D01*
X004286Y008720D02*
X003661Y008720D01*
X003621Y008818D02*
X004440Y008818D01*
X005181Y008818D02*
X005217Y008818D01*
X005217Y008917D02*
X003624Y008917D01*
X003665Y009015D02*
X005217Y009015D01*
X005217Y009114D02*
X003706Y009114D01*
X003713Y009212D02*
X005217Y009212D01*
X005997Y008850D02*
X005997Y008190D01*
X006023Y008150D01*
X005607Y007800D02*
X005277Y008130D01*
X004857Y008130D01*
X004810Y008150D01*
X004347Y007050D02*
X003701Y007050D01*
X003713Y007019D01*
X003713Y006780D01*
X003893Y006780D01*
X004003Y006670D01*
X004347Y007014D01*
X004347Y007050D01*
X004347Y007045D02*
X003703Y007045D01*
X003713Y006947D02*
X004279Y006947D01*
X004181Y006848D02*
X003713Y006848D01*
X003923Y006750D02*
X004082Y006750D01*
X004797Y006330D02*
X004808Y006336D01*
X004797Y006330D02*
X004797Y005790D01*
X005123Y006337D02*
X005097Y006390D01*
X005097Y006630D01*
X004977Y006750D01*
X006536Y007465D02*
X006958Y007465D01*
X006841Y007348D01*
X006747Y007254D01*
X006536Y007465D01*
X006562Y007439D02*
X006932Y007439D01*
X006833Y007341D02*
X006660Y007341D01*
X007292Y007538D02*
X008329Y007538D01*
X008236Y007636D02*
X007384Y007636D01*
X007425Y007735D02*
X008196Y007735D01*
X008184Y007833D02*
X007436Y007833D01*
X007436Y007932D02*
X008184Y007932D01*
X008184Y008030D02*
X007436Y008030D01*
X007436Y008129D02*
X008184Y008129D01*
X008184Y008227D02*
X007436Y008227D01*
X007436Y008326D02*
X008184Y008326D01*
X008184Y008424D02*
X007436Y008424D01*
X007436Y008523D02*
X008184Y008523D01*
X006810Y008150D02*
X006777Y008190D01*
X006477Y008490D01*
X006477Y008790D01*
X006887Y009186D02*
X006713Y009360D01*
X006293Y009360D01*
X006233Y009420D01*
X006173Y009420D01*
X006207Y009454D01*
X006207Y009620D01*
X006640Y009620D01*
X006776Y009676D01*
X006880Y009780D01*
X006887Y009796D01*
X006887Y009186D01*
X006887Y009212D02*
X006861Y009212D01*
X006887Y009311D02*
X006762Y009311D01*
X006887Y009409D02*
X006244Y009409D01*
X006207Y009508D02*
X006887Y009508D01*
X006887Y009606D02*
X006207Y009606D01*
X006804Y009705D02*
X006887Y009705D01*
X007699Y010887D02*
X008807Y010887D01*
X007884Y011872D02*
X006027Y011872D01*
X006023Y011970D02*
X007983Y011970D01*
X008081Y012069D02*
X006203Y012069D01*
X006379Y012167D02*
X008180Y012167D01*
X008278Y012266D02*
X006455Y012266D01*
X006495Y012364D02*
X008338Y012364D01*
X008338Y012463D02*
X006495Y012463D01*
X006495Y012561D02*
X008338Y012561D01*
X008338Y012660D02*
X006495Y012660D01*
X006495Y012758D02*
X008338Y012758D01*
X008338Y012857D02*
X006495Y012857D01*
X006495Y012955D02*
X008338Y012955D01*
X008338Y013054D02*
X006495Y013054D01*
X006495Y013152D02*
X008338Y013152D01*
X008338Y013251D02*
X006495Y013251D01*
X006495Y013349D02*
X008338Y013349D01*
X008367Y013448D02*
X006466Y013448D01*
X006406Y013546D02*
X008428Y013546D01*
X008565Y013645D02*
X006268Y013645D01*
X005818Y014728D02*
X011830Y014728D01*
X011830Y014827D02*
X005818Y014827D01*
X005818Y014925D02*
X011830Y014925D01*
X011830Y015024D02*
X005784Y015024D01*
X005716Y015122D02*
X011830Y015122D01*
X011830Y015221D02*
X005560Y015221D01*
X004942Y015221D02*
X004891Y015221D01*
X004273Y015221D02*
X001513Y015221D01*
X001565Y015319D02*
X011857Y015319D01*
X011913Y015418D02*
X001606Y015418D01*
X001642Y015516D02*
X012041Y015516D01*
X012417Y014985D02*
X012417Y014970D01*
X013377Y014970D01*
X013677Y014670D01*
X013728Y014650D01*
X014226Y014039D02*
X015967Y014039D01*
X015967Y014137D02*
X014329Y014137D01*
X014374Y014236D02*
X015967Y014236D01*
X015967Y014334D02*
X014393Y014334D01*
X014393Y014433D02*
X015967Y014433D01*
X015967Y014531D02*
X014393Y014531D01*
X014393Y014630D02*
X015967Y014630D01*
X015967Y014728D02*
X014393Y014728D01*
X014393Y014827D02*
X015967Y014827D01*
X015771Y014925D02*
X014393Y014925D01*
X014391Y015024D02*
X015533Y015024D01*
X015418Y015122D02*
X014350Y015122D01*
X014271Y015221D02*
X015320Y015221D01*
X015268Y015319D02*
X013622Y015319D01*
X012920Y015418D02*
X015228Y015418D01*
X015191Y015516D02*
X012792Y015516D01*
X013003Y014550D02*
X013003Y014519D01*
X013037Y014439D01*
X013037Y014270D01*
X013067Y014270D01*
X013062Y014281D01*
X013062Y014550D01*
X013003Y014550D01*
X013003Y014531D02*
X013062Y014531D01*
X013062Y014433D02*
X013037Y014433D01*
X013037Y014334D02*
X013062Y014334D01*
X014003Y013940D02*
X015967Y013940D01*
X015967Y013842D02*
X014102Y013842D01*
X014200Y013743D02*
X015967Y013743D01*
X015967Y013645D02*
X014299Y013645D01*
X014397Y013546D02*
X015967Y013546D01*
X015967Y013448D02*
X014496Y013448D01*
X014594Y013349D02*
X015967Y013349D01*
X015967Y013251D02*
X014764Y013251D01*
X014862Y013152D02*
X015967Y013152D01*
X015967Y013054D02*
X014961Y013054D01*
X015059Y012955D02*
X015967Y012955D01*
X015967Y012857D02*
X015087Y012857D01*
X015087Y012758D02*
X015967Y012758D01*
X015967Y012660D02*
X015087Y012660D01*
X015087Y012561D02*
X015967Y012561D01*
X015967Y012463D02*
X015087Y012463D01*
X015078Y012364D02*
X015967Y012364D01*
X015967Y012266D02*
X015037Y012266D01*
X015037Y012167D02*
X015967Y012167D01*
X015967Y012069D02*
X015037Y012069D01*
X015044Y011970D02*
X015967Y011970D01*
X015967Y011872D02*
X015087Y011872D01*
X015087Y011773D02*
X015967Y011773D01*
X015967Y011675D02*
X015087Y011675D01*
X015087Y011576D02*
X015967Y011576D01*
X015967Y011478D02*
X015087Y011478D01*
X015087Y011379D02*
X015967Y011379D01*
X015967Y011281D02*
X015037Y011281D01*
X015037Y011182D02*
X015967Y011182D01*
X015967Y011084D02*
X015037Y011084D01*
X015037Y010985D02*
X015967Y010985D01*
X015967Y010887D02*
X015087Y010887D01*
X015087Y010788D02*
X015967Y010788D01*
X015967Y010690D02*
X015087Y010690D01*
X015087Y010591D02*
X015967Y010591D01*
X015967Y010493D02*
X015087Y010493D01*
X015087Y010394D02*
X015967Y010394D01*
X015967Y010296D02*
X015037Y010296D01*
X015037Y010197D02*
X015967Y010197D01*
X015967Y010099D02*
X015037Y010099D01*
X012461Y006848D02*
X012375Y006848D01*
X009873Y009680D02*
X009870Y009680D01*
X009872Y009682D01*
X009873Y009680D01*
X007377Y006750D02*
X007017Y006390D01*
X007013Y006344D01*
X006717Y006390D02*
X006717Y006630D01*
X006747Y006660D01*
X006717Y006390D02*
X006698Y006343D01*
X003657Y010710D02*
X003657Y011850D01*
X004338Y012963D02*
X004338Y013170D01*
X004131Y013170D01*
X004338Y012963D01*
X004338Y013054D02*
X004247Y013054D01*
X004338Y013152D02*
X004149Y013152D01*
X004617Y013950D02*
X004617Y014610D01*
X004582Y014650D01*
X004050Y015024D02*
X001300Y015024D01*
X001415Y015122D02*
X004117Y015122D01*
X004015Y014925D02*
X001063Y014925D01*
X000867Y014827D02*
X004015Y014827D01*
X004015Y014728D02*
X000867Y014728D01*
X000867Y014630D02*
X004015Y014630D01*
X004015Y014531D02*
X000867Y014531D01*
X000867Y014433D02*
X004015Y014433D01*
X004026Y014334D02*
X000867Y014334D01*
X000867Y014236D02*
X004067Y014236D01*
X004047Y014137D02*
X000867Y014137D01*
X000867Y014039D02*
X004047Y014039D01*
X001642Y015615D02*
X015191Y015615D01*
X010387Y013645D02*
X010268Y013645D01*
D25*
X010437Y011850D03*
X006477Y008790D03*
X005997Y008850D03*
X005637Y009690D03*
X005037Y011190D03*
X005457Y011730D03*
X003657Y010710D03*
X002277Y012510D03*
X002637Y012870D03*
X004617Y013950D03*
X002517Y007710D03*
X003657Y006210D03*
X004797Y005790D03*
X004797Y005310D03*
X004797Y004830D03*
X004797Y004110D03*
X005217Y003510D03*
X004497Y002490D03*
X005397Y002370D03*
X005517Y001890D03*
X006417Y002430D03*
X007557Y002790D03*
X007917Y003150D03*
X007017Y003870D03*
X005697Y005190D03*
X007017Y005430D03*
X008097Y006030D03*
X007377Y006750D03*
X009417Y005490D03*
X009897Y005490D03*
X010617Y006030D03*
X011097Y005310D03*
X011937Y005130D03*
X012837Y004710D03*
X010557Y002430D03*
X010377Y001230D03*
X004917Y007110D03*
X002517Y005550D03*
X002457Y004530D03*
X003537Y003870D03*
X003177Y003450D03*
X002457Y002250D03*
X010797Y007530D03*
D26*
X014417Y007650D02*
X014417Y006650D01*
X014417Y005650D01*
X014417Y004650D01*
X014417Y003650D01*
X014417Y002650D01*
X014417Y001650D01*
X014417Y007650D02*
X014417Y008650D01*
X014417Y009650D01*
X014417Y010650D01*
X014417Y011650D01*
X014417Y012650D01*
X013417Y013650D01*
X012417Y013650D01*
X012417Y014315D01*
D27*
X012417Y014150D01*
X010917Y014150D01*
X010917Y010430D01*
X010810Y010430D01*
X010810Y009150D01*
X008810Y009150D01*
X008810Y008150D01*
X008810Y009150D02*
X007417Y009150D01*
X007417Y010430D01*
X006327Y010430D01*
X010327Y010430D02*
X010810Y010430D01*
X010810Y009150D02*
X010810Y008150D01*
M02*
