%
M48
M72
T01C0.0240
T02C0.0315
T03C0.0320
T04C0.0400
T05C0.0551
%
T01
X2457Y2250
X3177Y3450
X3537Y3870
X2457Y4530
X2517Y5550
X3657Y6210
X4797Y5790
X4797Y5310
X4797Y4830
X4797Y4110
X5217Y3510
X4497Y2490
X5397Y2370
X5517Y1890
X6417Y2430
X7557Y2790
X7917Y3150
X7017Y3870
X5697Y5190
X7017Y5430
X8097Y6030
X7377Y6750
X6477Y8790
X5997Y8850
X5637Y9690
X5037Y11190
X5457Y11730
X3657Y10710
X2277Y12510
X2637Y12870
X4617Y13950
X10437Y11850
X10797Y7530
X10617Y6030
X11097Y5310
X11937Y5130
X12837Y4710
X10557Y2430
X10377Y1230
X9897Y5490
X9417Y5490
X4917Y7110
X2517Y7710
T02
X3086Y7681
X3086Y8469
X3086Y9256
X3086Y10044
X3086Y10831
X3086Y11619
X3086Y12406
X3086Y13193
X3086Y6894
X3086Y6107
X11747Y6107
X11747Y6894
X11747Y7681
X11747Y8469
X11747Y9256
X11747Y10044
X11747Y10831
X11747Y11619
X11747Y12406
X11747Y13193
T03
X11367Y3650
X9467Y3650
X9917Y1650
X8917Y1650
X6917Y1650
X11917Y1650
T04
X13417Y1650
X14417Y1650
X15417Y1650
X15417Y2650
X15417Y3650
X15417Y4650
X15417Y5650
X15417Y6650
X15417Y7650
X14417Y7650
X14417Y6650
X14417Y5650
X14417Y4650
X14417Y3650
X14417Y2650
X13417Y2650
X13417Y3650
X13417Y4650
X13417Y5650
X13417Y6650
X13417Y7650
X13417Y8650
X14417Y8650
X15417Y8650
X15417Y9650
X15417Y10650
X15417Y11650
X15417Y12650
X14417Y12650
X14417Y11650
X14417Y10650
X14417Y9650
X13417Y9650
X13417Y10650
X13417Y11650
X13417Y12650
X5917Y1150
X4917Y1150
X3917Y1150
X2917Y1150
X1417Y2150
X1417Y3150
X1417Y4150
X1417Y5150
X1417Y6150
X1417Y7150
X1417Y8150
X1417Y9150
X1417Y10150
X1417Y11150
X1417Y12150
X1417Y13150
T05
X917Y650
X15917Y650
X15917Y15650
X917Y15650
M30
