G75*
G70*
%OFA0B0*%
%FSLAX24Y24*%
%IPPOS*%
%LPD*%
%AMOC8*
5,1,8,0,0,1.08239X$1,22.5*
%
%ADD10C,0.0000*%
%ADD11C,0.0060*%
%ADD12C,0.0030*%
%ADD13C,0.0160*%
%ADD14C,0.0050*%
%ADD15C,0.0120*%
%ADD16C,0.0080*%
%ADD17C,0.0040*%
%ADD18R,0.0167X0.0128*%
%ADD19R,0.0138X0.0138*%
D10*
X000417Y000150D02*
X000417Y016150D01*
X016417Y016150D01*
X016417Y000150D01*
X000417Y000150D01*
X000641Y000650D02*
X000643Y000683D01*
X000649Y000715D01*
X000658Y000746D01*
X000671Y000776D01*
X000688Y000804D01*
X000708Y000830D01*
X000731Y000854D01*
X000756Y000874D01*
X000784Y000892D01*
X000813Y000906D01*
X000844Y000916D01*
X000876Y000923D01*
X000909Y000926D01*
X000942Y000925D01*
X000974Y000920D01*
X001005Y000911D01*
X001036Y000899D01*
X001064Y000883D01*
X001091Y000864D01*
X001115Y000842D01*
X001136Y000817D01*
X001155Y000790D01*
X001170Y000761D01*
X001181Y000731D01*
X001189Y000699D01*
X001193Y000666D01*
X001193Y000634D01*
X001189Y000601D01*
X001181Y000569D01*
X001170Y000539D01*
X001155Y000510D01*
X001136Y000483D01*
X001115Y000458D01*
X001091Y000436D01*
X001064Y000417D01*
X001036Y000401D01*
X001005Y000389D01*
X000974Y000380D01*
X000942Y000375D01*
X000909Y000374D01*
X000876Y000377D01*
X000844Y000384D01*
X000813Y000394D01*
X000784Y000408D01*
X000756Y000426D01*
X000731Y000446D01*
X000708Y000470D01*
X000688Y000496D01*
X000671Y000524D01*
X000658Y000554D01*
X000649Y000585D01*
X000643Y000617D01*
X000641Y000650D01*
X015641Y000650D02*
X015643Y000683D01*
X015649Y000715D01*
X015658Y000746D01*
X015671Y000776D01*
X015688Y000804D01*
X015708Y000830D01*
X015731Y000854D01*
X015756Y000874D01*
X015784Y000892D01*
X015813Y000906D01*
X015844Y000916D01*
X015876Y000923D01*
X015909Y000926D01*
X015942Y000925D01*
X015974Y000920D01*
X016005Y000911D01*
X016036Y000899D01*
X016064Y000883D01*
X016091Y000864D01*
X016115Y000842D01*
X016136Y000817D01*
X016155Y000790D01*
X016170Y000761D01*
X016181Y000731D01*
X016189Y000699D01*
X016193Y000666D01*
X016193Y000634D01*
X016189Y000601D01*
X016181Y000569D01*
X016170Y000539D01*
X016155Y000510D01*
X016136Y000483D01*
X016115Y000458D01*
X016091Y000436D01*
X016064Y000417D01*
X016036Y000401D01*
X016005Y000389D01*
X015974Y000380D01*
X015942Y000375D01*
X015909Y000374D01*
X015876Y000377D01*
X015844Y000384D01*
X015813Y000394D01*
X015784Y000408D01*
X015756Y000426D01*
X015731Y000446D01*
X015708Y000470D01*
X015688Y000496D01*
X015671Y000524D01*
X015658Y000554D01*
X015649Y000585D01*
X015643Y000617D01*
X015641Y000650D01*
X015641Y015650D02*
X015643Y015683D01*
X015649Y015715D01*
X015658Y015746D01*
X015671Y015776D01*
X015688Y015804D01*
X015708Y015830D01*
X015731Y015854D01*
X015756Y015874D01*
X015784Y015892D01*
X015813Y015906D01*
X015844Y015916D01*
X015876Y015923D01*
X015909Y015926D01*
X015942Y015925D01*
X015974Y015920D01*
X016005Y015911D01*
X016036Y015899D01*
X016064Y015883D01*
X016091Y015864D01*
X016115Y015842D01*
X016136Y015817D01*
X016155Y015790D01*
X016170Y015761D01*
X016181Y015731D01*
X016189Y015699D01*
X016193Y015666D01*
X016193Y015634D01*
X016189Y015601D01*
X016181Y015569D01*
X016170Y015539D01*
X016155Y015510D01*
X016136Y015483D01*
X016115Y015458D01*
X016091Y015436D01*
X016064Y015417D01*
X016036Y015401D01*
X016005Y015389D01*
X015974Y015380D01*
X015942Y015375D01*
X015909Y015374D01*
X015876Y015377D01*
X015844Y015384D01*
X015813Y015394D01*
X015784Y015408D01*
X015756Y015426D01*
X015731Y015446D01*
X015708Y015470D01*
X015688Y015496D01*
X015671Y015524D01*
X015658Y015554D01*
X015649Y015585D01*
X015643Y015617D01*
X015641Y015650D01*
X000641Y015650D02*
X000643Y015683D01*
X000649Y015715D01*
X000658Y015746D01*
X000671Y015776D01*
X000688Y015804D01*
X000708Y015830D01*
X000731Y015854D01*
X000756Y015874D01*
X000784Y015892D01*
X000813Y015906D01*
X000844Y015916D01*
X000876Y015923D01*
X000909Y015926D01*
X000942Y015925D01*
X000974Y015920D01*
X001005Y015911D01*
X001036Y015899D01*
X001064Y015883D01*
X001091Y015864D01*
X001115Y015842D01*
X001136Y015817D01*
X001155Y015790D01*
X001170Y015761D01*
X001181Y015731D01*
X001189Y015699D01*
X001193Y015666D01*
X001193Y015634D01*
X001189Y015601D01*
X001181Y015569D01*
X001170Y015539D01*
X001155Y015510D01*
X001136Y015483D01*
X001115Y015458D01*
X001091Y015436D01*
X001064Y015417D01*
X001036Y015401D01*
X001005Y015389D01*
X000974Y015380D01*
X000942Y015375D01*
X000909Y015374D01*
X000876Y015377D01*
X000844Y015384D01*
X000813Y015394D01*
X000784Y015408D01*
X000756Y015426D01*
X000731Y015446D01*
X000708Y015470D01*
X000688Y015496D01*
X000671Y015524D01*
X000658Y015554D01*
X000649Y015585D01*
X000643Y015617D01*
X000641Y015650D01*
D11*
X001167Y013650D02*
X001667Y013650D01*
X001917Y013400D01*
X001917Y012900D01*
X001667Y012650D01*
X001917Y012400D01*
X001917Y011900D01*
X001667Y011650D01*
X001917Y011400D01*
X001917Y010900D01*
X001667Y010650D01*
X001917Y010400D01*
X001917Y009900D01*
X001667Y009650D01*
X001917Y009400D01*
X001917Y008900D01*
X001667Y008650D01*
X001917Y008400D01*
X001917Y007900D01*
X001667Y007650D01*
X001167Y007650D01*
X000917Y007400D01*
X000917Y006900D01*
X001167Y006650D01*
X000917Y006400D01*
X000917Y005900D01*
X001167Y005650D01*
X000917Y005400D01*
X000917Y004900D01*
X001167Y004650D01*
X000917Y004400D01*
X000917Y003900D01*
X001167Y003650D01*
X000917Y003400D01*
X000917Y002900D01*
X001167Y002650D01*
X000917Y002400D01*
X000917Y001900D01*
X001167Y001650D01*
X001667Y001650D01*
X001917Y001900D01*
X001917Y002400D01*
X001667Y002650D01*
X001917Y002900D01*
X001917Y003400D01*
X001667Y003650D01*
X001917Y003900D01*
X001917Y004400D01*
X001667Y004650D01*
X001917Y004900D01*
X001917Y005400D01*
X001667Y005650D01*
X001917Y005900D01*
X001917Y006400D01*
X001667Y006650D01*
X001917Y006900D01*
X001917Y007400D01*
X001667Y007650D01*
X001167Y007650D01*
X000917Y007900D01*
X000917Y008400D01*
X001167Y008650D01*
X000917Y008900D01*
X000917Y009400D01*
X001167Y009650D01*
X001667Y009650D01*
X001167Y009650D02*
X000917Y009900D01*
X000917Y010400D01*
X001167Y010650D01*
X000917Y010900D01*
X000917Y011400D01*
X001167Y011650D01*
X000917Y011900D01*
X000917Y012400D01*
X001167Y012650D01*
X000917Y012900D01*
X000917Y013400D01*
X001167Y013650D01*
X001167Y012650D02*
X001667Y012650D01*
X001667Y011650D02*
X001167Y011650D01*
X001167Y010650D02*
X001667Y010650D01*
X001667Y008650D02*
X001167Y008650D01*
X004116Y008691D02*
X010344Y008691D01*
X010344Y010779D02*
X004116Y010779D01*
X004532Y006025D02*
X007292Y006035D01*
X007301Y003275D01*
X004681Y003266D01*
X004541Y003405D01*
X004532Y006025D01*
X004699Y003566D02*
X004701Y003589D01*
X004707Y003612D01*
X004716Y003633D01*
X004729Y003653D01*
X004745Y003670D01*
X004763Y003684D01*
X004783Y003695D01*
X004805Y003703D01*
X004828Y003707D01*
X004852Y003707D01*
X004875Y003703D01*
X004897Y003695D01*
X004917Y003684D01*
X004935Y003670D01*
X004951Y003653D01*
X004964Y003633D01*
X004973Y003612D01*
X004979Y003589D01*
X004981Y003566D01*
X004979Y003543D01*
X004973Y003520D01*
X004964Y003499D01*
X004951Y003479D01*
X004935Y003462D01*
X004917Y003448D01*
X004897Y003437D01*
X004875Y003429D01*
X004852Y003425D01*
X004828Y003425D01*
X004805Y003429D01*
X004783Y003437D01*
X004763Y003448D01*
X004745Y003462D01*
X004729Y003479D01*
X004716Y003499D01*
X004707Y003520D01*
X004701Y003543D01*
X004699Y003566D01*
X004667Y001650D02*
X005167Y001650D01*
X005417Y001400D01*
X005667Y001650D01*
X006167Y001650D01*
X006417Y001400D01*
X006417Y000900D01*
X006167Y000650D01*
X005667Y000650D01*
X005417Y000900D01*
X005167Y000650D01*
X004667Y000650D01*
X004417Y000900D01*
X004167Y000650D01*
X003667Y000650D01*
X003417Y000900D01*
X003167Y000650D01*
X002667Y000650D01*
X002417Y000900D01*
X002417Y001400D01*
X002667Y001650D01*
X003167Y001650D01*
X003417Y001400D01*
X003667Y001650D01*
X004167Y001650D01*
X004417Y001400D01*
X004667Y001650D01*
X007067Y001400D02*
X007069Y001374D01*
X007074Y001348D01*
X007082Y001323D01*
X007094Y001300D01*
X007108Y001278D01*
X007126Y001259D01*
X007145Y001241D01*
X007167Y001227D01*
X007190Y001215D01*
X007215Y001207D01*
X007241Y001202D01*
X007267Y001200D01*
X008567Y001200D01*
X008593Y001202D01*
X008619Y001207D01*
X008644Y001215D01*
X008667Y001227D01*
X008689Y001241D01*
X008708Y001259D01*
X008726Y001278D01*
X008740Y001300D01*
X008752Y001323D01*
X008760Y001348D01*
X008765Y001374D01*
X008767Y001400D01*
X008417Y001650D02*
X008047Y001650D01*
X007797Y001650D02*
X007417Y001650D01*
X007067Y001900D02*
X007069Y001926D01*
X007074Y001952D01*
X007082Y001977D01*
X007094Y002000D01*
X007108Y002022D01*
X007126Y002041D01*
X007145Y002059D01*
X007167Y002073D01*
X007190Y002085D01*
X007215Y002093D01*
X007241Y002098D01*
X007267Y002100D01*
X008567Y002100D01*
X008593Y002098D01*
X008619Y002093D01*
X008644Y002085D01*
X008667Y002073D01*
X008689Y002059D01*
X008708Y002041D01*
X008726Y002022D01*
X008740Y002000D01*
X008752Y001977D01*
X008760Y001952D01*
X008765Y001926D01*
X008767Y001900D01*
X009217Y003000D02*
X011617Y003000D01*
X011667Y003002D01*
X011716Y003008D01*
X011765Y003017D01*
X011813Y003030D01*
X011860Y003047D01*
X011905Y003067D01*
X011949Y003091D01*
X011991Y003118D01*
X012031Y003149D01*
X012068Y003182D01*
X012102Y003218D01*
X012134Y003256D01*
X012163Y003297D01*
X012188Y003339D01*
X012210Y003384D01*
X012229Y003430D01*
X012244Y003478D01*
X012255Y003526D01*
X012263Y003575D01*
X012267Y003625D01*
X012267Y003675D01*
X012263Y003725D01*
X012255Y003774D01*
X012244Y003822D01*
X012229Y003870D01*
X012210Y003916D01*
X012188Y003961D01*
X012163Y004003D01*
X012134Y004044D01*
X012102Y004082D01*
X012068Y004118D01*
X012031Y004151D01*
X011991Y004182D01*
X011949Y004209D01*
X011905Y004233D01*
X011860Y004253D01*
X011813Y004270D01*
X011765Y004283D01*
X011716Y004292D01*
X011667Y004298D01*
X011617Y004300D01*
X009217Y004300D01*
X009167Y004298D01*
X009118Y004292D01*
X009069Y004283D01*
X009021Y004270D01*
X008974Y004253D01*
X008929Y004233D01*
X008885Y004209D01*
X008843Y004182D01*
X008803Y004151D01*
X008766Y004118D01*
X008732Y004082D01*
X008700Y004044D01*
X008671Y004003D01*
X008646Y003961D01*
X008624Y003916D01*
X008605Y003870D01*
X008590Y003822D01*
X008579Y003774D01*
X008571Y003725D01*
X008567Y003675D01*
X008567Y003625D01*
X008571Y003575D01*
X008579Y003526D01*
X008590Y003478D01*
X008605Y003430D01*
X008624Y003384D01*
X008646Y003339D01*
X008671Y003297D01*
X008700Y003256D01*
X008732Y003218D01*
X008766Y003182D01*
X008803Y003149D01*
X008843Y003118D01*
X008885Y003091D01*
X008929Y003067D01*
X008974Y003047D01*
X009021Y003030D01*
X009069Y003017D01*
X009118Y003008D01*
X009167Y003002D01*
X009217Y003000D01*
X009917Y003650D02*
X010167Y003650D01*
X010167Y003950D01*
X010317Y003950D02*
X010517Y003950D01*
X010517Y003350D01*
X010317Y003350D01*
X010317Y003950D01*
X010167Y003650D02*
X010167Y003350D01*
X010667Y003350D02*
X010667Y003650D01*
X010917Y003650D01*
X010667Y003650D02*
X010667Y003950D01*
X010267Y002100D02*
X011567Y002100D01*
X011593Y002098D01*
X011619Y002093D01*
X011644Y002085D01*
X011667Y002073D01*
X011689Y002059D01*
X011708Y002041D01*
X011726Y002022D01*
X011740Y002000D01*
X011752Y001977D01*
X011760Y001952D01*
X011765Y001926D01*
X011767Y001900D01*
X011417Y001650D02*
X011037Y001650D01*
X010787Y001650D02*
X010417Y001650D01*
X010067Y001900D02*
X010069Y001926D01*
X010074Y001952D01*
X010082Y001977D01*
X010094Y002000D01*
X010108Y002022D01*
X010126Y002041D01*
X010145Y002059D01*
X010167Y002073D01*
X010190Y002085D01*
X010215Y002093D01*
X010241Y002098D01*
X010267Y002100D01*
X010067Y001400D02*
X010069Y001374D01*
X010074Y001348D01*
X010082Y001323D01*
X010094Y001300D01*
X010108Y001278D01*
X010126Y001259D01*
X010145Y001241D01*
X010167Y001227D01*
X010190Y001215D01*
X010215Y001207D01*
X010241Y001202D01*
X010267Y001200D01*
X011567Y001200D01*
X011593Y001202D01*
X011619Y001207D01*
X011644Y001215D01*
X011667Y001227D01*
X011689Y001241D01*
X011708Y001259D01*
X011726Y001278D01*
X011740Y001300D01*
X011752Y001323D01*
X011760Y001348D01*
X011765Y001374D01*
X011767Y001400D01*
X012917Y001400D02*
X013167Y001150D01*
X014667Y001150D01*
X014917Y001400D01*
X015167Y001150D01*
X015667Y001150D01*
X015917Y001400D01*
X015917Y001900D01*
X015667Y002150D01*
X015917Y002400D01*
X015917Y002900D01*
X015667Y003150D01*
X015917Y003400D01*
X015917Y003900D01*
X015667Y004150D01*
X015917Y004400D01*
X015917Y004900D01*
X015667Y005150D01*
X015917Y005400D01*
X015917Y005900D01*
X015667Y006150D01*
X015917Y006400D01*
X015917Y006900D01*
X015667Y007150D01*
X015917Y007400D01*
X015917Y007900D01*
X015667Y008150D01*
X015917Y008400D01*
X015917Y008900D01*
X015667Y009150D01*
X015917Y009400D01*
X015917Y009900D01*
X015667Y010150D01*
X015917Y010400D01*
X015917Y010900D01*
X015667Y011150D01*
X015917Y011400D01*
X015917Y011900D01*
X015667Y012150D01*
X015917Y012400D01*
X015917Y012900D01*
X015667Y013150D01*
X015167Y013150D01*
X014917Y012900D01*
X014917Y012400D01*
X015167Y012150D01*
X014917Y011900D01*
X014917Y011400D01*
X015167Y011150D01*
X014917Y010900D01*
X014917Y010400D01*
X015167Y010150D01*
X014917Y009900D01*
X014917Y009400D01*
X015167Y009150D01*
X014917Y008900D01*
X014917Y008400D01*
X015167Y008150D01*
X014917Y007900D01*
X014917Y007400D01*
X015167Y007150D01*
X015667Y007150D01*
X015167Y007150D01*
X014917Y006900D01*
X014917Y006400D01*
X015167Y006150D01*
X014917Y005900D01*
X014917Y005400D01*
X015167Y005150D01*
X014917Y004900D01*
X014917Y004400D01*
X015167Y004150D01*
X014917Y003900D01*
X014917Y003400D01*
X015167Y003150D01*
X014917Y002900D01*
X014917Y002400D01*
X015167Y002150D01*
X014917Y001900D01*
X014917Y001400D01*
X014917Y001900D01*
X014667Y002150D01*
X014917Y002400D01*
X014917Y002900D01*
X014667Y003150D01*
X014917Y003400D01*
X014917Y003900D01*
X014667Y004150D01*
X014917Y004400D01*
X014917Y004900D01*
X014667Y005150D01*
X014917Y005400D01*
X014917Y005900D01*
X014667Y006150D01*
X014917Y006400D01*
X014917Y006900D01*
X014667Y007150D01*
X013167Y007150D01*
X012917Y006900D01*
X012917Y006400D01*
X013167Y006150D01*
X012917Y005900D01*
X012917Y005400D01*
X013167Y005150D01*
X012917Y004900D01*
X012917Y004400D01*
X013167Y004150D01*
X012917Y003900D01*
X012917Y003400D01*
X013167Y003150D01*
X012917Y002900D01*
X012917Y002400D01*
X013167Y002150D01*
X012917Y001900D01*
X012917Y001400D01*
X013167Y007150D02*
X014667Y007150D01*
X014917Y007400D01*
X014917Y007900D01*
X014667Y008150D01*
X014917Y008400D01*
X014917Y008900D01*
X014667Y009150D01*
X014917Y009400D01*
X014917Y009900D01*
X014667Y010150D01*
X014917Y010400D01*
X014917Y010900D01*
X014667Y011150D01*
X014917Y011400D01*
X014917Y011900D01*
X014667Y012150D01*
X014917Y012400D01*
X014917Y012900D01*
X014667Y013150D01*
X013167Y013150D01*
X012917Y012900D01*
X012917Y012400D01*
X013167Y012150D01*
X012917Y011900D01*
X012917Y011400D01*
X013167Y011150D01*
X012917Y010900D01*
X012917Y010400D01*
X013167Y010150D01*
X012917Y009900D01*
X012917Y009400D01*
X013167Y009150D01*
X012917Y008900D01*
X012917Y008400D01*
X013167Y008150D01*
X012917Y007900D01*
X012917Y007400D01*
X013167Y007150D01*
D12*
X010704Y007482D02*
X010642Y007421D01*
X010519Y007421D01*
X010457Y007482D01*
X010336Y007482D02*
X010274Y007421D01*
X010150Y007421D01*
X010089Y007482D01*
X010089Y007729D01*
X010150Y007791D01*
X010274Y007791D01*
X010336Y007729D01*
X010457Y007729D02*
X010519Y007791D01*
X010642Y007791D01*
X010704Y007729D01*
X010704Y007667D01*
X010642Y007606D01*
X010704Y007544D01*
X010704Y007482D01*
X010642Y007606D02*
X010580Y007606D01*
X010591Y007380D02*
X010406Y007195D01*
X010653Y007195D01*
X010591Y007380D02*
X010591Y007009D01*
X010285Y007071D02*
X010223Y007009D01*
X010100Y007009D01*
X010038Y007071D01*
X010038Y007318D01*
X010100Y007380D01*
X010223Y007380D01*
X010285Y007318D01*
X008653Y007380D02*
X008406Y007380D01*
X008406Y007195D01*
X008530Y007256D01*
X008591Y007256D01*
X008653Y007195D01*
X008653Y007071D01*
X008591Y007009D01*
X008468Y007009D01*
X008406Y007071D01*
X008285Y007071D02*
X008223Y007009D01*
X008100Y007009D01*
X008038Y007071D01*
X008038Y007318D01*
X008100Y007380D01*
X008223Y007380D01*
X008285Y007318D01*
X008274Y007421D02*
X008150Y007421D01*
X008089Y007482D01*
X008089Y007729D01*
X008150Y007791D01*
X008274Y007791D01*
X008336Y007729D01*
X008457Y007791D02*
X008704Y007791D01*
X008704Y007729D01*
X008457Y007482D01*
X008457Y007421D01*
X008336Y007482D02*
X008274Y007421D01*
X006704Y007482D02*
X006642Y007421D01*
X006519Y007421D01*
X006457Y007482D01*
X006457Y007544D01*
X006519Y007606D01*
X006642Y007606D01*
X006704Y007544D01*
X006704Y007482D01*
X006642Y007606D02*
X006704Y007667D01*
X006704Y007729D01*
X006642Y007791D01*
X006519Y007791D01*
X006457Y007729D01*
X006457Y007667D01*
X006519Y007606D01*
X006336Y007729D02*
X006274Y007791D01*
X006150Y007791D01*
X006089Y007729D01*
X006089Y007482D01*
X006150Y007421D01*
X006274Y007421D01*
X006336Y007482D01*
X004653Y008571D02*
X004653Y008633D01*
X004591Y008695D01*
X004406Y008695D01*
X004406Y008571D01*
X004468Y008509D01*
X004591Y008509D01*
X004653Y008571D01*
X004530Y008818D02*
X004406Y008695D01*
X004285Y008818D02*
X004223Y008880D01*
X004100Y008880D01*
X004038Y008818D01*
X004038Y008571D01*
X004100Y008509D01*
X004223Y008509D01*
X004285Y008571D01*
X004530Y008818D02*
X004653Y008880D01*
X003903Y004324D02*
X003903Y004227D01*
X003903Y004275D02*
X003613Y004274D01*
X003613Y004226D02*
X003613Y004323D01*
X003662Y004126D02*
X003614Y004078D01*
X003614Y003981D01*
X003663Y003933D01*
X003615Y003832D02*
X003615Y003638D01*
X003615Y003735D02*
X003905Y003736D01*
X003808Y003832D01*
X003856Y003934D02*
X003904Y003982D01*
X003904Y004079D01*
X003855Y004127D01*
X003662Y004126D01*
D13*
X009217Y004500D02*
X011617Y004500D01*
X011674Y004498D01*
X011730Y004492D01*
X011786Y004483D01*
X011842Y004470D01*
X011896Y004453D01*
X011949Y004433D01*
X012000Y004409D01*
X012050Y004381D01*
X012098Y004351D01*
X012144Y004317D01*
X012187Y004280D01*
X012228Y004241D01*
X012266Y004199D01*
X012301Y004154D01*
X012333Y004107D01*
X012362Y004058D01*
X012388Y004008D01*
X012410Y003955D01*
X012429Y003902D01*
X012444Y003847D01*
X012455Y003791D01*
X012463Y003735D01*
X012467Y003678D01*
X012467Y003622D01*
X012463Y003565D01*
X012455Y003509D01*
X012444Y003453D01*
X012429Y003398D01*
X012410Y003345D01*
X012388Y003292D01*
X012362Y003242D01*
X012333Y003193D01*
X012301Y003146D01*
X012266Y003101D01*
X012228Y003059D01*
X012187Y003020D01*
X012144Y002983D01*
X012098Y002949D01*
X012050Y002919D01*
X012000Y002891D01*
X011949Y002867D01*
X011896Y002847D01*
X011842Y002830D01*
X011786Y002817D01*
X011730Y002808D01*
X011674Y002802D01*
X011617Y002800D01*
X009217Y002800D01*
X009160Y002802D01*
X009104Y002808D01*
X009048Y002817D01*
X008992Y002830D01*
X008938Y002847D01*
X008885Y002867D01*
X008834Y002891D01*
X008784Y002919D01*
X008736Y002949D01*
X008690Y002983D01*
X008647Y003020D01*
X008606Y003059D01*
X008568Y003101D01*
X008533Y003146D01*
X008501Y003193D01*
X008472Y003242D01*
X008446Y003292D01*
X008424Y003345D01*
X008405Y003398D01*
X008390Y003453D01*
X008379Y003509D01*
X008371Y003565D01*
X008367Y003622D01*
X008367Y003678D01*
X008371Y003735D01*
X008379Y003791D01*
X008390Y003847D01*
X008405Y003902D01*
X008424Y003955D01*
X008446Y004008D01*
X008472Y004058D01*
X008501Y004107D01*
X008533Y004154D01*
X008568Y004199D01*
X008606Y004241D01*
X008647Y004280D01*
X008690Y004317D01*
X008736Y004351D01*
X008784Y004381D01*
X008834Y004409D01*
X008885Y004433D01*
X008938Y004453D01*
X008992Y004470D01*
X009048Y004483D01*
X009104Y004492D01*
X009160Y004498D01*
X009217Y004500D01*
D14*
X007702Y002675D02*
X007702Y002225D01*
X007552Y002225D02*
X007852Y002225D01*
X007552Y002525D02*
X007702Y002675D01*
X007392Y002600D02*
X007317Y002675D01*
X007167Y002675D01*
X007092Y002600D01*
X007092Y002300D01*
X007167Y002225D01*
X007317Y002225D01*
X007392Y002300D01*
X006767Y001375D02*
X006542Y001150D01*
X006842Y001150D01*
X006767Y000925D02*
X006767Y001375D01*
X003509Y001900D02*
X003434Y001825D01*
X003284Y001825D01*
X003209Y001900D01*
X003209Y002200D01*
X003284Y002275D01*
X003434Y002275D01*
X003509Y002200D01*
X003049Y002200D02*
X002974Y002275D01*
X002824Y002275D01*
X002749Y002200D01*
X002592Y002275D02*
X002442Y002275D01*
X002517Y002275D02*
X002517Y001825D01*
X002442Y001825D02*
X002592Y001825D01*
X002542Y001925D02*
X002542Y002225D01*
X002542Y002075D02*
X002091Y002075D01*
X002241Y001925D01*
X002749Y001825D02*
X003049Y002125D01*
X003049Y002200D01*
X003049Y001825D02*
X002749Y001825D01*
X002142Y001375D02*
X002142Y000925D01*
X001992Y000925D02*
X002292Y000925D01*
X001992Y001225D02*
X002142Y001375D01*
X001742Y001361D02*
X001742Y001135D01*
X001291Y001135D01*
X001291Y001361D01*
X001366Y001436D01*
X001667Y001436D01*
X001742Y001361D01*
X001742Y000975D02*
X001441Y000975D01*
X001291Y000825D01*
X001441Y000675D01*
X001742Y000675D01*
X001516Y000675D02*
X001516Y000975D01*
X000667Y006925D02*
X000742Y007000D01*
X000742Y007150D01*
X000667Y007225D01*
X000592Y007225D01*
X000516Y007150D01*
X000516Y006925D01*
X000667Y006925D01*
X000516Y006925D02*
X000366Y007075D01*
X000291Y007225D01*
X001721Y013645D02*
X002097Y013645D01*
X002172Y013720D01*
X002172Y013870D01*
X002097Y013945D01*
X001721Y013945D01*
X001796Y014105D02*
X001871Y014105D01*
X001946Y014180D01*
X001946Y014331D01*
X002022Y014406D01*
X002097Y014406D01*
X002172Y014331D01*
X002172Y014180D01*
X002097Y014105D01*
X001796Y014105D02*
X001721Y014180D01*
X001721Y014331D01*
X001796Y014406D01*
X001721Y014566D02*
X001721Y014791D01*
X001796Y014866D01*
X001871Y014866D01*
X001946Y014791D01*
X001946Y014566D01*
X001721Y014566D02*
X002172Y014566D01*
X002172Y014791D01*
X002097Y014866D01*
X002022Y014866D01*
X001946Y014791D01*
X012291Y012861D02*
X012291Y012710D01*
X012366Y012635D01*
X012291Y012861D02*
X012366Y012936D01*
X012441Y012936D01*
X012742Y012635D01*
X012742Y012936D01*
X012742Y012475D02*
X012742Y012175D01*
X012742Y012325D02*
X012291Y012325D01*
X012441Y012175D01*
X014291Y012725D02*
X014366Y012575D01*
X014516Y012425D01*
X014516Y012650D01*
X014592Y012725D01*
X014667Y012725D01*
X014742Y012650D01*
X014742Y012500D01*
X014667Y012425D01*
X014516Y012425D01*
X014516Y008396D02*
X014441Y008321D01*
X014441Y008246D01*
X014516Y008096D01*
X014291Y008096D01*
X014291Y008396D01*
X014516Y008396D02*
X014667Y008396D01*
X014742Y008321D01*
X014742Y008171D01*
X014667Y008096D01*
X014592Y007936D02*
X014291Y007936D01*
X014592Y007936D02*
X014742Y007786D01*
X014592Y007635D01*
X014291Y007635D01*
X014366Y007475D02*
X014291Y007400D01*
X014291Y007250D01*
X014366Y007175D01*
X014441Y007175D01*
X014516Y007250D01*
X014516Y007400D01*
X014592Y007475D01*
X014667Y007475D01*
X014742Y007400D01*
X014742Y007250D01*
X014667Y007175D01*
X014667Y006725D02*
X014592Y006725D01*
X014516Y006650D01*
X014516Y006425D01*
X014667Y006425D01*
X014742Y006500D01*
X014742Y006650D01*
X014667Y006725D01*
X014516Y006425D02*
X014366Y006575D01*
X014291Y006725D01*
X015091Y007625D02*
X015542Y007625D01*
X015542Y007475D02*
X015542Y007775D01*
X015241Y007475D02*
X015091Y007625D01*
X016091Y007575D02*
X016542Y007575D01*
X016542Y007425D02*
X016542Y007725D01*
X016241Y007425D02*
X016091Y007575D01*
X012742Y007400D02*
X012742Y007250D01*
X012667Y007175D01*
X012516Y007250D02*
X012516Y007400D01*
X012592Y007475D01*
X012667Y007475D01*
X012742Y007400D01*
X012516Y007250D02*
X012441Y007175D01*
X012366Y007175D01*
X012291Y007250D01*
X012291Y007400D01*
X012366Y007475D01*
X012291Y007635D02*
X012592Y007635D01*
X012742Y007786D01*
X012592Y007936D01*
X012291Y007936D01*
X012441Y008096D02*
X012291Y008246D01*
X012742Y008246D01*
X012742Y008096D02*
X012742Y008396D01*
X012742Y006936D02*
X012742Y006635D01*
X012441Y006936D01*
X012366Y006936D01*
X012291Y006861D01*
X012291Y006710D01*
X012366Y006635D01*
X012291Y006325D02*
X012742Y006325D01*
X012742Y006175D02*
X012742Y006475D01*
X012441Y006175D02*
X012291Y006325D01*
X012131Y002575D02*
X012131Y002125D01*
X011981Y002125D02*
X012282Y002125D01*
X012291Y002171D02*
X012366Y002096D01*
X012291Y002171D02*
X012291Y002321D01*
X012366Y002396D01*
X012441Y002396D01*
X012742Y002096D01*
X012742Y002396D01*
X012592Y001936D02*
X012291Y001936D01*
X012291Y001635D02*
X012592Y001635D01*
X012742Y001786D01*
X012592Y001936D01*
X012592Y001475D02*
X012667Y001475D01*
X012742Y001400D01*
X012742Y001250D01*
X012667Y001175D01*
X012516Y001250D02*
X012516Y001400D01*
X012592Y001475D01*
X012366Y001475D02*
X012291Y001400D01*
X012291Y001250D01*
X012366Y001175D01*
X012441Y001175D01*
X012516Y001250D01*
X011632Y001000D02*
X011632Y000925D01*
X011331Y000625D01*
X011632Y000625D01*
X011171Y000700D02*
X011096Y000625D01*
X010946Y000625D01*
X010871Y000700D01*
X010871Y001000D01*
X010946Y001075D01*
X011096Y001075D01*
X011171Y001000D01*
X011331Y001000D02*
X011406Y001075D01*
X011556Y001075D01*
X011632Y001000D01*
X011596Y002125D02*
X011521Y002200D01*
X011521Y002500D01*
X011596Y002575D01*
X011746Y002575D01*
X011821Y002500D01*
X011821Y002200D01*
X011746Y002125D01*
X011596Y002125D01*
X011671Y002275D02*
X011821Y002125D01*
X011981Y002425D02*
X012131Y002575D01*
X014291Y002321D02*
X014516Y002096D01*
X014516Y002396D01*
X014291Y002321D02*
X014742Y002321D01*
X014592Y001936D02*
X014291Y001936D01*
X014291Y001635D02*
X014592Y001635D01*
X014742Y001786D01*
X014592Y001936D01*
X014592Y001475D02*
X014667Y001475D01*
X014742Y001400D01*
X014742Y001250D01*
X014667Y001175D01*
X014516Y001250D02*
X014516Y001400D01*
X014592Y001475D01*
X014366Y001475D02*
X014291Y001400D01*
X014291Y001250D01*
X014366Y001175D01*
X014441Y001175D01*
X014516Y001250D01*
X015091Y001625D02*
X015542Y001625D01*
X015542Y001475D02*
X015542Y001775D01*
X015241Y001475D02*
X015091Y001625D01*
X016091Y001575D02*
X016542Y001575D01*
X016542Y001425D02*
X016542Y001725D01*
X016241Y001425D02*
X016091Y001575D01*
D15*
X011037Y001650D02*
X011037Y001350D01*
X010787Y001350D02*
X010787Y001650D01*
X010787Y001950D01*
X011037Y001950D02*
X011037Y001650D01*
X008047Y001650D02*
X008047Y001350D01*
X007797Y001350D02*
X007797Y001650D01*
X007797Y001950D01*
X008047Y001950D02*
X008047Y001650D01*
D16*
X012180Y002837D02*
X002653Y002837D01*
X002653Y013233D01*
X005143Y015723D01*
X009690Y015723D01*
X012180Y013233D01*
X012180Y002837D01*
X010707Y010950D02*
X008127Y010950D01*
X008127Y012350D01*
X010707Y012350D01*
X010707Y010950D01*
X006707Y010950D02*
X004127Y010950D01*
X004127Y012350D01*
X006707Y012350D01*
X006707Y010950D01*
D17*
X006095Y010505D02*
X007340Y010505D01*
X007406Y010489D01*
X007450Y010461D01*
X007482Y010401D01*
X007504Y010346D01*
X007504Y010253D01*
X007488Y010209D01*
X007422Y009935D01*
X007400Y009880D01*
X007318Y009798D01*
X007252Y009771D01*
X007164Y009749D01*
X007055Y009749D01*
X007214Y009727D01*
X007329Y009672D01*
X007334Y009661D01*
X007334Y009513D01*
X007274Y009272D01*
X007236Y009211D01*
X007225Y009146D01*
X007143Y009052D01*
X007077Y009020D01*
X006973Y008987D01*
X005070Y008987D01*
X005103Y009047D01*
X005103Y009085D01*
X004928Y009518D01*
X004473Y009074D01*
X004423Y008987D01*
X004100Y008987D01*
X004237Y009085D01*
X004873Y009683D01*
X004560Y010445D01*
X004500Y010505D01*
X005103Y010505D01*
X005103Y010472D01*
X005087Y010439D01*
X005103Y010412D01*
X005103Y010385D01*
X005240Y010039D01*
X005629Y010423D01*
X005651Y010450D01*
X005668Y010483D01*
X005673Y010505D01*
X006019Y010505D01*
X005947Y010456D01*
X005893Y010418D01*
X005816Y010352D01*
X005300Y009869D01*
X005607Y009113D01*
X005695Y008992D01*
X005712Y008992D01*
X005745Y009025D01*
X005788Y009157D01*
X005854Y009403D01*
X005931Y009716D01*
X006073Y010297D01*
X006095Y010396D01*
X006095Y010505D01*
X005979Y010250D02*
X005885Y010250D01*
X005839Y010204D01*
X005932Y010110D02*
X005979Y010110D01*
X006025Y010063D01*
X006025Y010017D01*
X005979Y009970D01*
X005885Y009970D01*
X005839Y010017D01*
X005979Y010110D02*
X006025Y010157D01*
X006025Y010204D01*
X005979Y010250D01*
X006512Y010319D02*
X006397Y009853D01*
X006945Y009853D01*
X006978Y009875D01*
X006995Y009913D01*
X007071Y010204D01*
X007066Y010291D01*
X007016Y010319D01*
X006512Y010319D01*
X006359Y009655D02*
X006232Y009173D01*
X006764Y009173D01*
X006786Y009184D01*
X006825Y009228D01*
X006846Y009261D01*
X006929Y009584D01*
X006929Y009601D01*
X006901Y009639D01*
X006857Y009655D01*
X006359Y009655D01*
X007455Y009272D02*
X007565Y009760D01*
X007581Y009820D01*
X007647Y009951D01*
X007696Y010023D01*
X007784Y010078D01*
X007850Y010100D01*
X007883Y010105D01*
X008743Y010105D01*
X008804Y010083D01*
X008875Y010028D01*
X008897Y010006D01*
X008897Y009814D01*
X008804Y009436D01*
X007905Y009436D01*
X007861Y009250D01*
X007850Y009217D01*
X007855Y009179D01*
X007877Y009162D01*
X008667Y009162D01*
X008738Y009173D01*
X008661Y008987D01*
X007576Y008987D01*
X007532Y008998D01*
X007488Y009030D01*
X007460Y009069D01*
X007444Y009129D01*
X007444Y009184D01*
X007455Y009272D01*
X007954Y009612D02*
X007959Y009606D01*
X008431Y009606D01*
X008491Y009842D01*
X008491Y009913D01*
X008475Y009930D01*
X008453Y009935D01*
X008064Y009935D01*
X008031Y009919D01*
X008009Y009880D01*
X007992Y009836D01*
X007954Y009612D01*
X008077Y009970D02*
X008264Y009970D01*
X008171Y009970D02*
X008171Y010250D01*
X008077Y010157D01*
X008929Y010200D02*
X008975Y010247D01*
X009069Y010247D01*
X009115Y010200D01*
X009115Y010153D01*
X008929Y009966D01*
X009115Y009966D01*
X009105Y009951D02*
X009155Y010023D01*
X009242Y010078D01*
X009308Y010100D01*
X009341Y010105D01*
X010202Y010105D01*
X010262Y010083D01*
X010333Y010028D01*
X010355Y010006D01*
X010355Y009814D01*
X010262Y009436D01*
X009363Y009436D01*
X009319Y009250D01*
X009308Y009217D01*
X009313Y009179D01*
X009335Y009162D01*
X010125Y009162D01*
X010196Y009173D01*
X010119Y008987D01*
X009034Y008987D01*
X008990Y008998D01*
X008946Y009030D01*
X008919Y009069D01*
X008902Y009129D01*
X008902Y009184D01*
X008913Y009272D01*
X009023Y009760D01*
X009039Y009820D01*
X009105Y009951D01*
X009451Y009836D02*
X009412Y009612D01*
X009418Y009606D01*
X009889Y009606D01*
X009949Y009842D01*
X009949Y009913D01*
X009933Y009930D01*
X009911Y009935D01*
X009522Y009935D01*
X009489Y009919D01*
X009467Y009880D01*
X009451Y009836D01*
X009839Y010017D02*
X009885Y009970D01*
X009979Y009970D01*
X010025Y010017D01*
X010025Y010063D01*
X009979Y010110D01*
X009932Y010110D01*
X009979Y010110D02*
X010025Y010157D01*
X010025Y010204D01*
X009979Y010250D01*
X009885Y010250D01*
X009839Y010204D01*
X009511Y011690D02*
X009204Y011690D01*
X009511Y011997D01*
X009511Y012074D01*
X009434Y012150D01*
X009281Y012150D01*
X009204Y012074D01*
X009051Y012074D02*
X008974Y012150D01*
X008820Y012150D01*
X008744Y012074D01*
X008744Y011767D01*
X008820Y011690D01*
X008974Y011690D01*
X009051Y011767D01*
X008590Y011690D02*
X008437Y011690D01*
X008513Y011690D02*
X008513Y012150D01*
X008437Y012150D02*
X008590Y012150D01*
X010187Y012810D02*
X010373Y012810D01*
X010327Y012670D02*
X010327Y012950D01*
X010187Y012810D01*
X011686Y014420D02*
X011686Y014650D01*
X011763Y014727D01*
X011916Y014727D01*
X011993Y014650D01*
X011993Y014420D01*
X011993Y014573D02*
X012147Y014727D01*
X012070Y014880D02*
X012147Y014957D01*
X012147Y015111D01*
X012070Y015187D01*
X011993Y015187D01*
X011916Y015111D01*
X011916Y015034D01*
X011916Y015111D02*
X011840Y015187D01*
X011763Y015187D01*
X011686Y015111D01*
X011686Y014957D01*
X011763Y014880D01*
X011686Y014420D02*
X012147Y014420D01*
X013937Y015170D02*
X013937Y015630D01*
X014167Y015630D01*
X014244Y015554D01*
X014244Y015400D01*
X014167Y015323D01*
X013937Y015323D01*
X014090Y015323D02*
X014244Y015170D01*
X014397Y015170D02*
X014704Y015170D01*
X014857Y015170D02*
X015088Y015170D01*
X015164Y015247D01*
X015164Y015554D01*
X015088Y015630D01*
X014857Y015630D01*
X014857Y015170D01*
X014551Y015400D02*
X014397Y015400D01*
X014397Y015630D02*
X014397Y015170D01*
X014397Y015630D02*
X014704Y015630D01*
X009834Y008373D02*
X009780Y008395D01*
X009774Y008395D02*
X009659Y008334D01*
X009451Y008159D01*
X009303Y008011D01*
X009286Y007967D01*
X009259Y007835D01*
X009253Y007726D01*
X009308Y007622D01*
X009401Y007561D01*
X009527Y007561D01*
X009686Y007583D01*
X009790Y007649D01*
X009933Y007682D01*
X010010Y007759D01*
X010114Y007841D01*
X010174Y007950D01*
X010185Y008022D01*
X010158Y008126D01*
X010065Y008203D01*
X009955Y008279D01*
X009878Y008301D01*
X009873Y008329D01*
X009834Y008373D01*
X009856Y008208D02*
X009719Y008208D01*
X009659Y008164D01*
X009516Y008055D01*
X009423Y007929D01*
X009374Y007770D01*
X009368Y007715D01*
X009418Y007687D01*
X009549Y007693D01*
X009681Y007742D01*
X009818Y007786D01*
X009933Y007852D01*
X010043Y007929D01*
X010043Y008060D01*
X009922Y008186D01*
X009856Y008208D01*
X009133Y008252D02*
X009105Y008203D01*
X009105Y008159D01*
X009061Y008115D01*
X009001Y008077D01*
X008880Y008022D01*
X008765Y007950D01*
X008710Y007918D01*
X008793Y007835D01*
X008897Y007764D01*
X008974Y007704D01*
X009017Y007649D01*
X009039Y007594D01*
X009045Y007561D01*
X009028Y007528D01*
X009012Y007523D01*
X008968Y007556D01*
X008754Y007726D01*
X008551Y007863D01*
X008513Y007863D01*
X008502Y007824D01*
X008464Y007715D01*
X008431Y007616D01*
X008409Y007561D01*
X008409Y007528D01*
X008349Y007583D01*
X008343Y007665D01*
X008354Y007720D01*
X008403Y007896D01*
X008431Y007994D01*
X008491Y008131D01*
X008530Y008203D01*
X008546Y008241D01*
X008508Y008247D01*
X008464Y008214D01*
X008464Y008219D01*
X008447Y008241D01*
X008420Y008257D01*
X008409Y008279D01*
X008414Y008312D01*
X008447Y008345D01*
X008508Y008367D01*
X008579Y008395D01*
X008897Y008395D01*
X008963Y008378D01*
X009039Y008351D01*
X009083Y008323D01*
X009122Y008279D01*
X009133Y008252D01*
X008979Y008219D02*
X008941Y008208D01*
X008886Y008153D01*
X008809Y008109D01*
X008738Y008071D01*
X008656Y008055D01*
X008590Y008022D01*
X008694Y008208D01*
X008700Y008263D01*
X008897Y008263D01*
X008963Y008252D01*
X008979Y008219D01*
X008212Y008225D02*
X008212Y008203D01*
X008190Y008153D01*
X008157Y008115D01*
X008091Y008071D01*
X007850Y007950D01*
X007724Y007901D01*
X007625Y007879D01*
X007592Y007874D01*
X007554Y007874D01*
X007537Y007824D01*
X007504Y007726D01*
X007477Y007638D01*
X007455Y007600D01*
X007444Y007578D01*
X007422Y007567D01*
X007395Y007583D01*
X007373Y007616D01*
X007373Y007654D01*
X007384Y007698D01*
X007433Y007802D01*
X007466Y007879D01*
X007477Y007950D01*
X007493Y008016D01*
X007521Y008104D01*
X007548Y008170D01*
X007576Y008214D01*
X007532Y008214D01*
X007532Y008307D01*
X007581Y008307D01*
X007625Y008340D01*
X007669Y008384D01*
X007718Y008356D01*
X007916Y008356D01*
X008075Y008340D01*
X008184Y008274D01*
X008212Y008225D01*
X008085Y008208D02*
X008080Y008192D01*
X008053Y008170D01*
X007965Y008126D01*
X007894Y008077D01*
X007795Y008049D01*
X007724Y008022D01*
X007680Y008016D01*
X007614Y008016D01*
X007713Y008219D01*
X007724Y008247D01*
X008003Y008247D01*
X008069Y008219D01*
X008085Y008208D01*
X005115Y009966D02*
X004929Y009966D01*
X005115Y010153D01*
X005115Y010200D01*
X005069Y010247D01*
X004975Y010247D01*
X004929Y010200D01*
X004264Y009970D02*
X004077Y009970D01*
X004171Y009970D02*
X004171Y010250D01*
X004077Y010157D01*
X004437Y011690D02*
X004590Y011690D01*
X004513Y011690D02*
X004513Y012150D01*
X004437Y012150D02*
X004590Y012150D01*
X004744Y012074D02*
X004744Y011767D01*
X004820Y011690D01*
X004974Y011690D01*
X005051Y011767D01*
X005204Y011767D02*
X005281Y011690D01*
X005434Y011690D01*
X005511Y011767D01*
X005511Y011843D01*
X005434Y011920D01*
X005357Y011920D01*
X005434Y011920D02*
X005511Y011997D01*
X005511Y012074D01*
X005434Y012150D01*
X005281Y012150D01*
X005204Y012074D01*
X005051Y012074D02*
X004974Y012150D01*
X004820Y012150D01*
X004744Y012074D01*
X006187Y012810D02*
X006373Y012810D01*
X006327Y012670D02*
X006327Y012950D01*
X006187Y012810D01*
X005033Y013920D02*
X004726Y013920D01*
X004573Y013920D02*
X004419Y014073D01*
X004496Y014073D02*
X004266Y014073D01*
X004266Y013920D02*
X004266Y014380D01*
X004496Y014380D01*
X004573Y014304D01*
X004573Y014150D01*
X004496Y014073D01*
X004726Y014227D02*
X004880Y014380D01*
X004880Y013920D01*
X004164Y015170D02*
X003857Y015170D01*
X004011Y015170D02*
X004011Y015630D01*
X003857Y015477D01*
X003704Y015477D02*
X003704Y015554D01*
X003627Y015630D01*
X003397Y015630D01*
X003397Y015170D01*
X003627Y015170D01*
X003704Y015247D01*
X003704Y015323D01*
X003627Y015400D01*
X003397Y015400D01*
X003627Y015400D02*
X003704Y015477D01*
X003244Y015630D02*
X002937Y015170D01*
X003244Y015170D02*
X002937Y015630D01*
D18*
X014638Y014921D03*
X014638Y014379D03*
D19*
X014486Y014650D03*
M02*
