G75*
G70*
%OFA0B0*%
%FSLAX24Y24*%
%IPPOS*%
%LPD*%
%AMOC8*
5,1,8,0,0,1.08239X$1,22.5*
%
%ADD10C,0.0000*%
D10*
X000417Y000150D02*
X000417Y016150D01*
X016417Y016150D01*
X016417Y000150D01*
X000417Y000150D01*
X000641Y000650D02*
X000643Y000683D01*
X000649Y000715D01*
X000658Y000746D01*
X000671Y000776D01*
X000688Y000804D01*
X000708Y000830D01*
X000731Y000854D01*
X000756Y000874D01*
X000784Y000892D01*
X000813Y000906D01*
X000844Y000916D01*
X000876Y000923D01*
X000909Y000926D01*
X000942Y000925D01*
X000974Y000920D01*
X001005Y000911D01*
X001036Y000899D01*
X001064Y000883D01*
X001091Y000864D01*
X001115Y000842D01*
X001136Y000817D01*
X001155Y000790D01*
X001170Y000761D01*
X001181Y000731D01*
X001189Y000699D01*
X001193Y000666D01*
X001193Y000634D01*
X001189Y000601D01*
X001181Y000569D01*
X001170Y000539D01*
X001155Y000510D01*
X001136Y000483D01*
X001115Y000458D01*
X001091Y000436D01*
X001064Y000417D01*
X001036Y000401D01*
X001005Y000389D01*
X000974Y000380D01*
X000942Y000375D01*
X000909Y000374D01*
X000876Y000377D01*
X000844Y000384D01*
X000813Y000394D01*
X000784Y000408D01*
X000756Y000426D01*
X000731Y000446D01*
X000708Y000470D01*
X000688Y000496D01*
X000671Y000524D01*
X000658Y000554D01*
X000649Y000585D01*
X000643Y000617D01*
X000641Y000650D01*
X015641Y000650D02*
X015643Y000683D01*
X015649Y000715D01*
X015658Y000746D01*
X015671Y000776D01*
X015688Y000804D01*
X015708Y000830D01*
X015731Y000854D01*
X015756Y000874D01*
X015784Y000892D01*
X015813Y000906D01*
X015844Y000916D01*
X015876Y000923D01*
X015909Y000926D01*
X015942Y000925D01*
X015974Y000920D01*
X016005Y000911D01*
X016036Y000899D01*
X016064Y000883D01*
X016091Y000864D01*
X016115Y000842D01*
X016136Y000817D01*
X016155Y000790D01*
X016170Y000761D01*
X016181Y000731D01*
X016189Y000699D01*
X016193Y000666D01*
X016193Y000634D01*
X016189Y000601D01*
X016181Y000569D01*
X016170Y000539D01*
X016155Y000510D01*
X016136Y000483D01*
X016115Y000458D01*
X016091Y000436D01*
X016064Y000417D01*
X016036Y000401D01*
X016005Y000389D01*
X015974Y000380D01*
X015942Y000375D01*
X015909Y000374D01*
X015876Y000377D01*
X015844Y000384D01*
X015813Y000394D01*
X015784Y000408D01*
X015756Y000426D01*
X015731Y000446D01*
X015708Y000470D01*
X015688Y000496D01*
X015671Y000524D01*
X015658Y000554D01*
X015649Y000585D01*
X015643Y000617D01*
X015641Y000650D01*
X015641Y015650D02*
X015643Y015683D01*
X015649Y015715D01*
X015658Y015746D01*
X015671Y015776D01*
X015688Y015804D01*
X015708Y015830D01*
X015731Y015854D01*
X015756Y015874D01*
X015784Y015892D01*
X015813Y015906D01*
X015844Y015916D01*
X015876Y015923D01*
X015909Y015926D01*
X015942Y015925D01*
X015974Y015920D01*
X016005Y015911D01*
X016036Y015899D01*
X016064Y015883D01*
X016091Y015864D01*
X016115Y015842D01*
X016136Y015817D01*
X016155Y015790D01*
X016170Y015761D01*
X016181Y015731D01*
X016189Y015699D01*
X016193Y015666D01*
X016193Y015634D01*
X016189Y015601D01*
X016181Y015569D01*
X016170Y015539D01*
X016155Y015510D01*
X016136Y015483D01*
X016115Y015458D01*
X016091Y015436D01*
X016064Y015417D01*
X016036Y015401D01*
X016005Y015389D01*
X015974Y015380D01*
X015942Y015375D01*
X015909Y015374D01*
X015876Y015377D01*
X015844Y015384D01*
X015813Y015394D01*
X015784Y015408D01*
X015756Y015426D01*
X015731Y015446D01*
X015708Y015470D01*
X015688Y015496D01*
X015671Y015524D01*
X015658Y015554D01*
X015649Y015585D01*
X015643Y015617D01*
X015641Y015650D01*
X000641Y015650D02*
X000643Y015683D01*
X000649Y015715D01*
X000658Y015746D01*
X000671Y015776D01*
X000688Y015804D01*
X000708Y015830D01*
X000731Y015854D01*
X000756Y015874D01*
X000784Y015892D01*
X000813Y015906D01*
X000844Y015916D01*
X000876Y015923D01*
X000909Y015926D01*
X000942Y015925D01*
X000974Y015920D01*
X001005Y015911D01*
X001036Y015899D01*
X001064Y015883D01*
X001091Y015864D01*
X001115Y015842D01*
X001136Y015817D01*
X001155Y015790D01*
X001170Y015761D01*
X001181Y015731D01*
X001189Y015699D01*
X001193Y015666D01*
X001193Y015634D01*
X001189Y015601D01*
X001181Y015569D01*
X001170Y015539D01*
X001155Y015510D01*
X001136Y015483D01*
X001115Y015458D01*
X001091Y015436D01*
X001064Y015417D01*
X001036Y015401D01*
X001005Y015389D01*
X000974Y015380D01*
X000942Y015375D01*
X000909Y015374D01*
X000876Y015377D01*
X000844Y015384D01*
X000813Y015394D01*
X000784Y015408D01*
X000756Y015426D01*
X000731Y015446D01*
X000708Y015470D01*
X000688Y015496D01*
X000671Y015524D01*
X000658Y015554D01*
X000649Y015585D01*
X000643Y015617D01*
X000641Y015650D01*
M02*
