G75*
G70*
%OFA0B0*%
%FSLAX24Y24*%
%IPPOS*%
%LPD*%
%AMOC8*
5,1,8,0,0,1.08239X$1,22.5*
%
%ADD10C,0.0000*%
%ADD11C,0.0631*%
%ADD12C,0.0600*%
%ADD13OC8,0.0600*%
%ADD14C,0.0595*%
%ADD15C,0.0680*%
%ADD16OC8,0.0680*%
%ADD17OC8,0.0480*%
D10*
X000417Y000150D02*
X000417Y016150D01*
X016417Y016150D01*
X016417Y000150D01*
X000417Y000150D01*
X000641Y000650D02*
X000643Y000683D01*
X000649Y000715D01*
X000658Y000746D01*
X000671Y000776D01*
X000688Y000804D01*
X000708Y000830D01*
X000731Y000854D01*
X000756Y000874D01*
X000784Y000892D01*
X000813Y000906D01*
X000844Y000916D01*
X000876Y000923D01*
X000909Y000926D01*
X000942Y000925D01*
X000974Y000920D01*
X001005Y000911D01*
X001036Y000899D01*
X001064Y000883D01*
X001091Y000864D01*
X001115Y000842D01*
X001136Y000817D01*
X001155Y000790D01*
X001170Y000761D01*
X001181Y000731D01*
X001189Y000699D01*
X001193Y000666D01*
X001193Y000634D01*
X001189Y000601D01*
X001181Y000569D01*
X001170Y000539D01*
X001155Y000510D01*
X001136Y000483D01*
X001115Y000458D01*
X001091Y000436D01*
X001064Y000417D01*
X001036Y000401D01*
X001005Y000389D01*
X000974Y000380D01*
X000942Y000375D01*
X000909Y000374D01*
X000876Y000377D01*
X000844Y000384D01*
X000813Y000394D01*
X000784Y000408D01*
X000756Y000426D01*
X000731Y000446D01*
X000708Y000470D01*
X000688Y000496D01*
X000671Y000524D01*
X000658Y000554D01*
X000649Y000585D01*
X000643Y000617D01*
X000641Y000650D01*
X015641Y000650D02*
X015643Y000683D01*
X015649Y000715D01*
X015658Y000746D01*
X015671Y000776D01*
X015688Y000804D01*
X015708Y000830D01*
X015731Y000854D01*
X015756Y000874D01*
X015784Y000892D01*
X015813Y000906D01*
X015844Y000916D01*
X015876Y000923D01*
X015909Y000926D01*
X015942Y000925D01*
X015974Y000920D01*
X016005Y000911D01*
X016036Y000899D01*
X016064Y000883D01*
X016091Y000864D01*
X016115Y000842D01*
X016136Y000817D01*
X016155Y000790D01*
X016170Y000761D01*
X016181Y000731D01*
X016189Y000699D01*
X016193Y000666D01*
X016193Y000634D01*
X016189Y000601D01*
X016181Y000569D01*
X016170Y000539D01*
X016155Y000510D01*
X016136Y000483D01*
X016115Y000458D01*
X016091Y000436D01*
X016064Y000417D01*
X016036Y000401D01*
X016005Y000389D01*
X015974Y000380D01*
X015942Y000375D01*
X015909Y000374D01*
X015876Y000377D01*
X015844Y000384D01*
X015813Y000394D01*
X015784Y000408D01*
X015756Y000426D01*
X015731Y000446D01*
X015708Y000470D01*
X015688Y000496D01*
X015671Y000524D01*
X015658Y000554D01*
X015649Y000585D01*
X015643Y000617D01*
X015641Y000650D01*
X015641Y015650D02*
X015643Y015683D01*
X015649Y015715D01*
X015658Y015746D01*
X015671Y015776D01*
X015688Y015804D01*
X015708Y015830D01*
X015731Y015854D01*
X015756Y015874D01*
X015784Y015892D01*
X015813Y015906D01*
X015844Y015916D01*
X015876Y015923D01*
X015909Y015926D01*
X015942Y015925D01*
X015974Y015920D01*
X016005Y015911D01*
X016036Y015899D01*
X016064Y015883D01*
X016091Y015864D01*
X016115Y015842D01*
X016136Y015817D01*
X016155Y015790D01*
X016170Y015761D01*
X016181Y015731D01*
X016189Y015699D01*
X016193Y015666D01*
X016193Y015634D01*
X016189Y015601D01*
X016181Y015569D01*
X016170Y015539D01*
X016155Y015510D01*
X016136Y015483D01*
X016115Y015458D01*
X016091Y015436D01*
X016064Y015417D01*
X016036Y015401D01*
X016005Y015389D01*
X015974Y015380D01*
X015942Y015375D01*
X015909Y015374D01*
X015876Y015377D01*
X015844Y015384D01*
X015813Y015394D01*
X015784Y015408D01*
X015756Y015426D01*
X015731Y015446D01*
X015708Y015470D01*
X015688Y015496D01*
X015671Y015524D01*
X015658Y015554D01*
X015649Y015585D01*
X015643Y015617D01*
X015641Y015650D01*
X000641Y015650D02*
X000643Y015683D01*
X000649Y015715D01*
X000658Y015746D01*
X000671Y015776D01*
X000688Y015804D01*
X000708Y015830D01*
X000731Y015854D01*
X000756Y015874D01*
X000784Y015892D01*
X000813Y015906D01*
X000844Y015916D01*
X000876Y015923D01*
X000909Y015926D01*
X000942Y015925D01*
X000974Y015920D01*
X001005Y015911D01*
X001036Y015899D01*
X001064Y015883D01*
X001091Y015864D01*
X001115Y015842D01*
X001136Y015817D01*
X001155Y015790D01*
X001170Y015761D01*
X001181Y015731D01*
X001189Y015699D01*
X001193Y015666D01*
X001193Y015634D01*
X001189Y015601D01*
X001181Y015569D01*
X001170Y015539D01*
X001155Y015510D01*
X001136Y015483D01*
X001115Y015458D01*
X001091Y015436D01*
X001064Y015417D01*
X001036Y015401D01*
X001005Y015389D01*
X000974Y015380D01*
X000942Y015375D01*
X000909Y015374D01*
X000876Y015377D01*
X000844Y015384D01*
X000813Y015394D01*
X000784Y015408D01*
X000756Y015426D01*
X000731Y015446D01*
X000708Y015470D01*
X000688Y015496D01*
X000671Y015524D01*
X000658Y015554D01*
X000649Y015585D01*
X000643Y015617D01*
X000641Y015650D01*
D11*
X000917Y015650D03*
X015917Y015650D03*
X015917Y000650D03*
X000917Y000650D03*
D12*
X009467Y003650D03*
X011367Y003650D03*
D13*
X011917Y001650D03*
X009917Y001650D03*
X008917Y001650D03*
X006917Y001650D03*
D14*
X003086Y006107D03*
X003086Y006894D03*
X003086Y007681D03*
X003086Y008469D03*
X003086Y009256D03*
X003086Y010044D03*
X003086Y010831D03*
X003086Y011619D03*
X003086Y012406D03*
X003086Y013193D03*
X011747Y013193D03*
X011747Y012406D03*
X011747Y011619D03*
X011747Y010831D03*
X011747Y010044D03*
X011747Y009256D03*
X011747Y008469D03*
X011747Y007681D03*
X011747Y006894D03*
X011747Y006107D03*
D15*
X015117Y005650D02*
X015717Y005650D01*
X015717Y004650D02*
X015117Y004650D01*
X015117Y003650D02*
X015717Y003650D01*
X015717Y002650D02*
X015117Y002650D01*
X015117Y001650D02*
X015717Y001650D01*
X015717Y006650D02*
X015117Y006650D01*
X015117Y007650D02*
X015717Y007650D01*
X015717Y008650D02*
X015117Y008650D01*
X015117Y009650D02*
X015717Y009650D01*
X015717Y010650D02*
X015117Y010650D01*
X015117Y011650D02*
X015717Y011650D01*
X015717Y012650D02*
X015117Y012650D01*
X005917Y001450D02*
X005917Y000850D01*
X004917Y000850D02*
X004917Y001450D01*
X003917Y001450D02*
X003917Y000850D01*
X002917Y000850D02*
X002917Y001450D01*
X001717Y002150D02*
X001117Y002150D01*
X001117Y003150D02*
X001717Y003150D01*
X001717Y004150D02*
X001117Y004150D01*
X001117Y005150D02*
X001717Y005150D01*
X001717Y006150D02*
X001117Y006150D01*
X001117Y007150D02*
X001717Y007150D01*
X001717Y008150D02*
X001117Y008150D01*
X001117Y009150D02*
X001717Y009150D01*
X001717Y010150D02*
X001117Y010150D01*
X001117Y011150D02*
X001717Y011150D01*
X001717Y012150D02*
X001117Y012150D01*
X001117Y013150D02*
X001717Y013150D01*
D16*
X013417Y012650D03*
X014417Y012650D03*
X014417Y011650D03*
X014417Y010650D03*
X014417Y009650D03*
X014417Y008650D03*
X013417Y008650D03*
X013417Y009650D03*
X013417Y010650D03*
X013417Y011650D03*
X013417Y007650D03*
X014417Y007650D03*
X014417Y006650D03*
X014417Y005650D03*
X014417Y004650D03*
X014417Y003650D03*
X014417Y002650D03*
X014417Y001650D03*
X013417Y001650D03*
X013417Y002650D03*
X013417Y003650D03*
X013417Y004650D03*
X013417Y005650D03*
X013417Y006650D03*
D17*
X011937Y005130D03*
X011097Y005310D03*
X010617Y006030D03*
X009897Y005490D03*
X009417Y005490D03*
X008097Y006030D03*
X007377Y006750D03*
X007017Y005430D03*
X005697Y005190D03*
X004797Y005310D03*
X004797Y004830D03*
X004797Y004110D03*
X005217Y003510D03*
X004497Y002490D03*
X005397Y002370D03*
X005517Y001890D03*
X006417Y002430D03*
X007557Y002790D03*
X007917Y003150D03*
X007017Y003870D03*
X004797Y005790D03*
X003657Y006210D03*
X002517Y005550D03*
X002457Y004530D03*
X003537Y003870D03*
X003177Y003450D03*
X002457Y002250D03*
X004917Y007110D03*
X006477Y008790D03*
X005997Y008850D03*
X005637Y009690D03*
X005037Y011190D03*
X005457Y011730D03*
X003657Y010710D03*
X002277Y012510D03*
X002637Y012870D03*
X004617Y013950D03*
X010437Y011850D03*
X010797Y007530D03*
X012837Y004710D03*
X010557Y002430D03*
X010377Y001230D03*
X002517Y007710D03*
M02*
