G75*
G70*
%OFA0B0*%
%FSLAX24Y24*%
%IPPOS*%
%LPD*%
%AMOC8*
5,1,8,0,0,1.08239X$1,22.5*
%
%ADD10C,0.0000*%
%ADD11C,0.0060*%
%ADD12R,0.0500X0.0220*%
%ADD13R,0.0220X0.0500*%
%ADD14R,0.0480X0.0880*%
%ADD15R,0.1417X0.0866*%
%ADD16R,0.0512X0.0630*%
%ADD17R,0.0394X0.0433*%
%ADD18R,0.0433X0.0394*%
%ADD19R,0.0591X0.0591*%
D10*
X000417Y000150D02*
X000417Y016150D01*
X016417Y016150D01*
X016417Y000150D01*
X000417Y000150D01*
X000641Y000650D02*
X000643Y000683D01*
X000649Y000715D01*
X000658Y000746D01*
X000671Y000776D01*
X000688Y000804D01*
X000708Y000830D01*
X000731Y000854D01*
X000756Y000874D01*
X000784Y000892D01*
X000813Y000906D01*
X000844Y000916D01*
X000876Y000923D01*
X000909Y000926D01*
X000942Y000925D01*
X000974Y000920D01*
X001005Y000911D01*
X001036Y000899D01*
X001064Y000883D01*
X001091Y000864D01*
X001115Y000842D01*
X001136Y000817D01*
X001155Y000790D01*
X001170Y000761D01*
X001181Y000731D01*
X001189Y000699D01*
X001193Y000666D01*
X001193Y000634D01*
X001189Y000601D01*
X001181Y000569D01*
X001170Y000539D01*
X001155Y000510D01*
X001136Y000483D01*
X001115Y000458D01*
X001091Y000436D01*
X001064Y000417D01*
X001036Y000401D01*
X001005Y000389D01*
X000974Y000380D01*
X000942Y000375D01*
X000909Y000374D01*
X000876Y000377D01*
X000844Y000384D01*
X000813Y000394D01*
X000784Y000408D01*
X000756Y000426D01*
X000731Y000446D01*
X000708Y000470D01*
X000688Y000496D01*
X000671Y000524D01*
X000658Y000554D01*
X000649Y000585D01*
X000643Y000617D01*
X000641Y000650D01*
X015641Y000650D02*
X015643Y000683D01*
X015649Y000715D01*
X015658Y000746D01*
X015671Y000776D01*
X015688Y000804D01*
X015708Y000830D01*
X015731Y000854D01*
X015756Y000874D01*
X015784Y000892D01*
X015813Y000906D01*
X015844Y000916D01*
X015876Y000923D01*
X015909Y000926D01*
X015942Y000925D01*
X015974Y000920D01*
X016005Y000911D01*
X016036Y000899D01*
X016064Y000883D01*
X016091Y000864D01*
X016115Y000842D01*
X016136Y000817D01*
X016155Y000790D01*
X016170Y000761D01*
X016181Y000731D01*
X016189Y000699D01*
X016193Y000666D01*
X016193Y000634D01*
X016189Y000601D01*
X016181Y000569D01*
X016170Y000539D01*
X016155Y000510D01*
X016136Y000483D01*
X016115Y000458D01*
X016091Y000436D01*
X016064Y000417D01*
X016036Y000401D01*
X016005Y000389D01*
X015974Y000380D01*
X015942Y000375D01*
X015909Y000374D01*
X015876Y000377D01*
X015844Y000384D01*
X015813Y000394D01*
X015784Y000408D01*
X015756Y000426D01*
X015731Y000446D01*
X015708Y000470D01*
X015688Y000496D01*
X015671Y000524D01*
X015658Y000554D01*
X015649Y000585D01*
X015643Y000617D01*
X015641Y000650D01*
X015641Y015650D02*
X015643Y015683D01*
X015649Y015715D01*
X015658Y015746D01*
X015671Y015776D01*
X015688Y015804D01*
X015708Y015830D01*
X015731Y015854D01*
X015756Y015874D01*
X015784Y015892D01*
X015813Y015906D01*
X015844Y015916D01*
X015876Y015923D01*
X015909Y015926D01*
X015942Y015925D01*
X015974Y015920D01*
X016005Y015911D01*
X016036Y015899D01*
X016064Y015883D01*
X016091Y015864D01*
X016115Y015842D01*
X016136Y015817D01*
X016155Y015790D01*
X016170Y015761D01*
X016181Y015731D01*
X016189Y015699D01*
X016193Y015666D01*
X016193Y015634D01*
X016189Y015601D01*
X016181Y015569D01*
X016170Y015539D01*
X016155Y015510D01*
X016136Y015483D01*
X016115Y015458D01*
X016091Y015436D01*
X016064Y015417D01*
X016036Y015401D01*
X016005Y015389D01*
X015974Y015380D01*
X015942Y015375D01*
X015909Y015374D01*
X015876Y015377D01*
X015844Y015384D01*
X015813Y015394D01*
X015784Y015408D01*
X015756Y015426D01*
X015731Y015446D01*
X015708Y015470D01*
X015688Y015496D01*
X015671Y015524D01*
X015658Y015554D01*
X015649Y015585D01*
X015643Y015617D01*
X015641Y015650D01*
X000641Y015650D02*
X000643Y015683D01*
X000649Y015715D01*
X000658Y015746D01*
X000671Y015776D01*
X000688Y015804D01*
X000708Y015830D01*
X000731Y015854D01*
X000756Y015874D01*
X000784Y015892D01*
X000813Y015906D01*
X000844Y015916D01*
X000876Y015923D01*
X000909Y015926D01*
X000942Y015925D01*
X000974Y015920D01*
X001005Y015911D01*
X001036Y015899D01*
X001064Y015883D01*
X001091Y015864D01*
X001115Y015842D01*
X001136Y015817D01*
X001155Y015790D01*
X001170Y015761D01*
X001181Y015731D01*
X001189Y015699D01*
X001193Y015666D01*
X001193Y015634D01*
X001189Y015601D01*
X001181Y015569D01*
X001170Y015539D01*
X001155Y015510D01*
X001136Y015483D01*
X001115Y015458D01*
X001091Y015436D01*
X001064Y015417D01*
X001036Y015401D01*
X001005Y015389D01*
X000974Y015380D01*
X000942Y015375D01*
X000909Y015374D01*
X000876Y015377D01*
X000844Y015384D01*
X000813Y015394D01*
X000784Y015408D01*
X000756Y015426D01*
X000731Y015446D01*
X000708Y015470D01*
X000688Y015496D01*
X000671Y015524D01*
X000658Y015554D01*
X000649Y015585D01*
X000643Y015617D01*
X000641Y015650D01*
D11*
X001947Y015607D02*
X002053Y015500D01*
X002267Y015500D01*
X002374Y015394D01*
X002374Y015287D01*
X002267Y015180D01*
X002053Y015180D01*
X001947Y015287D01*
X001947Y015607D02*
X001947Y015714D01*
X002053Y015821D01*
X002267Y015821D01*
X002374Y015714D01*
X002591Y015500D02*
X002591Y015287D01*
X002698Y015180D01*
X002911Y015180D01*
X003018Y015287D01*
X003018Y015500D01*
X002911Y015607D01*
X002698Y015607D01*
X002591Y015500D01*
X003236Y015394D02*
X003449Y015607D01*
X003556Y015607D01*
X003236Y015607D02*
X003236Y015180D01*
X003773Y015287D02*
X003880Y015394D01*
X004200Y015394D01*
X004200Y015500D02*
X004200Y015180D01*
X003880Y015180D01*
X003773Y015287D01*
X003880Y015607D02*
X004093Y015607D01*
X004200Y015500D01*
X004417Y015500D02*
X004417Y015287D01*
X004524Y015180D01*
X004844Y015180D01*
X004844Y015821D01*
X004844Y015607D02*
X004524Y015607D01*
X004417Y015500D01*
X005062Y015607D02*
X005062Y015287D01*
X005169Y015180D01*
X005489Y015180D01*
X005489Y015607D01*
X005707Y015607D02*
X005813Y015607D01*
X005813Y015180D01*
X005707Y015180D02*
X005920Y015180D01*
X006136Y015180D02*
X006136Y015607D01*
X006457Y015607D01*
X006563Y015500D01*
X006563Y015180D01*
X006781Y015287D02*
X006781Y015500D01*
X006888Y015607D01*
X007101Y015607D01*
X007208Y015500D01*
X007208Y015287D01*
X007101Y015180D01*
X006888Y015180D01*
X006781Y015287D01*
X007425Y015073D02*
X007852Y015073D01*
X008070Y015180D02*
X008497Y015180D01*
X008714Y015180D02*
X008928Y015180D01*
X008821Y015180D02*
X008821Y015607D01*
X008714Y015607D01*
X008821Y015821D02*
X008821Y015927D01*
X009144Y015607D02*
X009358Y015607D01*
X009251Y015714D02*
X009251Y015287D01*
X009358Y015180D01*
X009574Y015287D02*
X009574Y015500D01*
X009681Y015607D01*
X009894Y015607D01*
X010001Y015500D01*
X010001Y015394D01*
X009574Y015394D01*
X009574Y015287D02*
X009681Y015180D01*
X009894Y015180D01*
X008070Y015180D02*
X008070Y015821D01*
X005813Y015821D02*
X005813Y015927D01*
D12*
G36*
X005862Y006589D02*
X005863Y006090D01*
X005644Y006089D01*
X005643Y006588D01*
X005862Y006589D01*
G37*
G36*
X006177Y006591D02*
X006178Y006092D01*
X005959Y006091D01*
X005958Y006590D01*
X006177Y006591D01*
G37*
G36*
X006492Y006592D02*
X006493Y006093D01*
X006274Y006092D01*
X006273Y006591D01*
X006492Y006592D01*
G37*
G36*
X006807Y006593D02*
X006808Y006094D01*
X006589Y006093D01*
X006588Y006592D01*
X006807Y006593D01*
G37*
G36*
X007122Y006594D02*
X007123Y006095D01*
X006904Y006094D01*
X006903Y006593D01*
X007122Y006594D01*
G37*
G36*
X005547Y006588D02*
X005548Y006089D01*
X005329Y006088D01*
X005328Y006587D01*
X005547Y006588D01*
G37*
G36*
X005232Y006587D02*
X005233Y006088D01*
X005014Y006087D01*
X005013Y006586D01*
X005232Y006587D01*
G37*
G36*
X004917Y006586D02*
X004918Y006087D01*
X004699Y006086D01*
X004698Y006585D01*
X004917Y006586D01*
G37*
G36*
X004929Y003206D02*
X004930Y002707D01*
X004711Y002706D01*
X004710Y003205D01*
X004929Y003206D01*
G37*
G36*
X005244Y003207D02*
X005245Y002708D01*
X005026Y002707D01*
X005025Y003206D01*
X005244Y003207D01*
G37*
G36*
X005559Y003208D02*
X005560Y002709D01*
X005341Y002708D01*
X005340Y003207D01*
X005559Y003208D01*
G37*
G36*
X005874Y003209D02*
X005875Y002710D01*
X005656Y002709D01*
X005655Y003208D01*
X005874Y003209D01*
G37*
G36*
X006189Y003211D02*
X006190Y002712D01*
X005971Y002711D01*
X005970Y003210D01*
X006189Y003211D01*
G37*
G36*
X006504Y003212D02*
X006505Y002713D01*
X006286Y002712D01*
X006285Y003211D01*
X006504Y003212D01*
G37*
G36*
X006819Y003213D02*
X006820Y002714D01*
X006601Y002713D01*
X006600Y003212D01*
X006819Y003213D01*
G37*
G36*
X007134Y003214D02*
X007135Y002715D01*
X006916Y002714D01*
X006915Y003213D01*
X007134Y003214D01*
G37*
D13*
G36*
X007860Y003664D02*
X007861Y003445D01*
X007362Y003444D01*
X007361Y003663D01*
X007860Y003664D01*
G37*
G36*
X007858Y003979D02*
X007859Y003760D01*
X007360Y003759D01*
X007359Y003978D01*
X007858Y003979D01*
G37*
G36*
X007857Y004293D02*
X007858Y004074D01*
X007359Y004073D01*
X007358Y004292D01*
X007857Y004293D01*
G37*
G36*
X007856Y004608D02*
X007857Y004389D01*
X007358Y004388D01*
X007357Y004607D01*
X007856Y004608D01*
G37*
G36*
X007855Y004923D02*
X007856Y004704D01*
X007357Y004703D01*
X007356Y004922D01*
X007855Y004923D01*
G37*
G36*
X007854Y005238D02*
X007855Y005019D01*
X007356Y005018D01*
X007355Y005237D01*
X007854Y005238D01*
G37*
G36*
X007853Y005553D02*
X007854Y005334D01*
X007355Y005333D01*
X007354Y005552D01*
X007853Y005553D01*
G37*
G36*
X007852Y005868D02*
X007853Y005649D01*
X007354Y005648D01*
X007353Y005867D01*
X007852Y005868D01*
G37*
G36*
X004472Y005856D02*
X004473Y005637D01*
X003974Y005636D01*
X003973Y005855D01*
X004472Y005856D01*
G37*
G36*
X004473Y005541D02*
X004474Y005322D01*
X003975Y005321D01*
X003974Y005540D01*
X004473Y005541D01*
G37*
G36*
X004474Y005227D02*
X004475Y005008D01*
X003976Y005007D01*
X003975Y005226D01*
X004474Y005227D01*
G37*
G36*
X004475Y004912D02*
X004476Y004693D01*
X003977Y004692D01*
X003976Y004911D01*
X004475Y004912D01*
G37*
G36*
X004476Y004597D02*
X004477Y004378D01*
X003978Y004377D01*
X003977Y004596D01*
X004476Y004597D01*
G37*
G36*
X004477Y004282D02*
X004478Y004063D01*
X003979Y004062D01*
X003978Y004281D01*
X004477Y004282D01*
G37*
G36*
X004478Y003967D02*
X004479Y003748D01*
X003980Y003747D01*
X003979Y003966D01*
X004478Y003967D01*
G37*
G36*
X004480Y003652D02*
X004481Y003433D01*
X003982Y003432D01*
X003981Y003651D01*
X004480Y003652D01*
G37*
D14*
X004507Y010430D03*
X005417Y010430D03*
X006327Y010430D03*
X008507Y010430D03*
X009417Y010430D03*
X010327Y010430D03*
D15*
X009417Y012870D03*
X005417Y012870D03*
D16*
X006023Y008150D03*
X006810Y008150D03*
X008023Y008150D03*
X008810Y008150D03*
X010023Y008150D03*
X010810Y008150D03*
X010810Y006650D03*
X010023Y006650D03*
X008810Y006650D03*
X008023Y006650D03*
X004810Y008150D03*
X004023Y008150D03*
D17*
X004582Y014150D03*
X005251Y014150D03*
D18*
X012417Y014315D03*
X012417Y014985D03*
D19*
X013728Y014650D03*
X015106Y014650D03*
M02*
