%
M48
M72
T01C0.0240
T02C0.0315
T03C0.0320
T04C0.0400
T05C0.0551
%
T01
X3297Y2490
X4377Y2370
X4857Y2370
X4257Y3150
X3657Y3870
X3057Y4470
X2397Y5130
X3537Y5490
X4377Y6450
X3477Y7290
X4377Y7410
X4797Y8850
X5037Y9690
X3597Y9690
X2697Y8070
X2517Y7170
X4797Y4770
X5397Y5790
X5997Y6990
X6357Y7410
X7497Y7110
X7437Y6330
X6957Y5370
X5997Y4290
X6057Y3510
X8157Y4770
X8877Y5130
X9477Y5010
X9957Y5010
X9477Y6270
X8757Y6030
X9957Y7530
X12237Y5190
X11757Y5010
X12417Y4650
X12897Y3990
X11697Y2430
X9297Y1230
X8937Y2190
X9417Y11190
X5397Y11190
X3657Y13230
T02
X3086Y13193
X3086Y12406
X3086Y11619
X3086Y10831
X3086Y10044
X3086Y9256
X3086Y8469
X3086Y7681
X3086Y6894
X3086Y6107
X11747Y6107
X11747Y6894
X11747Y7681
X11747Y8469
X11747Y9256
X11747Y10044
X11747Y10831
X11747Y11619
X11747Y12406
X11747Y13193
T03
X11367Y3650
X9467Y3650
X9917Y1650
X8917Y1650
X6917Y1650
X11917Y1650
T04
X13417Y1650
X14417Y1650
X15417Y1650
X15417Y2650
X15417Y3650
X15417Y4650
X15417Y5650
X15417Y6650
X15417Y7650
X14417Y7650
X14417Y6650
X14417Y5650
X14417Y4650
X14417Y3650
X14417Y2650
X13417Y2650
X13417Y3650
X13417Y4650
X13417Y5650
X13417Y6650
X13417Y7650
X13417Y8650
X14417Y8650
X15417Y8650
X15417Y9650
X15417Y10650
X15417Y11650
X15417Y12650
X14417Y12650
X14417Y11650
X14417Y10650
X14417Y9650
X13417Y9650
X13417Y10650
X13417Y11650
X13417Y12650
X5917Y1150
X4917Y1150
X3917Y1150
X2917Y1150
X1417Y2150
X1417Y3150
X1417Y4150
X1417Y5150
X1417Y6150
X1417Y7150
X1417Y8150
X1417Y9150
X1417Y10150
X1417Y11150
X1417Y12150
X1417Y13150
T05
X917Y650
X15917Y650
X15917Y15650
X917Y15650
M30
