G75*
G70*
%OFA0B0*%
%FSLAX24Y24*%
%IPPOS*%
%LPD*%
%AMOC8*
5,1,8,0,0,1.08239X$1,22.5*
%
%ADD10C,0.0000*%
D10*
X000150Y000150D02*
X000150Y023150D01*
X017650Y023150D01*
X017650Y000150D01*
X000150Y000150D01*
X000532Y000650D02*
X000534Y000671D01*
X000540Y000691D01*
X000549Y000711D01*
X000561Y000728D01*
X000576Y000742D01*
X000594Y000754D01*
X000614Y000762D01*
X000634Y000767D01*
X000655Y000768D01*
X000676Y000765D01*
X000696Y000759D01*
X000715Y000748D01*
X000732Y000735D01*
X000745Y000719D01*
X000756Y000701D01*
X000764Y000681D01*
X000768Y000661D01*
X000768Y000639D01*
X000764Y000619D01*
X000756Y000599D01*
X000745Y000581D01*
X000732Y000565D01*
X000715Y000552D01*
X000696Y000541D01*
X000676Y000535D01*
X000655Y000532D01*
X000634Y000533D01*
X000614Y000538D01*
X000594Y000546D01*
X000576Y000558D01*
X000561Y000572D01*
X000549Y000589D01*
X000540Y000609D01*
X000534Y000629D01*
X000532Y000650D01*
X017032Y000650D02*
X017034Y000671D01*
X017040Y000691D01*
X017049Y000711D01*
X017061Y000728D01*
X017076Y000742D01*
X017094Y000754D01*
X017114Y000762D01*
X017134Y000767D01*
X017155Y000768D01*
X017176Y000765D01*
X017196Y000759D01*
X017215Y000748D01*
X017232Y000735D01*
X017245Y000719D01*
X017256Y000701D01*
X017264Y000681D01*
X017268Y000661D01*
X017268Y000639D01*
X017264Y000619D01*
X017256Y000599D01*
X017245Y000581D01*
X017232Y000565D01*
X017215Y000552D01*
X017196Y000541D01*
X017176Y000535D01*
X017155Y000532D01*
X017134Y000533D01*
X017114Y000538D01*
X017094Y000546D01*
X017076Y000558D01*
X017061Y000572D01*
X017049Y000589D01*
X017040Y000609D01*
X017034Y000629D01*
X017032Y000650D01*
X017032Y022650D02*
X017034Y022671D01*
X017040Y022691D01*
X017049Y022711D01*
X017061Y022728D01*
X017076Y022742D01*
X017094Y022754D01*
X017114Y022762D01*
X017134Y022767D01*
X017155Y022768D01*
X017176Y022765D01*
X017196Y022759D01*
X017215Y022748D01*
X017232Y022735D01*
X017245Y022719D01*
X017256Y022701D01*
X017264Y022681D01*
X017268Y022661D01*
X017268Y022639D01*
X017264Y022619D01*
X017256Y022599D01*
X017245Y022581D01*
X017232Y022565D01*
X017215Y022552D01*
X017196Y022541D01*
X017176Y022535D01*
X017155Y022532D01*
X017134Y022533D01*
X017114Y022538D01*
X017094Y022546D01*
X017076Y022558D01*
X017061Y022572D01*
X017049Y022589D01*
X017040Y022609D01*
X017034Y022629D01*
X017032Y022650D01*
X000532Y022650D02*
X000534Y022671D01*
X000540Y022691D01*
X000549Y022711D01*
X000561Y022728D01*
X000576Y022742D01*
X000594Y022754D01*
X000614Y022762D01*
X000634Y022767D01*
X000655Y022768D01*
X000676Y022765D01*
X000696Y022759D01*
X000715Y022748D01*
X000732Y022735D01*
X000745Y022719D01*
X000756Y022701D01*
X000764Y022681D01*
X000768Y022661D01*
X000768Y022639D01*
X000764Y022619D01*
X000756Y022599D01*
X000745Y022581D01*
X000732Y022565D01*
X000715Y022552D01*
X000696Y022541D01*
X000676Y022535D01*
X000655Y022532D01*
X000634Y022533D01*
X000614Y022538D01*
X000594Y022546D01*
X000576Y022558D01*
X000561Y022572D01*
X000549Y022589D01*
X000540Y022609D01*
X000534Y022629D01*
X000532Y022650D01*
M02*
