%
M48
M72
T01C0.0236
T02C0.0240
T03C0.0315
T04C0.0320
T05C0.0400
%
T01
X650Y650
X17150Y650
X17150Y22650
X650Y22650
T02
X3210Y19170
X3210Y18690
X3270Y18210
X4410Y18810
X5130Y18990
X5130Y18330
X4770Y17190
X5490Y17010
X6270Y17310
X6990Y17070
X7410Y17430
X8310Y17070
X8730Y17610
X9810Y16650
X10290Y17610
X11010Y18930
X11430Y18630
X11430Y18150
X13350Y18630
X13770Y19170
X11070Y15390
X11430Y15030
X10710Y14070
X11430Y13890
X11070Y12930
X11010Y11430
X9570Y10110
X8910Y10290
X8910Y9270
X8190Y7710
X7770Y9210
X6870Y8010
X5670Y7050
X5670Y6570
X4650Y5610
X4650Y4770
X4290Y4050
X3690Y6030
X3030Y6150
X4530Y7650
X4290Y8370
X4830Y8970
X5430Y8730
X5670Y9750
X6810Y10410
X5670Y11970
X4770Y12510
X3270Y12030
X3630Y10710
X3990Y9990
X1170Y6570
X6750Y5250
X9030Y5730
X11250Y4110
X11430Y6030
X11370Y8970
X7110Y13530
X5970Y14730
X4770Y14790
X4350Y15270
X4710Y15930
X2550Y16230
X2310Y17130
X3870Y19830
X5250Y20250
X5250Y20730
X8190Y15570
X8430Y14550
X14670Y2010
T03
X12481Y11607
X12481Y12394
X12481Y13181
X12481Y13969
X12481Y14756
X12481Y15544
X12481Y16331
X12481Y17119
X12481Y17906
X12481Y18693
X3819Y18693
X3819Y17906
X3819Y17119
X3819Y16331
X3819Y15544
X3819Y14756
X3819Y13969
X3819Y13181
X3819Y12394
X3819Y11607
T04
X10150Y8600
X10150Y6700
X12150Y7650
X12150Y8650
X12150Y10650
X12150Y5650
T05
X14150Y5650
X14150Y6650
X14150Y7650
X14150Y8650
X14150Y9650
X14150Y10650
X14150Y11650
X14150Y12650
X14150Y13650
X14150Y14650
X14150Y15650
X14150Y16650
X14150Y17650
X14150Y18650
X14150Y19650
X14150Y20650
X15150Y20650
X15150Y19650
X15150Y18650
X15150Y17650
X15150Y16650
X15150Y15650
X15150Y14650
X15150Y13650
X15150Y12650
X15150Y11650
X15150Y10650
X15150Y9650
X15150Y8650
X15150Y7650
X15150Y6650
X15150Y5650
X15150Y4650
X15150Y3650
X15150Y2650
X15150Y1650
X16150Y1650
X16150Y2650
X16150Y3650
X16150Y4650
X16150Y5650
X16150Y6650
X16150Y7650
X16150Y8650
X16150Y9650
X16150Y10650
X16150Y11650
X16150Y12650
X16150Y13650
X16150Y14650
X16150Y15650
X16150Y16650
X16150Y17650
X16150Y18650
X16150Y19650
X16150Y20650
X14150Y4650
X14150Y3650
X14150Y2650
X14150Y1650
X10150Y1650
X10150Y2650
X10150Y3650
X10150Y4650
X9150Y4650
X9150Y3650
X9150Y2650
X9150Y1650
X6650Y1650
X6650Y2650
X6650Y3650
X6650Y4650
X5650Y4650
X5650Y3650
X5650Y2650
X5650Y1650
X2650Y1650
X2650Y2650
X2650Y3650
X2650Y4650
X1650Y4650
X1650Y3650
X1650Y2650
X1650Y1650
X1650Y7150
X1650Y8150
X1650Y9150
X1650Y10150
X1650Y11150
X1650Y12150
X1650Y14650
X1650Y15650
X1650Y16650
X1650Y17650
X1650Y18650
X1650Y19650
M30
