G75*
G70*
%OFA0B0*%
%FSLAX24Y24*%
%IPPOS*%
%LPD*%
%AMOC8*
5,1,8,0,0,1.08239X$1,22.5*
%
%ADD10C,0.0000*%
%ADD11C,0.0060*%
%ADD12C,0.0030*%
%ADD13C,0.0160*%
%ADD14C,0.0050*%
%ADD15C,0.0120*%
%ADD16C,0.0080*%
%ADD17C,0.0040*%
%ADD18R,0.0167X0.0128*%
%ADD19R,0.0138X0.0138*%
%ADD20R,0.0128X0.0167*%
D10*
X000150Y000150D02*
X000150Y023150D01*
X017650Y023150D01*
X017650Y000150D01*
X000150Y000150D01*
X000532Y000650D02*
X000534Y000671D01*
X000540Y000691D01*
X000549Y000711D01*
X000561Y000728D01*
X000576Y000742D01*
X000594Y000754D01*
X000614Y000762D01*
X000634Y000767D01*
X000655Y000768D01*
X000676Y000765D01*
X000696Y000759D01*
X000715Y000748D01*
X000732Y000735D01*
X000745Y000719D01*
X000756Y000701D01*
X000764Y000681D01*
X000768Y000661D01*
X000768Y000639D01*
X000764Y000619D01*
X000756Y000599D01*
X000745Y000581D01*
X000732Y000565D01*
X000715Y000552D01*
X000696Y000541D01*
X000676Y000535D01*
X000655Y000532D01*
X000634Y000533D01*
X000614Y000538D01*
X000594Y000546D01*
X000576Y000558D01*
X000561Y000572D01*
X000549Y000589D01*
X000540Y000609D01*
X000534Y000629D01*
X000532Y000650D01*
X017032Y000650D02*
X017034Y000671D01*
X017040Y000691D01*
X017049Y000711D01*
X017061Y000728D01*
X017076Y000742D01*
X017094Y000754D01*
X017114Y000762D01*
X017134Y000767D01*
X017155Y000768D01*
X017176Y000765D01*
X017196Y000759D01*
X017215Y000748D01*
X017232Y000735D01*
X017245Y000719D01*
X017256Y000701D01*
X017264Y000681D01*
X017268Y000661D01*
X017268Y000639D01*
X017264Y000619D01*
X017256Y000599D01*
X017245Y000581D01*
X017232Y000565D01*
X017215Y000552D01*
X017196Y000541D01*
X017176Y000535D01*
X017155Y000532D01*
X017134Y000533D01*
X017114Y000538D01*
X017094Y000546D01*
X017076Y000558D01*
X017061Y000572D01*
X017049Y000589D01*
X017040Y000609D01*
X017034Y000629D01*
X017032Y000650D01*
X017032Y022650D02*
X017034Y022671D01*
X017040Y022691D01*
X017049Y022711D01*
X017061Y022728D01*
X017076Y022742D01*
X017094Y022754D01*
X017114Y022762D01*
X017134Y022767D01*
X017155Y022768D01*
X017176Y022765D01*
X017196Y022759D01*
X017215Y022748D01*
X017232Y022735D01*
X017245Y022719D01*
X017256Y022701D01*
X017264Y022681D01*
X017268Y022661D01*
X017268Y022639D01*
X017264Y022619D01*
X017256Y022599D01*
X017245Y022581D01*
X017232Y022565D01*
X017215Y022552D01*
X017196Y022541D01*
X017176Y022535D01*
X017155Y022532D01*
X017134Y022533D01*
X017114Y022538D01*
X017094Y022546D01*
X017076Y022558D01*
X017061Y022572D01*
X017049Y022589D01*
X017040Y022609D01*
X017034Y022629D01*
X017032Y022650D01*
X000532Y022650D02*
X000534Y022671D01*
X000540Y022691D01*
X000549Y022711D01*
X000561Y022728D01*
X000576Y022742D01*
X000594Y022754D01*
X000614Y022762D01*
X000634Y022767D01*
X000655Y022768D01*
X000676Y022765D01*
X000696Y022759D01*
X000715Y022748D01*
X000732Y022735D01*
X000745Y022719D01*
X000756Y022701D01*
X000764Y022681D01*
X000768Y022661D01*
X000768Y022639D01*
X000764Y022619D01*
X000756Y022599D01*
X000745Y022581D01*
X000732Y022565D01*
X000715Y022552D01*
X000696Y022541D01*
X000676Y022535D01*
X000655Y022532D01*
X000634Y022533D01*
X000614Y022538D01*
X000594Y022546D01*
X000576Y022558D01*
X000561Y022572D01*
X000549Y022589D01*
X000540Y022609D01*
X000534Y022629D01*
X000532Y022650D01*
D11*
X001400Y020150D02*
X001150Y019900D01*
X001150Y019400D01*
X001400Y019150D01*
X001150Y018900D01*
X001150Y018400D01*
X001400Y018150D01*
X001900Y018150D01*
X002150Y018400D01*
X002150Y018900D01*
X001900Y019150D01*
X001400Y019150D01*
X001900Y019150D02*
X002150Y019400D01*
X002150Y019900D01*
X001900Y020150D01*
X001400Y020150D01*
X001400Y018150D02*
X001150Y017900D01*
X001150Y017400D01*
X001400Y017150D01*
X001150Y016900D01*
X001150Y016400D01*
X001400Y016150D01*
X001150Y015900D01*
X001150Y015400D01*
X001400Y015150D01*
X001150Y014900D01*
X001150Y014400D01*
X001400Y014150D01*
X001900Y014150D01*
X002150Y014400D01*
X002150Y014900D01*
X001900Y015150D01*
X001400Y015150D01*
X001900Y015150D02*
X002150Y015400D01*
X002150Y015900D01*
X001900Y016150D01*
X001400Y016150D01*
X001900Y016150D02*
X002150Y016400D01*
X002150Y016900D01*
X001900Y017150D01*
X001400Y017150D01*
X001900Y017150D02*
X002150Y017400D01*
X002150Y017900D01*
X001900Y018150D01*
X004850Y016279D02*
X011078Y016279D01*
X011078Y014191D02*
X004850Y014191D01*
X002150Y012400D02*
X002150Y011900D01*
X001900Y011650D01*
X002150Y011400D01*
X002150Y010900D01*
X001900Y010650D01*
X002150Y010400D01*
X002150Y009900D01*
X001900Y009650D01*
X002150Y009400D01*
X002150Y008900D01*
X001900Y008650D01*
X002150Y008400D01*
X002150Y007900D01*
X001900Y007650D01*
X002150Y007400D01*
X002150Y006900D01*
X001900Y006650D01*
X001400Y006650D01*
X001150Y006900D01*
X001150Y007400D01*
X001400Y007650D01*
X001150Y007900D01*
X001150Y008400D01*
X001400Y008650D01*
X001900Y008650D01*
X001400Y008650D02*
X001150Y008900D01*
X001150Y009400D01*
X001400Y009650D01*
X001150Y009900D01*
X001150Y010400D01*
X001400Y010650D01*
X001150Y010900D01*
X001150Y011400D01*
X001400Y011650D01*
X001150Y011900D01*
X001150Y012400D01*
X001400Y012650D01*
X001900Y012650D01*
X002150Y012400D01*
X001900Y011650D02*
X001400Y011650D01*
X001400Y010650D02*
X001900Y010650D01*
X001900Y009650D02*
X001400Y009650D01*
X001400Y007650D02*
X001900Y007650D01*
X003698Y008147D02*
X005647Y010101D01*
X007503Y008252D01*
X007503Y008054D01*
X005653Y006198D01*
X003698Y008147D01*
X002900Y005150D02*
X001400Y005150D01*
X001150Y004900D01*
X001150Y004400D01*
X001400Y004150D01*
X001150Y003900D01*
X001150Y003400D01*
X001400Y003150D01*
X001150Y002900D01*
X001150Y002400D01*
X001400Y002150D01*
X001150Y001900D01*
X001150Y001400D01*
X001400Y001150D01*
X002900Y001150D01*
X003150Y001400D01*
X003150Y001900D01*
X002900Y002150D01*
X003150Y002400D01*
X003150Y002900D01*
X002900Y003150D01*
X003150Y003400D01*
X003150Y003900D01*
X002900Y004150D01*
X003150Y004400D01*
X003150Y004900D01*
X002900Y005150D01*
X005150Y004900D02*
X005150Y004400D01*
X005400Y004150D01*
X005150Y003900D01*
X005150Y003400D01*
X005400Y003150D01*
X005150Y002900D01*
X005150Y002400D01*
X005400Y002150D01*
X005150Y001900D01*
X005150Y001400D01*
X005400Y001150D01*
X006900Y001150D01*
X007150Y001400D01*
X007150Y001900D01*
X006900Y002150D01*
X007150Y002400D01*
X007150Y002900D01*
X006900Y003150D01*
X007150Y003400D01*
X007150Y003900D01*
X006900Y004150D01*
X007150Y004400D01*
X007150Y004900D01*
X006900Y005150D01*
X005400Y005150D01*
X005150Y004900D01*
X007036Y008153D02*
X007038Y008176D01*
X007044Y008199D01*
X007053Y008220D01*
X007066Y008240D01*
X007082Y008257D01*
X007100Y008271D01*
X007120Y008282D01*
X007142Y008290D01*
X007165Y008294D01*
X007189Y008294D01*
X007212Y008290D01*
X007234Y008282D01*
X007254Y008271D01*
X007272Y008257D01*
X007288Y008240D01*
X007301Y008220D01*
X007310Y008199D01*
X007316Y008176D01*
X007318Y008153D01*
X007316Y008130D01*
X007310Y008107D01*
X007301Y008086D01*
X007288Y008066D01*
X007272Y008049D01*
X007254Y008035D01*
X007234Y008024D01*
X007212Y008016D01*
X007189Y008012D01*
X007165Y008012D01*
X007142Y008016D01*
X007120Y008024D01*
X007100Y008035D01*
X007082Y008049D01*
X007066Y008066D01*
X007053Y008086D01*
X007044Y008107D01*
X007038Y008130D01*
X007036Y008153D01*
X008900Y005150D02*
X008650Y004900D01*
X008650Y004400D01*
X008900Y004150D01*
X008650Y003900D01*
X008650Y003400D01*
X008900Y003150D01*
X008650Y002900D01*
X008650Y002400D01*
X008900Y002150D01*
X008650Y001900D01*
X008650Y001400D01*
X008900Y001150D01*
X010400Y001150D01*
X010650Y001400D01*
X010650Y001900D01*
X010400Y002150D01*
X010650Y002400D01*
X010650Y002900D01*
X010400Y003150D01*
X010650Y003400D01*
X010650Y003900D01*
X010400Y004150D01*
X010650Y004400D01*
X010650Y004900D01*
X010400Y005150D01*
X008900Y005150D01*
X009500Y006450D02*
X009500Y008850D01*
X009502Y008900D01*
X009508Y008949D01*
X009517Y008998D01*
X009530Y009046D01*
X009547Y009093D01*
X009567Y009138D01*
X009591Y009182D01*
X009618Y009224D01*
X009649Y009264D01*
X009682Y009301D01*
X009718Y009335D01*
X009756Y009367D01*
X009797Y009396D01*
X009839Y009421D01*
X009884Y009443D01*
X009930Y009462D01*
X009978Y009477D01*
X010026Y009488D01*
X010075Y009496D01*
X010125Y009500D01*
X010175Y009500D01*
X010225Y009496D01*
X010274Y009488D01*
X010322Y009477D01*
X010370Y009462D01*
X010416Y009443D01*
X010461Y009421D01*
X010503Y009396D01*
X010544Y009367D01*
X010582Y009335D01*
X010618Y009301D01*
X010651Y009264D01*
X010682Y009224D01*
X010709Y009182D01*
X010733Y009138D01*
X010753Y009093D01*
X010770Y009046D01*
X010783Y008998D01*
X010792Y008949D01*
X010798Y008900D01*
X010800Y008850D01*
X010800Y006450D01*
X010798Y006400D01*
X010792Y006351D01*
X010783Y006302D01*
X010770Y006254D01*
X010753Y006207D01*
X010733Y006162D01*
X010709Y006118D01*
X010682Y006076D01*
X010651Y006036D01*
X010618Y005999D01*
X010582Y005965D01*
X010544Y005933D01*
X010503Y005904D01*
X010461Y005879D01*
X010416Y005857D01*
X010370Y005838D01*
X010322Y005823D01*
X010274Y005812D01*
X010225Y005804D01*
X010175Y005800D01*
X010125Y005800D01*
X010075Y005804D01*
X010026Y005812D01*
X009978Y005823D01*
X009930Y005838D01*
X009884Y005857D01*
X009839Y005879D01*
X009797Y005904D01*
X009756Y005933D01*
X009718Y005965D01*
X009682Y005999D01*
X009649Y006036D01*
X009618Y006076D01*
X009591Y006118D01*
X009567Y006162D01*
X009547Y006207D01*
X009530Y006254D01*
X009517Y006302D01*
X009508Y006351D01*
X009502Y006400D01*
X009500Y006450D01*
X010150Y007150D02*
X010150Y007400D01*
X009850Y007400D01*
X009850Y007550D02*
X009850Y007750D01*
X010450Y007750D01*
X010450Y007550D01*
X009850Y007550D01*
X009850Y007900D02*
X010150Y007900D01*
X010150Y008150D01*
X010150Y007900D02*
X010450Y007900D01*
X010450Y007400D02*
X010150Y007400D01*
X011700Y007300D02*
X011700Y006000D01*
X011702Y005974D01*
X011707Y005948D01*
X011715Y005923D01*
X011727Y005900D01*
X011741Y005878D01*
X011759Y005859D01*
X011778Y005841D01*
X011800Y005827D01*
X011823Y005815D01*
X011848Y005807D01*
X011874Y005802D01*
X011900Y005800D01*
X012150Y006150D02*
X012150Y006520D01*
X012150Y006770D02*
X012150Y007150D01*
X012400Y007500D02*
X012426Y007498D01*
X012452Y007493D01*
X012477Y007485D01*
X012500Y007473D01*
X012522Y007459D01*
X012541Y007441D01*
X012559Y007422D01*
X012573Y007400D01*
X012585Y007377D01*
X012593Y007352D01*
X012598Y007326D01*
X012600Y007300D01*
X012600Y006000D01*
X012598Y005974D01*
X012593Y005948D01*
X012585Y005923D01*
X012573Y005900D01*
X012559Y005878D01*
X012541Y005859D01*
X012522Y005841D01*
X012500Y005827D01*
X012477Y005815D01*
X012452Y005807D01*
X012426Y005802D01*
X012400Y005800D01*
X011700Y007300D02*
X011702Y007326D01*
X011707Y007352D01*
X011715Y007377D01*
X011727Y007400D01*
X011741Y007422D01*
X011759Y007441D01*
X011778Y007459D01*
X011800Y007473D01*
X011823Y007485D01*
X011848Y007493D01*
X011874Y007498D01*
X011900Y007500D01*
X011900Y008800D02*
X011874Y008802D01*
X011848Y008807D01*
X011823Y008815D01*
X011800Y008827D01*
X011778Y008841D01*
X011759Y008859D01*
X011741Y008878D01*
X011727Y008900D01*
X011715Y008923D01*
X011707Y008948D01*
X011702Y008974D01*
X011700Y009000D01*
X011700Y010300D01*
X011702Y010326D01*
X011707Y010352D01*
X011715Y010377D01*
X011727Y010400D01*
X011741Y010422D01*
X011759Y010441D01*
X011778Y010459D01*
X011800Y010473D01*
X011823Y010485D01*
X011848Y010493D01*
X011874Y010498D01*
X011900Y010500D01*
X012150Y010150D02*
X012150Y009770D01*
X012150Y009520D02*
X012150Y009150D01*
X012400Y008800D02*
X012426Y008802D01*
X012452Y008807D01*
X012477Y008815D01*
X012500Y008827D01*
X012522Y008841D01*
X012541Y008859D01*
X012559Y008878D01*
X012573Y008900D01*
X012585Y008923D01*
X012593Y008948D01*
X012598Y008974D01*
X012600Y009000D01*
X012600Y010300D01*
X012598Y010326D01*
X012593Y010352D01*
X012585Y010377D01*
X012573Y010400D01*
X012559Y010422D01*
X012541Y010441D01*
X012522Y010459D01*
X012500Y010473D01*
X012477Y010485D01*
X012452Y010493D01*
X012426Y010498D01*
X012400Y010500D01*
D12*
X010886Y011195D02*
X010640Y011195D01*
X010825Y011380D01*
X010825Y011009D01*
X010518Y011071D02*
X010456Y011009D01*
X010333Y011009D01*
X010271Y011071D01*
X010271Y011318D01*
X010333Y011380D01*
X010456Y011380D01*
X010518Y011318D01*
X010507Y011421D02*
X010384Y011421D01*
X010322Y011482D01*
X010322Y011729D01*
X010384Y011791D01*
X010507Y011791D01*
X010569Y011729D01*
X010690Y011729D02*
X010752Y011791D01*
X010876Y011791D01*
X010937Y011729D01*
X010937Y011667D01*
X010876Y011606D01*
X010937Y011544D01*
X010937Y011482D01*
X010876Y011421D01*
X010752Y011421D01*
X010690Y011482D01*
X010569Y011482D02*
X010507Y011421D01*
X010814Y011606D02*
X010876Y011606D01*
X009379Y012884D02*
X009379Y013007D01*
X009318Y013069D01*
X009318Y013190D02*
X009379Y013190D01*
X009318Y013190D02*
X009071Y013437D01*
X009009Y013437D01*
X009009Y013190D01*
X009071Y013069D02*
X009009Y013007D01*
X009009Y012884D01*
X009071Y012822D01*
X009318Y012822D01*
X009379Y012884D01*
X007386Y014571D02*
X007325Y014509D01*
X007201Y014509D01*
X007140Y014571D01*
X007018Y014571D02*
X006956Y014509D01*
X006833Y014509D01*
X006771Y014571D01*
X006771Y014818D01*
X006833Y014880D01*
X006956Y014880D01*
X007018Y014818D01*
X007140Y014880D02*
X007140Y014695D01*
X007263Y014756D01*
X007325Y014756D01*
X007386Y014695D01*
X007386Y014571D01*
X007386Y014880D02*
X007140Y014880D01*
X005386Y014880D02*
X005263Y014818D01*
X005140Y014695D01*
X005325Y014695D01*
X005386Y014633D01*
X005386Y014571D01*
X005325Y014509D01*
X005201Y014509D01*
X005140Y014571D01*
X005140Y014695D01*
X005018Y014818D02*
X004956Y014880D01*
X004833Y014880D01*
X004771Y014818D01*
X004771Y014571D01*
X004833Y014509D01*
X004956Y014509D01*
X005018Y014571D01*
X005384Y018921D02*
X005322Y018982D01*
X005322Y019229D01*
X005384Y019291D01*
X005507Y019291D01*
X005569Y019229D01*
X005690Y019229D02*
X005690Y019167D01*
X005752Y019106D01*
X005690Y019044D01*
X005690Y018982D01*
X005752Y018921D01*
X005876Y018921D01*
X005937Y018982D01*
X005937Y019044D01*
X005876Y019106D01*
X005937Y019167D01*
X005937Y019229D01*
X005876Y019291D01*
X005752Y019291D01*
X005690Y019229D01*
X005752Y019106D02*
X005876Y019106D01*
X005569Y018982D02*
X005507Y018921D01*
X005384Y018921D01*
X007717Y007370D02*
X007923Y007165D01*
X007855Y007097D02*
X007991Y007234D01*
X007718Y007234D02*
X007717Y007370D01*
X007612Y007196D02*
X007544Y007196D01*
X007475Y007127D01*
X007475Y007059D01*
X007612Y006922D01*
X007681Y006923D01*
X007749Y006991D01*
X007749Y007059D01*
X007576Y006818D02*
X007508Y006749D01*
X007542Y006783D02*
X007337Y006988D01*
X007302Y006954D02*
X007371Y007023D01*
D13*
X009300Y006450D02*
X009300Y008850D01*
X009302Y008907D01*
X009308Y008963D01*
X009317Y009019D01*
X009330Y009075D01*
X009347Y009129D01*
X009367Y009182D01*
X009391Y009233D01*
X009419Y009283D01*
X009449Y009331D01*
X009483Y009377D01*
X009520Y009420D01*
X009559Y009461D01*
X009601Y009499D01*
X009646Y009534D01*
X009693Y009566D01*
X009742Y009595D01*
X009792Y009621D01*
X009845Y009643D01*
X009898Y009662D01*
X009953Y009677D01*
X010009Y009688D01*
X010065Y009696D01*
X010122Y009700D01*
X010178Y009700D01*
X010235Y009696D01*
X010291Y009688D01*
X010347Y009677D01*
X010402Y009662D01*
X010455Y009643D01*
X010508Y009621D01*
X010558Y009595D01*
X010607Y009566D01*
X010654Y009534D01*
X010699Y009499D01*
X010741Y009461D01*
X010780Y009420D01*
X010817Y009377D01*
X010851Y009331D01*
X010881Y009283D01*
X010909Y009233D01*
X010933Y009182D01*
X010953Y009129D01*
X010970Y009075D01*
X010983Y009019D01*
X010992Y008963D01*
X010998Y008907D01*
X011000Y008850D01*
X011000Y006450D01*
X010998Y006393D01*
X010992Y006337D01*
X010983Y006281D01*
X010970Y006225D01*
X010953Y006171D01*
X010933Y006118D01*
X010909Y006067D01*
X010881Y006017D01*
X010851Y005969D01*
X010817Y005923D01*
X010780Y005880D01*
X010741Y005839D01*
X010699Y005801D01*
X010654Y005766D01*
X010607Y005734D01*
X010558Y005705D01*
X010508Y005679D01*
X010455Y005657D01*
X010402Y005638D01*
X010347Y005623D01*
X010291Y005612D01*
X010235Y005604D01*
X010178Y005600D01*
X010122Y005600D01*
X010065Y005604D01*
X010009Y005612D01*
X009953Y005623D01*
X009898Y005638D01*
X009845Y005657D01*
X009792Y005679D01*
X009742Y005705D01*
X009693Y005734D01*
X009646Y005766D01*
X009601Y005801D01*
X009559Y005839D01*
X009520Y005880D01*
X009483Y005923D01*
X009449Y005969D01*
X009419Y006017D01*
X009391Y006067D01*
X009367Y006118D01*
X009347Y006171D01*
X009330Y006225D01*
X009317Y006281D01*
X009308Y006337D01*
X009302Y006393D01*
X009300Y006450D01*
D14*
X008475Y004715D02*
X008475Y004415D01*
X008475Y004565D02*
X008025Y004565D01*
X008175Y004415D01*
X007775Y004479D02*
X007775Y004329D01*
X007700Y004254D01*
X007400Y004254D01*
X007325Y004329D01*
X007325Y004479D01*
X007400Y004554D01*
X007400Y004715D02*
X007700Y004715D01*
X007775Y004790D01*
X007775Y004940D01*
X007700Y005015D01*
X007400Y005015D02*
X007325Y004940D01*
X007325Y004790D01*
X007400Y004715D01*
X007700Y004554D02*
X007775Y004479D01*
X007775Y004094D02*
X007475Y004094D01*
X007325Y003944D01*
X007475Y003794D01*
X007775Y003794D01*
X007550Y003794D02*
X007550Y004094D01*
X007550Y003634D02*
X007550Y003333D01*
X007700Y003173D02*
X007775Y003098D01*
X007775Y002948D01*
X007700Y002873D01*
X007400Y002873D01*
X007325Y002948D01*
X007325Y003098D01*
X007400Y003173D01*
X007400Y002713D02*
X007325Y002638D01*
X007325Y002488D01*
X007400Y002413D01*
X007325Y002256D02*
X007325Y002106D01*
X007325Y002181D02*
X007775Y002181D01*
X007775Y002106D02*
X007775Y002256D01*
X007775Y002413D02*
X007475Y002713D01*
X007400Y002713D01*
X007775Y002713D02*
X007775Y002413D01*
X007700Y001515D02*
X007625Y001515D01*
X007550Y001440D01*
X007550Y001290D01*
X007475Y001215D01*
X007400Y001215D01*
X007325Y001290D01*
X007325Y001440D01*
X007400Y001515D01*
X007475Y001515D01*
X007550Y001440D01*
X007550Y001290D02*
X007625Y001215D01*
X007700Y001215D01*
X007775Y001290D01*
X007775Y001440D01*
X007700Y001515D01*
X004975Y004415D02*
X004975Y004715D01*
X004975Y004565D02*
X004525Y004565D01*
X004675Y004415D01*
X003775Y004554D02*
X003325Y004554D01*
X003475Y004715D02*
X003325Y004865D01*
X003475Y005015D01*
X003775Y005015D01*
X003775Y004715D02*
X003475Y004715D01*
X003550Y004715D02*
X003550Y005015D01*
X003775Y004554D02*
X003325Y004254D01*
X003775Y004254D01*
X003775Y004094D02*
X003475Y004094D01*
X003325Y003944D01*
X003475Y003794D01*
X003775Y003794D01*
X003550Y003794D02*
X003550Y004094D01*
X003550Y003634D02*
X003550Y003333D01*
X003700Y003173D02*
X003400Y003173D01*
X003325Y003098D01*
X003325Y002948D01*
X003400Y002873D01*
X003700Y002873D01*
X003775Y002948D01*
X003775Y003098D01*
X003700Y003173D01*
X003775Y002713D02*
X003625Y002563D01*
X003625Y002638D02*
X003625Y002413D01*
X003775Y002413D02*
X003325Y002413D01*
X003325Y002638D01*
X003400Y002713D01*
X003550Y002713D01*
X003625Y002638D01*
X003775Y002256D02*
X003775Y002106D01*
X003775Y002181D02*
X003325Y002181D01*
X003325Y002106D02*
X003325Y002256D01*
X003475Y001946D02*
X003775Y001946D01*
X003775Y001645D02*
X003475Y001645D01*
X003325Y001795D01*
X003475Y001946D01*
X003550Y001946D02*
X003550Y001645D01*
X003625Y001515D02*
X003550Y001440D01*
X003550Y001290D01*
X003475Y001215D01*
X003400Y001215D01*
X003325Y001290D01*
X003325Y001440D01*
X003400Y001515D01*
X003475Y001515D01*
X003550Y001440D01*
X003625Y001515D02*
X003700Y001515D01*
X003775Y001440D01*
X003775Y001290D01*
X003700Y001215D01*
X003625Y001215D01*
X003550Y001290D01*
X003700Y001185D02*
X003775Y001260D01*
X003775Y001335D01*
X003700Y001410D01*
X003325Y001410D01*
X003325Y001335D02*
X003325Y001485D01*
X000975Y004415D02*
X000975Y004715D01*
X000975Y004565D02*
X000525Y004565D01*
X000675Y004415D01*
X002455Y007645D02*
X002830Y007645D01*
X002905Y007720D01*
X002905Y007870D01*
X002830Y007945D01*
X002455Y007945D01*
X002530Y008105D02*
X002455Y008180D01*
X002455Y008331D01*
X002530Y008406D01*
X002680Y008331D02*
X002755Y008406D01*
X002830Y008406D01*
X002905Y008331D01*
X002905Y008180D01*
X002830Y008105D01*
X002680Y008180D02*
X002680Y008331D01*
X002680Y008180D02*
X002605Y008105D01*
X002530Y008105D01*
X002455Y008566D02*
X002455Y008791D01*
X002530Y008866D01*
X002605Y008866D01*
X002680Y008791D01*
X002680Y008566D01*
X002680Y008791D02*
X002755Y008866D01*
X002830Y008866D01*
X002905Y008791D01*
X002905Y008566D01*
X002455Y008566D01*
X002395Y012289D02*
X002395Y012514D01*
X002470Y012589D01*
X002770Y012589D01*
X002845Y012514D01*
X002845Y012289D01*
X002395Y012289D01*
X002395Y012750D02*
X002395Y012900D01*
X002395Y012825D02*
X002845Y012825D01*
X002845Y012750D02*
X002845Y012900D01*
X002770Y013056D02*
X002845Y013132D01*
X002845Y013282D01*
X002770Y013357D01*
X002620Y013357D01*
X002620Y013207D01*
X002470Y013357D02*
X002395Y013282D01*
X002395Y013132D01*
X002470Y013056D01*
X002770Y013056D01*
X002845Y013517D02*
X002845Y013667D01*
X002845Y013592D02*
X002395Y013592D01*
X002395Y013517D02*
X002395Y013667D01*
X002395Y013824D02*
X002395Y014124D01*
X002395Y013974D02*
X002845Y013974D01*
X002845Y014284D02*
X002545Y014284D01*
X002395Y014434D01*
X002545Y014584D01*
X002845Y014584D01*
X002845Y014745D02*
X002845Y015045D01*
X002845Y014745D02*
X002395Y014745D01*
X002620Y014584D02*
X002620Y014284D01*
X010900Y005015D02*
X010825Y004940D01*
X010825Y004715D01*
X011275Y004715D01*
X011125Y004715D02*
X011125Y004940D01*
X011050Y005015D01*
X010900Y005015D01*
X010825Y004554D02*
X011200Y004554D01*
X011275Y004479D01*
X011275Y004329D01*
X011200Y004254D01*
X010825Y004254D01*
X010900Y004094D02*
X010825Y004019D01*
X010825Y003869D01*
X010900Y003794D01*
X010975Y003794D01*
X011050Y003869D01*
X011050Y004019D01*
X011125Y004094D01*
X011200Y004094D01*
X011275Y004019D01*
X011275Y003869D01*
X011200Y003794D01*
X011050Y003634D02*
X011050Y003333D01*
X011125Y003173D02*
X011200Y003173D01*
X011275Y003098D01*
X011275Y002948D01*
X011200Y002873D01*
X011050Y002948D02*
X011050Y003098D01*
X011125Y003173D01*
X010900Y003173D02*
X010825Y003098D01*
X010825Y002948D01*
X010900Y002873D01*
X010975Y002873D01*
X011050Y002948D01*
X011050Y002713D02*
X010900Y002713D01*
X010825Y002638D01*
X010825Y002413D01*
X011275Y002413D01*
X011125Y002413D02*
X011125Y002638D01*
X011050Y002713D01*
X011050Y002253D02*
X011050Y002102D01*
X011050Y002253D02*
X011200Y002253D01*
X011275Y002177D01*
X011275Y002027D01*
X011200Y001952D01*
X010900Y001952D01*
X010825Y002027D01*
X010825Y002177D01*
X010900Y002253D01*
X010900Y001515D02*
X010825Y001440D01*
X010825Y001290D01*
X010900Y001215D01*
X010975Y001215D01*
X011050Y001290D01*
X011050Y001440D01*
X011125Y001515D01*
X011200Y001515D01*
X011275Y001440D01*
X011275Y001290D01*
X011200Y001215D01*
X011125Y001215D01*
X011050Y001290D01*
X011050Y001440D02*
X010975Y001515D01*
X010900Y001515D01*
X012800Y006604D02*
X013100Y006604D01*
X013175Y006679D01*
X013175Y006829D01*
X013100Y006904D01*
X013175Y007065D02*
X012875Y007365D01*
X012800Y007365D01*
X012725Y007290D01*
X012725Y007140D01*
X012800Y007065D01*
X012800Y006904D02*
X012725Y006829D01*
X012725Y006679D01*
X012800Y006604D01*
X013175Y007065D02*
X013175Y007365D01*
X011675Y008829D02*
X011600Y008754D01*
X011300Y008754D01*
X011225Y008829D01*
X011225Y008979D01*
X011300Y009054D01*
X011600Y009054D01*
X011675Y008979D01*
X011675Y008829D01*
X011525Y008904D02*
X011675Y009054D01*
X011675Y009215D02*
X011675Y009515D01*
X011675Y009365D02*
X011225Y009365D01*
X011375Y009215D01*
X012725Y009679D02*
X012800Y009604D01*
X013100Y009604D01*
X013175Y009679D01*
X013175Y009829D01*
X013100Y009904D01*
X013175Y010065D02*
X013175Y010365D01*
X013175Y010215D02*
X012725Y010215D01*
X012875Y010065D01*
X012800Y009904D02*
X012725Y009829D01*
X012725Y009679D01*
D15*
X012450Y009770D02*
X012150Y009770D01*
X011850Y009770D01*
X011850Y009520D02*
X012150Y009520D01*
X012450Y009520D01*
X012450Y006770D02*
X012150Y006770D01*
X011850Y006770D01*
X011850Y006520D02*
X012150Y006520D01*
X012450Y006520D01*
D16*
X012914Y008337D02*
X003386Y008337D01*
X003386Y018733D01*
X005876Y021223D01*
X010424Y021223D01*
X012914Y018733D01*
X012914Y008337D01*
X010940Y016450D02*
X008360Y016450D01*
X008360Y017850D01*
X010940Y017850D01*
X010940Y016450D01*
X007440Y016450D02*
X004860Y016450D01*
X004860Y017850D01*
X007440Y017850D01*
X007440Y016450D01*
D17*
X007245Y015819D02*
X007130Y015353D01*
X007679Y015353D01*
X007711Y015375D01*
X007728Y015413D01*
X007805Y015704D01*
X007799Y015791D01*
X007750Y015819D01*
X007245Y015819D01*
X006829Y015896D02*
X006807Y015797D01*
X006664Y015216D01*
X006588Y014903D01*
X006522Y014657D01*
X006478Y014525D01*
X006445Y014492D01*
X006429Y014492D01*
X006341Y014613D01*
X006034Y015369D01*
X006549Y015852D01*
X006626Y015918D01*
X006681Y015956D01*
X006752Y016005D01*
X006407Y016005D01*
X006401Y015983D01*
X006385Y015950D01*
X006363Y015923D01*
X005974Y015539D01*
X005836Y015885D01*
X005836Y015912D01*
X005820Y015939D01*
X005836Y015972D01*
X005836Y016005D01*
X005233Y016005D01*
X005294Y015945D01*
X005606Y015183D01*
X004970Y014585D01*
X004833Y014487D01*
X005157Y014487D01*
X005206Y014574D01*
X005661Y015018D01*
X005836Y014585D01*
X005836Y014547D01*
X005804Y014487D01*
X007706Y014487D01*
X007810Y014520D01*
X007876Y014552D01*
X007958Y014646D01*
X007969Y014711D01*
X008007Y014772D01*
X008068Y015013D01*
X008068Y015161D01*
X008062Y015172D01*
X007947Y015227D01*
X007788Y015249D01*
X007898Y015249D01*
X007986Y015271D01*
X008051Y015298D01*
X008134Y015380D01*
X008155Y015435D01*
X008221Y015709D01*
X008238Y015753D01*
X008238Y015846D01*
X008216Y015901D01*
X008183Y015961D01*
X008139Y015989D01*
X008073Y016005D01*
X006829Y016005D01*
X006829Y015896D01*
X006712Y015750D02*
X006759Y015704D01*
X006759Y015657D01*
X006712Y015610D01*
X006759Y015563D01*
X006759Y015517D01*
X006712Y015470D01*
X006619Y015470D01*
X006572Y015517D01*
X006665Y015610D02*
X006712Y015610D01*
X006712Y015750D02*
X006619Y015750D01*
X006572Y015704D01*
X007092Y015155D02*
X006966Y014673D01*
X007498Y014673D01*
X007519Y014684D01*
X007558Y014728D01*
X007580Y014761D01*
X007662Y015084D01*
X007662Y015101D01*
X007635Y015139D01*
X007591Y015155D01*
X007092Y015155D01*
X008188Y014772D02*
X008177Y014684D01*
X008177Y014629D01*
X008194Y014569D01*
X008221Y014530D01*
X008265Y014498D01*
X008309Y014487D01*
X009394Y014487D01*
X009471Y014673D01*
X009400Y014662D01*
X008610Y014662D01*
X008589Y014679D01*
X008583Y014717D01*
X008594Y014750D01*
X008638Y014936D01*
X009537Y014936D01*
X009630Y015314D01*
X009630Y015506D01*
X009608Y015528D01*
X009537Y015583D01*
X009477Y015605D01*
X008616Y015605D01*
X008583Y015600D01*
X008517Y015578D01*
X008430Y015523D01*
X008380Y015451D01*
X008314Y015320D01*
X008298Y015260D01*
X008188Y014772D01*
X008687Y015112D02*
X008693Y015106D01*
X009164Y015106D01*
X009224Y015342D01*
X009224Y015413D01*
X009208Y015430D01*
X009186Y015435D01*
X008797Y015435D01*
X008764Y015419D01*
X008742Y015380D01*
X008726Y015336D01*
X008687Y015112D01*
X008498Y015470D02*
X008311Y015470D01*
X008404Y015470D02*
X008404Y015750D01*
X008311Y015657D01*
X009162Y015700D02*
X009209Y015747D01*
X009302Y015747D01*
X009349Y015700D01*
X009349Y015653D01*
X009162Y015466D01*
X009349Y015466D01*
X009773Y015320D02*
X009839Y015451D01*
X009888Y015523D01*
X009976Y015578D01*
X010041Y015600D01*
X010074Y015605D01*
X010935Y015605D01*
X010995Y015583D01*
X011067Y015528D01*
X011088Y015506D01*
X011088Y015314D01*
X010995Y014936D01*
X010096Y014936D01*
X010052Y014750D01*
X010041Y014717D01*
X010047Y014679D01*
X010069Y014662D01*
X010858Y014662D01*
X010929Y014673D01*
X010853Y014487D01*
X009767Y014487D01*
X009723Y014498D01*
X009679Y014530D01*
X009652Y014569D01*
X009636Y014629D01*
X009636Y014684D01*
X009647Y014772D01*
X009756Y015260D01*
X009773Y015320D01*
X010072Y015517D02*
X010119Y015470D01*
X010212Y015470D01*
X010259Y015517D01*
X010259Y015563D01*
X010212Y015610D01*
X010165Y015610D01*
X010212Y015610D02*
X010259Y015657D01*
X010259Y015704D01*
X010212Y015750D01*
X010119Y015750D01*
X010072Y015704D01*
X010222Y015419D02*
X010255Y015435D01*
X010644Y015435D01*
X010666Y015430D01*
X010683Y015413D01*
X010683Y015342D01*
X010622Y015106D01*
X010151Y015106D01*
X010146Y015112D01*
X010184Y015336D01*
X010200Y015380D01*
X010222Y015419D01*
X010507Y013895D02*
X010392Y013834D01*
X010184Y013659D01*
X010036Y013511D01*
X010019Y013467D01*
X009992Y013335D01*
X009987Y013226D01*
X010041Y013122D01*
X010135Y013061D01*
X010261Y013061D01*
X010420Y013083D01*
X010524Y013149D01*
X010666Y013182D01*
X010743Y013259D01*
X010847Y013341D01*
X010908Y013450D01*
X010919Y013522D01*
X010891Y013626D01*
X010798Y013703D01*
X010688Y013779D01*
X010611Y013801D01*
X010606Y013829D01*
X010568Y013873D01*
X010513Y013895D01*
X010453Y013708D02*
X010392Y013664D01*
X010250Y013555D01*
X010156Y013429D01*
X010107Y013270D01*
X010102Y013215D01*
X010151Y013187D01*
X010283Y013193D01*
X010414Y013242D01*
X010551Y013286D01*
X010666Y013352D01*
X010776Y013429D01*
X010776Y013560D01*
X010655Y013686D01*
X010590Y013708D01*
X010453Y013708D01*
X009866Y013752D02*
X009839Y013703D01*
X009839Y013659D01*
X009795Y013615D01*
X009734Y013577D01*
X009614Y013522D01*
X009499Y013450D01*
X009444Y013418D01*
X009526Y013335D01*
X009630Y013264D01*
X009707Y013204D01*
X009751Y013149D01*
X009773Y013094D01*
X009778Y013061D01*
X009762Y013028D01*
X009745Y013023D01*
X009701Y013056D01*
X009488Y013226D01*
X009285Y013363D01*
X009246Y013363D01*
X009235Y013324D01*
X009197Y013215D01*
X009164Y013116D01*
X009142Y013061D01*
X009142Y013028D01*
X009082Y013083D01*
X009076Y013165D01*
X009087Y013220D01*
X009137Y013396D01*
X009164Y013494D01*
X009224Y013631D01*
X009263Y013703D01*
X009279Y013741D01*
X009241Y013747D01*
X009197Y013714D01*
X009197Y013719D01*
X009181Y013741D01*
X009153Y013757D01*
X009142Y013779D01*
X009148Y013812D01*
X009181Y013845D01*
X009241Y013867D01*
X009312Y013895D01*
X009630Y013895D01*
X009696Y013878D01*
X009773Y013851D01*
X009817Y013823D01*
X009855Y013779D01*
X009866Y013752D01*
X009712Y013719D02*
X009674Y013708D01*
X009619Y013653D01*
X009542Y013609D01*
X009471Y013571D01*
X009389Y013555D01*
X009323Y013522D01*
X009427Y013708D01*
X009433Y013763D01*
X009630Y013763D01*
X009696Y013752D01*
X009712Y013719D01*
X008945Y013725D02*
X008945Y013703D01*
X008923Y013653D01*
X008890Y013615D01*
X008824Y013571D01*
X008583Y013450D01*
X008457Y013401D01*
X008358Y013379D01*
X008325Y013374D01*
X008287Y013374D01*
X008271Y013324D01*
X008238Y013226D01*
X008210Y013138D01*
X008188Y013100D01*
X008177Y013078D01*
X008155Y013067D01*
X008128Y013083D01*
X008106Y013116D01*
X008106Y013154D01*
X008117Y013198D01*
X008166Y013302D01*
X008199Y013379D01*
X008210Y013450D01*
X008227Y013516D01*
X008254Y013604D01*
X008282Y013670D01*
X008309Y013714D01*
X008265Y013714D01*
X008265Y013807D01*
X008314Y013807D01*
X008358Y013840D01*
X008402Y013884D01*
X008451Y013856D01*
X008649Y013856D01*
X008808Y013840D01*
X008917Y013774D01*
X008945Y013725D01*
X008819Y013708D02*
X008813Y013692D01*
X008786Y013670D01*
X008698Y013626D01*
X008627Y013577D01*
X008528Y013549D01*
X008457Y013522D01*
X008413Y013516D01*
X008347Y013516D01*
X008446Y013719D01*
X008457Y013747D01*
X008737Y013747D01*
X008802Y013719D01*
X008819Y013708D01*
X008880Y011267D02*
X008880Y010960D01*
X008573Y011267D01*
X008496Y011267D01*
X008420Y011190D01*
X008420Y011036D01*
X008496Y010960D01*
X008496Y010806D02*
X008650Y010806D01*
X008727Y010729D01*
X008727Y010499D01*
X008880Y010499D02*
X008420Y010499D01*
X008420Y010729D01*
X008496Y010806D01*
X008727Y010653D02*
X008880Y010806D01*
X005849Y015466D02*
X005662Y015466D01*
X005849Y015653D01*
X005849Y015700D01*
X005802Y015747D01*
X005709Y015747D01*
X005662Y015700D01*
X004998Y015470D02*
X004811Y015470D01*
X004904Y015470D02*
X004904Y015750D01*
X004811Y015657D01*
X005170Y017190D02*
X005323Y017190D01*
X005247Y017190D02*
X005247Y017650D01*
X005323Y017650D02*
X005170Y017650D01*
X005477Y017574D02*
X005477Y017267D01*
X005554Y017190D01*
X005707Y017190D01*
X005784Y017267D01*
X005937Y017267D02*
X006014Y017190D01*
X006168Y017190D01*
X006244Y017267D01*
X006244Y017343D01*
X006168Y017420D01*
X006091Y017420D01*
X006168Y017420D02*
X006244Y017497D01*
X006244Y017574D01*
X006168Y017650D01*
X006014Y017650D01*
X005937Y017574D01*
X005784Y017574D02*
X005707Y017650D01*
X005554Y017650D01*
X005477Y017574D01*
X006920Y018310D02*
X007107Y018310D01*
X007060Y018170D02*
X007060Y018450D01*
X006920Y018310D01*
X006999Y018920D02*
X006999Y019380D01*
X007229Y019380D01*
X007306Y019304D01*
X007306Y019150D01*
X007229Y019073D01*
X006999Y019073D01*
X007153Y019073D02*
X007306Y018920D01*
X007460Y019150D02*
X007767Y019150D01*
X007690Y018920D02*
X007690Y019380D01*
X007460Y019150D01*
X008670Y017650D02*
X008823Y017650D01*
X008747Y017650D02*
X008747Y017190D01*
X008823Y017190D02*
X008670Y017190D01*
X008977Y017267D02*
X008977Y017574D01*
X009054Y017650D01*
X009207Y017650D01*
X009284Y017574D01*
X009437Y017574D02*
X009514Y017650D01*
X009668Y017650D01*
X009744Y017574D01*
X009744Y017497D01*
X009437Y017190D01*
X009744Y017190D01*
X009284Y017267D02*
X009207Y017190D01*
X009054Y017190D01*
X008977Y017267D01*
X008999Y018920D02*
X008999Y019380D01*
X009229Y019380D01*
X009306Y019304D01*
X009306Y019150D01*
X009229Y019073D01*
X008999Y019073D01*
X009153Y019073D02*
X009306Y018920D01*
X009460Y018920D02*
X009767Y018920D01*
X009613Y018920D02*
X009613Y019380D01*
X009460Y019227D01*
X010420Y018310D02*
X010607Y018310D01*
X010560Y018170D02*
X010560Y018450D01*
X010420Y018310D01*
X008440Y021170D02*
X008210Y021170D01*
X008210Y021630D01*
X008440Y021630D01*
X008517Y021554D01*
X008517Y021247D01*
X008440Y021170D01*
X008056Y021170D02*
X007749Y021170D01*
X007749Y021630D01*
X008056Y021630D01*
X007903Y021400D02*
X007749Y021400D01*
X007596Y021400D02*
X007596Y021554D01*
X007519Y021630D01*
X007289Y021630D01*
X007289Y021170D01*
X007289Y021323D02*
X007519Y021323D01*
X007596Y021400D01*
X007442Y021323D02*
X007596Y021170D01*
X009420Y021420D02*
X009420Y021650D01*
X009496Y021727D01*
X009650Y021727D01*
X009727Y021650D01*
X009727Y021420D01*
X009880Y021420D02*
X009420Y021420D01*
X009727Y021573D02*
X009880Y021727D01*
X009803Y021880D02*
X009880Y021957D01*
X009880Y022111D01*
X009803Y022187D01*
X009727Y022187D01*
X009650Y022111D01*
X009650Y022034D01*
X009650Y022111D02*
X009573Y022187D01*
X009496Y022187D01*
X009420Y022111D01*
X009420Y021957D01*
X009496Y021880D01*
X005630Y021937D02*
X005630Y021630D01*
X005170Y021630D01*
X005170Y021937D01*
X005170Y022091D02*
X005630Y022091D01*
X005630Y022398D01*
X005630Y022551D02*
X005630Y022858D01*
X005630Y022705D02*
X005170Y022705D01*
X005323Y022551D01*
X005400Y021784D02*
X005400Y021630D01*
X005246Y021477D02*
X005400Y021323D01*
X005630Y021323D01*
X005400Y021323D02*
X005246Y021170D01*
X005170Y021170D01*
X005170Y021477D02*
X005246Y021477D01*
X004744Y021130D02*
X004744Y020670D01*
X004591Y020670D02*
X004898Y020670D01*
X004591Y020977D02*
X004744Y021130D01*
X004437Y021054D02*
X004437Y020977D01*
X004361Y020900D01*
X004130Y020900D01*
X004130Y020670D02*
X004361Y020670D01*
X004437Y020747D01*
X004437Y020823D01*
X004361Y020900D01*
X004437Y021054D02*
X004361Y021130D01*
X004130Y021130D01*
X004130Y020670D01*
X003977Y020670D02*
X003670Y021130D01*
X003687Y021150D02*
X003687Y020997D01*
X003611Y020920D01*
X003457Y020920D01*
X003380Y020997D01*
X003380Y021150D02*
X003534Y021227D01*
X003611Y021227D01*
X003687Y021150D01*
X003670Y021170D02*
X003746Y021170D01*
X003900Y021323D01*
X004130Y021323D01*
X003977Y021130D02*
X003670Y020670D01*
X003227Y020920D02*
X003073Y021073D01*
X003150Y021073D02*
X002920Y021073D01*
X002920Y020920D02*
X002920Y021380D01*
X003150Y021380D01*
X003227Y021304D01*
X003227Y021150D01*
X003150Y021073D01*
X003380Y021150D02*
X003380Y021380D01*
X003687Y021380D01*
X003670Y021477D02*
X003746Y021477D01*
X003900Y021323D01*
X003900Y021630D02*
X003900Y021784D01*
X003670Y021630D02*
X004130Y021630D01*
X004130Y021937D01*
X004130Y022091D02*
X004130Y022398D01*
X004130Y022551D02*
X003823Y022858D01*
X003746Y022858D01*
X003670Y022781D01*
X003670Y022628D01*
X003746Y022551D01*
X004130Y022551D02*
X004130Y022858D01*
X004130Y022091D02*
X003670Y022091D01*
X003670Y021937D02*
X003670Y021630D01*
D18*
X007929Y021879D03*
X007929Y022421D03*
D19*
X008081Y022150D03*
X006150Y021719D03*
X004650Y021719D03*
D20*
X004921Y021871D03*
X004379Y021871D03*
X005879Y021871D03*
X006421Y021871D03*
M02*
