G75*
G70*
%OFA0B0*%
%FSLAX24Y24*%
%IPPOS*%
%LPD*%
%AMOC8*
5,1,8,0,0,1.08239X$1,22.5*
%
%ADD10C,0.0000*%
%ADD11R,0.1890X0.0945*%
%ADD12R,0.0098X0.0461*%
%ADD13R,0.2441X0.0787*%
D10*
X000150Y000150D02*
X000150Y023150D01*
X017650Y023150D01*
X017650Y000150D01*
X000150Y000150D01*
X000532Y000650D02*
X000534Y000671D01*
X000540Y000691D01*
X000549Y000711D01*
X000561Y000728D01*
X000576Y000742D01*
X000594Y000754D01*
X000614Y000762D01*
X000634Y000767D01*
X000655Y000768D01*
X000676Y000765D01*
X000696Y000759D01*
X000715Y000748D01*
X000732Y000735D01*
X000745Y000719D01*
X000756Y000701D01*
X000764Y000681D01*
X000768Y000661D01*
X000768Y000639D01*
X000764Y000619D01*
X000756Y000599D01*
X000745Y000581D01*
X000732Y000565D01*
X000715Y000552D01*
X000696Y000541D01*
X000676Y000535D01*
X000655Y000532D01*
X000634Y000533D01*
X000614Y000538D01*
X000594Y000546D01*
X000576Y000558D01*
X000561Y000572D01*
X000549Y000589D01*
X000540Y000609D01*
X000534Y000629D01*
X000532Y000650D01*
X017032Y000650D02*
X017034Y000671D01*
X017040Y000691D01*
X017049Y000711D01*
X017061Y000728D01*
X017076Y000742D01*
X017094Y000754D01*
X017114Y000762D01*
X017134Y000767D01*
X017155Y000768D01*
X017176Y000765D01*
X017196Y000759D01*
X017215Y000748D01*
X017232Y000735D01*
X017245Y000719D01*
X017256Y000701D01*
X017264Y000681D01*
X017268Y000661D01*
X017268Y000639D01*
X017264Y000619D01*
X017256Y000599D01*
X017245Y000581D01*
X017232Y000565D01*
X017215Y000552D01*
X017196Y000541D01*
X017176Y000535D01*
X017155Y000532D01*
X017134Y000533D01*
X017114Y000538D01*
X017094Y000546D01*
X017076Y000558D01*
X017061Y000572D01*
X017049Y000589D01*
X017040Y000609D01*
X017034Y000629D01*
X017032Y000650D01*
X017032Y022650D02*
X017034Y022671D01*
X017040Y022691D01*
X017049Y022711D01*
X017061Y022728D01*
X017076Y022742D01*
X017094Y022754D01*
X017114Y022762D01*
X017134Y022767D01*
X017155Y022768D01*
X017176Y022765D01*
X017196Y022759D01*
X017215Y022748D01*
X017232Y022735D01*
X017245Y022719D01*
X017256Y022701D01*
X017264Y022681D01*
X017268Y022661D01*
X017268Y022639D01*
X017264Y022619D01*
X017256Y022599D01*
X017245Y022581D01*
X017232Y022565D01*
X017215Y022552D01*
X017196Y022541D01*
X017176Y022535D01*
X017155Y022532D01*
X017134Y022533D01*
X017114Y022538D01*
X017094Y022546D01*
X017076Y022558D01*
X017061Y022572D01*
X017049Y022589D01*
X017040Y022609D01*
X017034Y022629D01*
X017032Y022650D01*
X000532Y022650D02*
X000534Y022671D01*
X000540Y022691D01*
X000549Y022711D01*
X000561Y022728D01*
X000576Y022742D01*
X000594Y022754D01*
X000614Y022762D01*
X000634Y022767D01*
X000655Y022768D01*
X000676Y022765D01*
X000696Y022759D01*
X000715Y022748D01*
X000732Y022735D01*
X000745Y022719D01*
X000756Y022701D01*
X000764Y022681D01*
X000768Y022661D01*
X000768Y022639D01*
X000764Y022619D01*
X000756Y022599D01*
X000745Y022581D01*
X000732Y022565D01*
X000715Y022552D01*
X000696Y022541D01*
X000676Y022535D01*
X000655Y022532D01*
X000634Y022533D01*
X000614Y022538D01*
X000594Y022546D01*
X000576Y022558D01*
X000561Y022572D01*
X000549Y022589D01*
X000540Y022609D01*
X000534Y022629D01*
X000532Y022650D01*
D11*
G36*
X008595Y017180D02*
X006706Y017177D01*
X006705Y018120D01*
X008594Y018123D01*
X008595Y017180D01*
G37*
D12*
G36*
X008499Y016741D02*
X008596Y016742D01*
X008597Y016283D01*
X008500Y016282D01*
X008499Y016741D01*
G37*
G36*
X008499Y016741D02*
X008596Y016742D01*
X008597Y016283D01*
X008500Y016282D01*
X008499Y016741D01*
G37*
G36*
X008243Y016740D02*
X008340Y016741D01*
X008341Y016282D01*
X008244Y016281D01*
X008243Y016740D01*
G37*
G36*
X008243Y016740D02*
X008340Y016741D01*
X008341Y016282D01*
X008244Y016281D01*
X008243Y016740D01*
G37*
G36*
X007987Y016740D02*
X008084Y016741D01*
X008085Y016282D01*
X007988Y016281D01*
X007987Y016740D01*
G37*
G36*
X007987Y016740D02*
X008084Y016741D01*
X008085Y016282D01*
X007988Y016281D01*
X007987Y016740D01*
G37*
G36*
X007731Y016739D02*
X007828Y016740D01*
X007829Y016281D01*
X007732Y016280D01*
X007731Y016739D01*
G37*
G36*
X007731Y016739D02*
X007828Y016740D01*
X007829Y016281D01*
X007732Y016280D01*
X007731Y016739D01*
G37*
G36*
X007475Y016739D02*
X007572Y016740D01*
X007573Y016281D01*
X007476Y016280D01*
X007475Y016739D01*
G37*
G36*
X007475Y016739D02*
X007572Y016740D01*
X007573Y016281D01*
X007476Y016280D01*
X007475Y016739D01*
G37*
G36*
X007219Y016739D02*
X007316Y016740D01*
X007317Y016281D01*
X007220Y016280D01*
X007219Y016739D01*
G37*
G36*
X007219Y016739D02*
X007316Y016740D01*
X007317Y016281D01*
X007220Y016280D01*
X007219Y016739D01*
G37*
G36*
X006963Y016738D02*
X007060Y016739D01*
X007061Y016280D01*
X006964Y016279D01*
X006963Y016738D01*
G37*
G36*
X006963Y016738D02*
X007060Y016739D01*
X007061Y016280D01*
X006964Y016279D01*
X006963Y016738D01*
G37*
G36*
X006707Y016738D02*
X006804Y016739D01*
X006805Y016280D01*
X006708Y016279D01*
X006707Y016738D01*
G37*
G36*
X006707Y016738D02*
X006804Y016739D01*
X006805Y016280D01*
X006708Y016279D01*
X006707Y016738D01*
G37*
G36*
X006451Y016737D02*
X006548Y016738D01*
X006549Y016279D01*
X006452Y016278D01*
X006451Y016737D01*
G37*
G36*
X006451Y016737D02*
X006548Y016738D01*
X006549Y016279D01*
X006452Y016278D01*
X006451Y016737D01*
G37*
G36*
X006196Y016737D02*
X006293Y016738D01*
X006294Y016279D01*
X006197Y016278D01*
X006196Y016737D01*
G37*
G36*
X006196Y016737D02*
X006293Y016738D01*
X006294Y016279D01*
X006197Y016278D01*
X006196Y016737D01*
G37*
G36*
X005940Y016736D02*
X006037Y016737D01*
X006038Y016278D01*
X005941Y016277D01*
X005940Y016736D01*
G37*
G36*
X006034Y018558D02*
X005937Y018557D01*
X005936Y019016D01*
X006033Y019017D01*
X006034Y018558D01*
G37*
G36*
X006290Y018558D02*
X006193Y018557D01*
X006192Y019016D01*
X006289Y019017D01*
X006290Y018558D01*
G37*
G36*
X006290Y018558D02*
X006193Y018557D01*
X006192Y019016D01*
X006289Y019017D01*
X006290Y018558D01*
G37*
G36*
X006545Y018559D02*
X006448Y018558D01*
X006447Y019017D01*
X006544Y019018D01*
X006545Y018559D01*
G37*
G36*
X006545Y018559D02*
X006448Y018558D01*
X006447Y019017D01*
X006544Y019018D01*
X006545Y018559D01*
G37*
G36*
X006801Y018559D02*
X006704Y018558D01*
X006703Y019017D01*
X006800Y019018D01*
X006801Y018559D01*
G37*
G36*
X006801Y018559D02*
X006704Y018558D01*
X006703Y019017D01*
X006800Y019018D01*
X006801Y018559D01*
G37*
G36*
X007057Y018560D02*
X006960Y018559D01*
X006959Y019018D01*
X007056Y019019D01*
X007057Y018560D01*
G37*
G36*
X007057Y018560D02*
X006960Y018559D01*
X006959Y019018D01*
X007056Y019019D01*
X007057Y018560D01*
G37*
G36*
X007313Y018560D02*
X007216Y018559D01*
X007215Y019018D01*
X007312Y019019D01*
X007313Y018560D01*
G37*
G36*
X007313Y018560D02*
X007216Y018559D01*
X007215Y019018D01*
X007312Y019019D01*
X007313Y018560D01*
G37*
G36*
X007569Y018561D02*
X007472Y018560D01*
X007471Y019019D01*
X007568Y019020D01*
X007569Y018561D01*
G37*
G36*
X007569Y018561D02*
X007472Y018560D01*
X007471Y019019D01*
X007568Y019020D01*
X007569Y018561D01*
G37*
G36*
X007825Y018561D02*
X007728Y018560D01*
X007727Y019019D01*
X007824Y019020D01*
X007825Y018561D01*
G37*
G36*
X007825Y018561D02*
X007728Y018560D01*
X007727Y019019D01*
X007824Y019020D01*
X007825Y018561D01*
G37*
G36*
X008081Y018561D02*
X007984Y018560D01*
X007983Y019019D01*
X008080Y019020D01*
X008081Y018561D01*
G37*
G36*
X008081Y018561D02*
X007984Y018560D01*
X007983Y019019D01*
X008080Y019020D01*
X008081Y018561D01*
G37*
G36*
X008337Y018562D02*
X008240Y018561D01*
X008239Y019020D01*
X008336Y019021D01*
X008337Y018562D01*
G37*
G36*
X008337Y018562D02*
X008240Y018561D01*
X008239Y019020D01*
X008336Y019021D01*
X008337Y018562D01*
G37*
G36*
X008593Y018562D02*
X008496Y018561D01*
X008495Y019020D01*
X008592Y019021D01*
X008593Y018562D01*
G37*
G36*
X008593Y018562D02*
X008496Y018561D01*
X008495Y019020D01*
X008592Y019021D01*
X008593Y018562D01*
G37*
G36*
X008849Y018563D02*
X008752Y018562D01*
X008751Y019021D01*
X008848Y019022D01*
X008849Y018563D01*
G37*
G36*
X008849Y018563D02*
X008752Y018562D01*
X008751Y019021D01*
X008848Y019022D01*
X008849Y018563D01*
G37*
G36*
X009104Y018563D02*
X009007Y018562D01*
X009006Y019021D01*
X009103Y019022D01*
X009104Y018563D01*
G37*
G36*
X009104Y018563D02*
X009007Y018562D01*
X009006Y019021D01*
X009103Y019022D01*
X009104Y018563D01*
G37*
G36*
X009360Y018564D02*
X009263Y018563D01*
X009262Y019022D01*
X009359Y019023D01*
X009360Y018564D01*
G37*
G36*
X009266Y016742D02*
X009363Y016743D01*
X009364Y016284D01*
X009267Y016283D01*
X009266Y016742D01*
G37*
G36*
X009010Y016742D02*
X009107Y016743D01*
X009108Y016284D01*
X009011Y016283D01*
X009010Y016742D01*
G37*
G36*
X009010Y016742D02*
X009107Y016743D01*
X009108Y016284D01*
X009011Y016283D01*
X009010Y016742D01*
G37*
G36*
X008755Y016741D02*
X008852Y016742D01*
X008853Y016283D01*
X008756Y016282D01*
X008755Y016741D01*
G37*
G36*
X008755Y016741D02*
X008852Y016742D01*
X008853Y016283D01*
X008756Y016282D01*
X008755Y016741D01*
G37*
D13*
G36*
X008870Y017260D02*
X006431Y017255D01*
X006430Y018040D01*
X008869Y018045D01*
X008870Y017260D01*
G37*
M02*
