G75*
G70*
%OFA0B0*%
%FSLAX24Y24*%
%IPPOS*%
%LPD*%
%AMOC8*
5,1,8,0,0,1.08239X$1,22.5*
%
%ADD10C,0.0000*%
%ADD11C,0.0080*%
%ADD12C,0.0040*%
%ADD13C,0.0060*%
%ADD14C,0.0050*%
D10*
X000150Y000150D02*
X000150Y023150D01*
X017650Y023150D01*
X017650Y000150D01*
X000150Y000150D01*
X000532Y000650D02*
X000534Y000671D01*
X000540Y000691D01*
X000549Y000711D01*
X000561Y000728D01*
X000576Y000742D01*
X000594Y000754D01*
X000614Y000762D01*
X000634Y000767D01*
X000655Y000768D01*
X000676Y000765D01*
X000696Y000759D01*
X000715Y000748D01*
X000732Y000735D01*
X000745Y000719D01*
X000756Y000701D01*
X000764Y000681D01*
X000768Y000661D01*
X000768Y000639D01*
X000764Y000619D01*
X000756Y000599D01*
X000745Y000581D01*
X000732Y000565D01*
X000715Y000552D01*
X000696Y000541D01*
X000676Y000535D01*
X000655Y000532D01*
X000634Y000533D01*
X000614Y000538D01*
X000594Y000546D01*
X000576Y000558D01*
X000561Y000572D01*
X000549Y000589D01*
X000540Y000609D01*
X000534Y000629D01*
X000532Y000650D01*
X017032Y000650D02*
X017034Y000671D01*
X017040Y000691D01*
X017049Y000711D01*
X017061Y000728D01*
X017076Y000742D01*
X017094Y000754D01*
X017114Y000762D01*
X017134Y000767D01*
X017155Y000768D01*
X017176Y000765D01*
X017196Y000759D01*
X017215Y000748D01*
X017232Y000735D01*
X017245Y000719D01*
X017256Y000701D01*
X017264Y000681D01*
X017268Y000661D01*
X017268Y000639D01*
X017264Y000619D01*
X017256Y000599D01*
X017245Y000581D01*
X017232Y000565D01*
X017215Y000552D01*
X017196Y000541D01*
X017176Y000535D01*
X017155Y000532D01*
X017134Y000533D01*
X017114Y000538D01*
X017094Y000546D01*
X017076Y000558D01*
X017061Y000572D01*
X017049Y000589D01*
X017040Y000609D01*
X017034Y000629D01*
X017032Y000650D01*
X017032Y022650D02*
X017034Y022671D01*
X017040Y022691D01*
X017049Y022711D01*
X017061Y022728D01*
X017076Y022742D01*
X017094Y022754D01*
X017114Y022762D01*
X017134Y022767D01*
X017155Y022768D01*
X017176Y022765D01*
X017196Y022759D01*
X017215Y022748D01*
X017232Y022735D01*
X017245Y022719D01*
X017256Y022701D01*
X017264Y022681D01*
X017268Y022661D01*
X017268Y022639D01*
X017264Y022619D01*
X017256Y022599D01*
X017245Y022581D01*
X017232Y022565D01*
X017215Y022552D01*
X017196Y022541D01*
X017176Y022535D01*
X017155Y022532D01*
X017134Y022533D01*
X017114Y022538D01*
X017094Y022546D01*
X017076Y022558D01*
X017061Y022572D01*
X017049Y022589D01*
X017040Y022609D01*
X017034Y022629D01*
X017032Y022650D01*
X000532Y022650D02*
X000534Y022671D01*
X000540Y022691D01*
X000549Y022711D01*
X000561Y022728D01*
X000576Y022742D01*
X000594Y022754D01*
X000614Y022762D01*
X000634Y022767D01*
X000655Y022768D01*
X000676Y022765D01*
X000696Y022759D01*
X000715Y022748D01*
X000732Y022735D01*
X000745Y022719D01*
X000756Y022701D01*
X000764Y022681D01*
X000768Y022661D01*
X000768Y022639D01*
X000764Y022619D01*
X000756Y022599D01*
X000745Y022581D01*
X000732Y022565D01*
X000715Y022552D01*
X000696Y022541D01*
X000676Y022535D01*
X000655Y022532D01*
X000634Y022533D01*
X000614Y022538D01*
X000594Y022546D01*
X000576Y022558D01*
X000561Y022572D01*
X000549Y022589D01*
X000540Y022609D01*
X000534Y022629D01*
X000532Y022650D01*
D11*
X005877Y018493D02*
X005880Y016800D01*
X009423Y016807D01*
X009420Y018500D01*
X005877Y018493D01*
X006035Y018218D02*
X006037Y018239D01*
X006043Y018259D01*
X006052Y018279D01*
X006064Y018296D01*
X006079Y018310D01*
X006097Y018322D01*
X006117Y018330D01*
X006137Y018335D01*
X006158Y018336D01*
X006179Y018333D01*
X006199Y018327D01*
X006218Y018316D01*
X006235Y018303D01*
X006248Y018287D01*
X006259Y018269D01*
X006267Y018249D01*
X006271Y018229D01*
X006271Y018207D01*
X006267Y018187D01*
X006259Y018167D01*
X006248Y018149D01*
X006235Y018133D01*
X006218Y018120D01*
X006199Y018109D01*
X006179Y018103D01*
X006158Y018100D01*
X006137Y018101D01*
X006117Y018106D01*
X006097Y018114D01*
X006079Y018126D01*
X006064Y018140D01*
X006052Y018157D01*
X006043Y018177D01*
X006037Y018197D01*
X006035Y018218D01*
D12*
X006145Y017514D02*
X006145Y017207D01*
X006375Y017438D01*
X005914Y017437D01*
X005992Y017053D02*
X005915Y016976D01*
X005916Y016823D01*
X005992Y016746D01*
X006299Y016747D01*
X006376Y016824D01*
X006376Y016977D01*
X006299Y017054D01*
X006376Y016594D02*
X006377Y016440D01*
X006376Y016517D02*
X005916Y016516D01*
X005916Y016439D02*
X005916Y016593D01*
D13*
X013650Y016400D02*
X013900Y016150D01*
X013650Y015900D01*
X013650Y015400D01*
X013900Y015150D01*
X013650Y014900D01*
X013650Y014400D01*
X013900Y014150D01*
X013650Y013900D01*
X013650Y013400D01*
X013900Y013150D01*
X013650Y012900D01*
X013650Y012400D01*
X013900Y012150D01*
X013650Y011900D01*
X013650Y011400D01*
X013900Y011150D01*
X013650Y010900D01*
X013650Y010400D01*
X013900Y010150D01*
X013650Y009900D01*
X013650Y009400D01*
X013900Y009150D01*
X013650Y008900D01*
X013650Y008400D01*
X013900Y008150D01*
X013650Y007900D01*
X013650Y007400D01*
X013900Y007150D01*
X013650Y006900D01*
X013650Y006400D01*
X013900Y006150D01*
X013650Y005900D01*
X013650Y005400D01*
X013900Y005150D01*
X013650Y004900D01*
X013650Y004400D01*
X013900Y004150D01*
X013650Y003900D01*
X013650Y003400D01*
X013900Y003150D01*
X013650Y002900D01*
X013650Y002400D01*
X013900Y002150D01*
X013650Y001900D01*
X013650Y001400D01*
X013900Y001150D01*
X015400Y001150D01*
X015650Y001400D01*
X015650Y001900D01*
X015900Y002150D01*
X015650Y002400D01*
X015650Y002900D01*
X015900Y003150D01*
X015650Y003400D01*
X015650Y003900D01*
X015900Y004150D01*
X015650Y004400D01*
X015650Y004900D01*
X015900Y005150D01*
X015650Y005400D01*
X015650Y005900D01*
X015900Y006150D01*
X015650Y006400D01*
X015650Y006900D01*
X015900Y007150D01*
X015650Y007400D01*
X015650Y007900D01*
X015900Y008150D01*
X015650Y008400D01*
X015650Y008900D01*
X015900Y009150D01*
X015650Y009400D01*
X015650Y009900D01*
X015900Y010150D01*
X015650Y010400D01*
X015650Y010900D01*
X015900Y011150D01*
X015650Y011400D01*
X015650Y011900D01*
X015900Y012150D01*
X015650Y012400D01*
X015650Y012900D01*
X015900Y013150D01*
X015650Y013400D01*
X015650Y013900D01*
X015900Y014150D01*
X015650Y014400D01*
X015650Y014900D01*
X015900Y015150D01*
X015650Y015400D01*
X015650Y015900D01*
X015900Y016150D01*
X015650Y016400D01*
X015650Y016900D01*
X015900Y017150D01*
X015650Y017400D01*
X015650Y017900D01*
X015900Y018150D01*
X015650Y018400D01*
X015650Y018900D01*
X015900Y019150D01*
X015650Y019400D01*
X015650Y019900D01*
X015900Y020150D01*
X015650Y020400D01*
X015650Y020900D01*
X015900Y021150D01*
X016400Y021150D01*
X016650Y020900D01*
X016650Y020400D01*
X016400Y020150D01*
X016650Y019900D01*
X016650Y019400D01*
X016400Y019150D01*
X016650Y018900D01*
X016650Y018400D01*
X016400Y018150D01*
X016650Y017900D01*
X016650Y017400D01*
X016400Y017150D01*
X016650Y016900D01*
X016650Y016400D01*
X016400Y016150D01*
X016650Y015900D01*
X016650Y015400D01*
X016400Y015150D01*
X016650Y014900D01*
X016650Y014400D01*
X016400Y014150D01*
X016650Y013900D01*
X016650Y013400D01*
X016400Y013150D01*
X016650Y012900D01*
X016650Y012400D01*
X016400Y012150D01*
X016650Y011900D01*
X016650Y011400D01*
X016400Y011150D01*
X016650Y010900D01*
X016650Y010400D01*
X016400Y010150D01*
X016650Y009900D01*
X016650Y009400D01*
X016400Y009150D01*
X016650Y008900D01*
X016650Y008400D01*
X016400Y008150D01*
X016650Y007900D01*
X016650Y007400D01*
X016400Y007150D01*
X016650Y006900D01*
X016650Y006400D01*
X016400Y006150D01*
X016650Y005900D01*
X016650Y005400D01*
X016400Y005150D01*
X016650Y004900D01*
X016650Y004400D01*
X016400Y004150D01*
X016650Y003900D01*
X016650Y003400D01*
X016400Y003150D01*
X016650Y002900D01*
X016650Y002400D01*
X016400Y002150D01*
X016650Y001900D01*
X016650Y001400D01*
X016400Y001150D01*
X015900Y001150D01*
X015650Y001400D01*
X015650Y001900D01*
X015400Y002150D01*
X015650Y002400D01*
X015650Y002900D01*
X015400Y003150D01*
X015650Y003400D01*
X015650Y003900D01*
X015400Y004150D01*
X015650Y004400D01*
X015650Y004900D01*
X015400Y005150D01*
X015650Y005400D01*
X015650Y005900D01*
X015400Y006150D01*
X015650Y006400D01*
X015650Y006900D01*
X015400Y007150D01*
X015650Y007400D01*
X015650Y007900D01*
X015400Y008150D01*
X015650Y008400D01*
X015650Y008900D01*
X015400Y009150D01*
X015650Y009400D01*
X015650Y009900D01*
X015400Y010150D01*
X015650Y010400D01*
X015650Y010900D01*
X015400Y011150D01*
X015650Y011400D01*
X015650Y011900D01*
X015400Y012150D01*
X015650Y012400D01*
X015650Y012900D01*
X015400Y013150D01*
X015650Y013400D01*
X015650Y013900D01*
X015400Y014150D01*
X015650Y014400D01*
X015650Y014900D01*
X015400Y015150D01*
X015650Y015400D01*
X015650Y015900D01*
X015400Y016150D01*
X015650Y016400D01*
X015650Y016900D01*
X015400Y017150D01*
X015650Y017400D01*
X015650Y017900D01*
X015400Y018150D01*
X015650Y018400D01*
X015650Y018900D01*
X015400Y019150D01*
X015650Y019400D01*
X015650Y019900D01*
X015400Y020150D01*
X015650Y020400D01*
X015650Y020900D01*
X015400Y021150D01*
X013900Y021150D01*
X013650Y020900D01*
X013650Y020400D01*
X013900Y020150D01*
X013650Y019900D01*
X013650Y019400D01*
X013900Y019150D01*
X013650Y018900D01*
X013650Y018400D01*
X013900Y018150D01*
X013650Y017900D01*
X013650Y017400D01*
X013900Y017150D01*
X013650Y016900D01*
X013650Y016400D01*
D14*
X016050Y020175D02*
X016050Y020475D01*
X015900Y020635D02*
X016200Y020936D01*
X015900Y020936D01*
X015825Y020861D01*
X015825Y020710D01*
X015900Y020635D01*
X016200Y020635D01*
X016275Y020710D01*
X016275Y020861D01*
X016200Y020936D01*
X016275Y020400D02*
X016050Y020175D01*
X015825Y020400D02*
X016275Y020400D01*
X015475Y020400D02*
X015400Y020325D01*
X015475Y020400D02*
X015475Y020550D01*
X015400Y020625D01*
X015325Y020625D01*
X015025Y020325D01*
X015025Y020625D01*
X015100Y020785D02*
X015400Y021086D01*
X015100Y021086D01*
X015025Y021011D01*
X015025Y020860D01*
X015100Y020785D01*
X015400Y020785D01*
X015475Y020860D01*
X015475Y021011D01*
X015400Y021086D01*
X015400Y011186D02*
X015100Y011186D01*
X015025Y011111D01*
X015025Y010960D01*
X015100Y010885D01*
X015400Y011186D01*
X015475Y011111D01*
X015475Y010960D01*
X015400Y010885D01*
X015100Y010885D01*
X015025Y010725D02*
X015025Y010425D01*
X015025Y010575D02*
X015475Y010575D01*
X015325Y010425D01*
X015825Y002396D02*
X015825Y002096D01*
X015825Y002246D02*
X016275Y002246D01*
X016125Y002096D01*
X015975Y001936D02*
X016275Y001936D01*
X016275Y001635D02*
X015975Y001635D01*
X015825Y001786D01*
X015975Y001936D01*
X015975Y001475D02*
X015900Y001475D01*
X015825Y001400D01*
X015825Y001250D01*
X015900Y001175D01*
X016050Y001250D02*
X016050Y001400D01*
X015975Y001475D01*
X016050Y001250D02*
X016125Y001175D01*
X016200Y001175D01*
X016275Y001250D01*
X016275Y001400D01*
X016200Y001475D01*
X016825Y001400D02*
X016825Y001250D01*
X016900Y001175D01*
X017050Y001250D02*
X017050Y001400D01*
X016975Y001475D01*
X016900Y001475D01*
X016825Y001400D01*
X017050Y001250D02*
X017125Y001175D01*
X017200Y001175D01*
X017275Y001250D01*
X017275Y001400D01*
X017200Y001475D01*
X017275Y001635D02*
X016975Y001635D01*
X016825Y001786D01*
X016975Y001936D01*
X017275Y001936D01*
X017200Y002096D02*
X017275Y002171D01*
X017275Y002321D01*
X017200Y002396D01*
X017125Y002396D01*
X016825Y002096D01*
X016825Y002396D01*
X015525Y001725D02*
X015075Y001725D01*
X015075Y001575D02*
X015075Y001875D01*
X015375Y001575D02*
X015525Y001725D01*
X013475Y001625D02*
X013025Y001625D01*
X013025Y001475D02*
X013025Y001775D01*
X013325Y001475D02*
X013475Y001625D01*
M02*
