%
M48
M72
T01C0.0240
T02C0.0315
T03C0.0320
T04C0.0400
T05C0.0551
%
T01
X3477Y2130
X4377Y2370
X4857Y2370
X5697Y3870
X5517Y4410
X4797Y3930
X4797Y4950
X5157Y5430
X4797Y5790
X4257Y6150
X2997Y5550
X2517Y5490
X2517Y6510
X3477Y8070
X4017Y9150
X4497Y9630
X5637Y9690
X5997Y8790
X6477Y8790
X6417Y7530
X6417Y7050
X5397Y7530
X6957Y5550
X6717Y4830
X7077Y4470
X8457Y4710
X9177Y5430
X8637Y5850
X8277Y7350
X10437Y8970
X10797Y7530
X10857Y5790
X12417Y4710
X12897Y3270
X13917Y3030
X11937Y1110
X8457Y1050
X3657Y3870
X9957Y12150
X7617Y13950
X4617Y13590
T02
X3086Y13193
X3086Y12406
X3086Y11619
X3086Y10831
X3086Y10044
X3086Y9256
X3086Y8469
X3086Y7681
X3086Y6894
X3086Y6107
X11747Y6107
X11747Y6894
X11747Y7681
X11747Y8469
X11747Y9256
X11747Y10044
X11747Y10831
X11747Y11619
X11747Y12406
X11747Y13193
T03
X11367Y3650
X9467Y3650
X9917Y1650
X8917Y1650
X6917Y1650
X11917Y1650
T04
X13417Y1650
X14417Y1650
X15417Y1650
X15417Y2650
X15417Y3650
X15417Y4650
X15417Y5650
X15417Y6650
X15417Y7650
X14417Y7650
X14417Y6650
X14417Y5650
X14417Y4650
X14417Y3650
X14417Y2650
X13417Y2650
X13417Y3650
X13417Y4650
X13417Y5650
X13417Y6650
X13417Y7650
X13417Y8650
X14417Y8650
X15417Y8650
X15417Y9650
X15417Y10650
X15417Y11650
X15417Y12650
X14417Y12650
X14417Y11650
X14417Y10650
X14417Y9650
X13417Y9650
X13417Y10650
X13417Y11650
X13417Y12650
X5917Y1150
X4917Y1150
X3917Y1150
X2917Y1150
X1417Y2150
X1417Y3150
X1417Y4150
X1417Y5150
X1417Y6150
X1417Y7150
X1417Y8150
X1417Y9150
X1417Y10150
X1417Y11150
X1417Y12150
X1417Y13150
T05
X917Y650
X15917Y650
X15917Y15650
X917Y15650
M30
