G75*
G70*
%OFA0B0*%
%FSLAX24Y24*%
%IPPOS*%
%LPD*%
%AMOC8*
5,1,8,0,0,1.08239X$1,22.5*
%
%ADD10C,0.0000*%
%ADD11C,0.0060*%
%ADD12R,0.0500X0.0220*%
%ADD13R,0.0220X0.0500*%
%ADD14C,0.0520*%
%ADD15OC8,0.0520*%
%ADD16C,0.0515*%
%ADD17R,0.0480X0.0880*%
%ADD18R,0.1417X0.0866*%
%ADD19R,0.0512X0.0630*%
%ADD20C,0.0600*%
%ADD21R,0.0394X0.0433*%
%ADD22R,0.0433X0.0394*%
%ADD23R,0.0591X0.0591*%
%ADD24OC8,0.0600*%
%ADD25C,0.0100*%
%ADD26OC8,0.0400*%
D10*
X000417Y000150D02*
X000417Y016150D01*
X016417Y016150D01*
X016417Y000150D01*
X000417Y000150D01*
X000641Y000650D02*
X000643Y000683D01*
X000649Y000715D01*
X000658Y000746D01*
X000671Y000776D01*
X000688Y000804D01*
X000708Y000830D01*
X000731Y000854D01*
X000756Y000874D01*
X000784Y000892D01*
X000813Y000906D01*
X000844Y000916D01*
X000876Y000923D01*
X000909Y000926D01*
X000942Y000925D01*
X000974Y000920D01*
X001005Y000911D01*
X001036Y000899D01*
X001064Y000883D01*
X001091Y000864D01*
X001115Y000842D01*
X001136Y000817D01*
X001155Y000790D01*
X001170Y000761D01*
X001181Y000731D01*
X001189Y000699D01*
X001193Y000666D01*
X001193Y000634D01*
X001189Y000601D01*
X001181Y000569D01*
X001170Y000539D01*
X001155Y000510D01*
X001136Y000483D01*
X001115Y000458D01*
X001091Y000436D01*
X001064Y000417D01*
X001036Y000401D01*
X001005Y000389D01*
X000974Y000380D01*
X000942Y000375D01*
X000909Y000374D01*
X000876Y000377D01*
X000844Y000384D01*
X000813Y000394D01*
X000784Y000408D01*
X000756Y000426D01*
X000731Y000446D01*
X000708Y000470D01*
X000688Y000496D01*
X000671Y000524D01*
X000658Y000554D01*
X000649Y000585D01*
X000643Y000617D01*
X000641Y000650D01*
X015641Y000650D02*
X015643Y000683D01*
X015649Y000715D01*
X015658Y000746D01*
X015671Y000776D01*
X015688Y000804D01*
X015708Y000830D01*
X015731Y000854D01*
X015756Y000874D01*
X015784Y000892D01*
X015813Y000906D01*
X015844Y000916D01*
X015876Y000923D01*
X015909Y000926D01*
X015942Y000925D01*
X015974Y000920D01*
X016005Y000911D01*
X016036Y000899D01*
X016064Y000883D01*
X016091Y000864D01*
X016115Y000842D01*
X016136Y000817D01*
X016155Y000790D01*
X016170Y000761D01*
X016181Y000731D01*
X016189Y000699D01*
X016193Y000666D01*
X016193Y000634D01*
X016189Y000601D01*
X016181Y000569D01*
X016170Y000539D01*
X016155Y000510D01*
X016136Y000483D01*
X016115Y000458D01*
X016091Y000436D01*
X016064Y000417D01*
X016036Y000401D01*
X016005Y000389D01*
X015974Y000380D01*
X015942Y000375D01*
X015909Y000374D01*
X015876Y000377D01*
X015844Y000384D01*
X015813Y000394D01*
X015784Y000408D01*
X015756Y000426D01*
X015731Y000446D01*
X015708Y000470D01*
X015688Y000496D01*
X015671Y000524D01*
X015658Y000554D01*
X015649Y000585D01*
X015643Y000617D01*
X015641Y000650D01*
X015641Y015650D02*
X015643Y015683D01*
X015649Y015715D01*
X015658Y015746D01*
X015671Y015776D01*
X015688Y015804D01*
X015708Y015830D01*
X015731Y015854D01*
X015756Y015874D01*
X015784Y015892D01*
X015813Y015906D01*
X015844Y015916D01*
X015876Y015923D01*
X015909Y015926D01*
X015942Y015925D01*
X015974Y015920D01*
X016005Y015911D01*
X016036Y015899D01*
X016064Y015883D01*
X016091Y015864D01*
X016115Y015842D01*
X016136Y015817D01*
X016155Y015790D01*
X016170Y015761D01*
X016181Y015731D01*
X016189Y015699D01*
X016193Y015666D01*
X016193Y015634D01*
X016189Y015601D01*
X016181Y015569D01*
X016170Y015539D01*
X016155Y015510D01*
X016136Y015483D01*
X016115Y015458D01*
X016091Y015436D01*
X016064Y015417D01*
X016036Y015401D01*
X016005Y015389D01*
X015974Y015380D01*
X015942Y015375D01*
X015909Y015374D01*
X015876Y015377D01*
X015844Y015384D01*
X015813Y015394D01*
X015784Y015408D01*
X015756Y015426D01*
X015731Y015446D01*
X015708Y015470D01*
X015688Y015496D01*
X015671Y015524D01*
X015658Y015554D01*
X015649Y015585D01*
X015643Y015617D01*
X015641Y015650D01*
X000641Y015650D02*
X000643Y015683D01*
X000649Y015715D01*
X000658Y015746D01*
X000671Y015776D01*
X000688Y015804D01*
X000708Y015830D01*
X000731Y015854D01*
X000756Y015874D01*
X000784Y015892D01*
X000813Y015906D01*
X000844Y015916D01*
X000876Y015923D01*
X000909Y015926D01*
X000942Y015925D01*
X000974Y015920D01*
X001005Y015911D01*
X001036Y015899D01*
X001064Y015883D01*
X001091Y015864D01*
X001115Y015842D01*
X001136Y015817D01*
X001155Y015790D01*
X001170Y015761D01*
X001181Y015731D01*
X001189Y015699D01*
X001193Y015666D01*
X001193Y015634D01*
X001189Y015601D01*
X001181Y015569D01*
X001170Y015539D01*
X001155Y015510D01*
X001136Y015483D01*
X001115Y015458D01*
X001091Y015436D01*
X001064Y015417D01*
X001036Y015401D01*
X001005Y015389D01*
X000974Y015380D01*
X000942Y015375D01*
X000909Y015374D01*
X000876Y015377D01*
X000844Y015384D01*
X000813Y015394D01*
X000784Y015408D01*
X000756Y015426D01*
X000731Y015446D01*
X000708Y015470D01*
X000688Y015496D01*
X000671Y015524D01*
X000658Y015554D01*
X000649Y015585D01*
X000643Y015617D01*
X000641Y015650D01*
D11*
X001947Y015607D02*
X002053Y015500D01*
X002267Y015500D01*
X002374Y015394D01*
X002374Y015287D01*
X002267Y015180D01*
X002053Y015180D01*
X001947Y015287D01*
X001947Y015607D02*
X001947Y015714D01*
X002053Y015821D01*
X002267Y015821D01*
X002374Y015714D01*
X002591Y015500D02*
X002591Y015287D01*
X002698Y015180D01*
X002911Y015180D01*
X003018Y015287D01*
X003018Y015500D01*
X002911Y015607D01*
X002698Y015607D01*
X002591Y015500D01*
X003236Y015394D02*
X003449Y015607D01*
X003556Y015607D01*
X003236Y015607D02*
X003236Y015180D01*
X003773Y015287D02*
X003880Y015394D01*
X004200Y015394D01*
X004200Y015500D02*
X004200Y015180D01*
X003880Y015180D01*
X003773Y015287D01*
X003880Y015607D02*
X004093Y015607D01*
X004200Y015500D01*
X004417Y015500D02*
X004417Y015287D01*
X004524Y015180D01*
X004844Y015180D01*
X004844Y015821D01*
X004844Y015607D02*
X004524Y015607D01*
X004417Y015500D01*
X005062Y015607D02*
X005062Y015287D01*
X005169Y015180D01*
X005489Y015180D01*
X005489Y015607D01*
X005707Y015607D02*
X005813Y015607D01*
X005813Y015180D01*
X005707Y015180D02*
X005920Y015180D01*
X006136Y015180D02*
X006136Y015607D01*
X006457Y015607D01*
X006563Y015500D01*
X006563Y015180D01*
X006781Y015287D02*
X006781Y015500D01*
X006888Y015607D01*
X007101Y015607D01*
X007208Y015500D01*
X007208Y015287D01*
X007101Y015180D01*
X006888Y015180D01*
X006781Y015287D01*
X007425Y015073D02*
X007852Y015073D01*
X008070Y015180D02*
X008497Y015180D01*
X008714Y015180D02*
X008928Y015180D01*
X008821Y015180D02*
X008821Y015607D01*
X008714Y015607D01*
X008821Y015821D02*
X008821Y015927D01*
X009144Y015607D02*
X009358Y015607D01*
X009251Y015714D02*
X009251Y015287D01*
X009358Y015180D01*
X009574Y015287D02*
X009574Y015500D01*
X009681Y015607D01*
X009894Y015607D01*
X010001Y015500D01*
X010001Y015394D01*
X009574Y015394D01*
X009574Y015287D02*
X009681Y015180D01*
X009894Y015180D01*
X008070Y015180D02*
X008070Y015821D01*
X005813Y015821D02*
X005813Y015927D01*
D12*
G36*
X005862Y006589D02*
X005863Y006090D01*
X005644Y006089D01*
X005643Y006588D01*
X005862Y006589D01*
G37*
G36*
X006177Y006591D02*
X006178Y006092D01*
X005959Y006091D01*
X005958Y006590D01*
X006177Y006591D01*
G37*
G36*
X006492Y006592D02*
X006493Y006093D01*
X006274Y006092D01*
X006273Y006591D01*
X006492Y006592D01*
G37*
G36*
X006807Y006593D02*
X006808Y006094D01*
X006589Y006093D01*
X006588Y006592D01*
X006807Y006593D01*
G37*
G36*
X007122Y006594D02*
X007123Y006095D01*
X006904Y006094D01*
X006903Y006593D01*
X007122Y006594D01*
G37*
G36*
X005547Y006588D02*
X005548Y006089D01*
X005329Y006088D01*
X005328Y006587D01*
X005547Y006588D01*
G37*
G36*
X005232Y006587D02*
X005233Y006088D01*
X005014Y006087D01*
X005013Y006586D01*
X005232Y006587D01*
G37*
G36*
X004917Y006586D02*
X004918Y006087D01*
X004699Y006086D01*
X004698Y006585D01*
X004917Y006586D01*
G37*
G36*
X004929Y003206D02*
X004930Y002707D01*
X004711Y002706D01*
X004710Y003205D01*
X004929Y003206D01*
G37*
G36*
X005244Y003207D02*
X005245Y002708D01*
X005026Y002707D01*
X005025Y003206D01*
X005244Y003207D01*
G37*
G36*
X005559Y003208D02*
X005560Y002709D01*
X005341Y002708D01*
X005340Y003207D01*
X005559Y003208D01*
G37*
G36*
X005874Y003209D02*
X005875Y002710D01*
X005656Y002709D01*
X005655Y003208D01*
X005874Y003209D01*
G37*
G36*
X006189Y003211D02*
X006190Y002712D01*
X005971Y002711D01*
X005970Y003210D01*
X006189Y003211D01*
G37*
G36*
X006504Y003212D02*
X006505Y002713D01*
X006286Y002712D01*
X006285Y003211D01*
X006504Y003212D01*
G37*
G36*
X006819Y003213D02*
X006820Y002714D01*
X006601Y002713D01*
X006600Y003212D01*
X006819Y003213D01*
G37*
G36*
X007134Y003214D02*
X007135Y002715D01*
X006916Y002714D01*
X006915Y003213D01*
X007134Y003214D01*
G37*
D13*
G36*
X007860Y003664D02*
X007861Y003445D01*
X007362Y003444D01*
X007361Y003663D01*
X007860Y003664D01*
G37*
G36*
X007858Y003979D02*
X007859Y003760D01*
X007360Y003759D01*
X007359Y003978D01*
X007858Y003979D01*
G37*
G36*
X007857Y004293D02*
X007858Y004074D01*
X007359Y004073D01*
X007358Y004292D01*
X007857Y004293D01*
G37*
G36*
X007856Y004608D02*
X007857Y004389D01*
X007358Y004388D01*
X007357Y004607D01*
X007856Y004608D01*
G37*
G36*
X007855Y004923D02*
X007856Y004704D01*
X007357Y004703D01*
X007356Y004922D01*
X007855Y004923D01*
G37*
G36*
X007854Y005238D02*
X007855Y005019D01*
X007356Y005018D01*
X007355Y005237D01*
X007854Y005238D01*
G37*
G36*
X007853Y005553D02*
X007854Y005334D01*
X007355Y005333D01*
X007354Y005552D01*
X007853Y005553D01*
G37*
G36*
X007852Y005868D02*
X007853Y005649D01*
X007354Y005648D01*
X007353Y005867D01*
X007852Y005868D01*
G37*
G36*
X004472Y005856D02*
X004473Y005637D01*
X003974Y005636D01*
X003973Y005855D01*
X004472Y005856D01*
G37*
G36*
X004473Y005541D02*
X004474Y005322D01*
X003975Y005321D01*
X003974Y005540D01*
X004473Y005541D01*
G37*
G36*
X004474Y005227D02*
X004475Y005008D01*
X003976Y005007D01*
X003975Y005226D01*
X004474Y005227D01*
G37*
G36*
X004475Y004912D02*
X004476Y004693D01*
X003977Y004692D01*
X003976Y004911D01*
X004475Y004912D01*
G37*
G36*
X004476Y004597D02*
X004477Y004378D01*
X003978Y004377D01*
X003977Y004596D01*
X004476Y004597D01*
G37*
G36*
X004477Y004282D02*
X004478Y004063D01*
X003979Y004062D01*
X003978Y004281D01*
X004477Y004282D01*
G37*
G36*
X004478Y003967D02*
X004479Y003748D01*
X003980Y003747D01*
X003979Y003966D01*
X004478Y003967D01*
G37*
G36*
X004480Y003652D02*
X004481Y003433D01*
X003982Y003432D01*
X003981Y003651D01*
X004480Y003652D01*
G37*
D14*
X009467Y003650D03*
X011367Y003650D03*
D15*
X011917Y001650D03*
X009917Y001650D03*
X008917Y001650D03*
X006917Y001650D03*
D16*
X003086Y006107D03*
X003086Y006894D03*
X003086Y007681D03*
X003086Y008469D03*
X003086Y009256D03*
X003086Y010044D03*
X003086Y010831D03*
X003086Y011619D03*
X003086Y012406D03*
X003086Y013193D03*
X011747Y013193D03*
X011747Y012406D03*
X011747Y011619D03*
X011747Y010831D03*
X011747Y010044D03*
X011747Y009256D03*
X011747Y008469D03*
X011747Y007681D03*
X011747Y006894D03*
X011747Y006107D03*
D17*
X010327Y010430D03*
X009417Y010430D03*
X008507Y010430D03*
X006327Y010430D03*
X005417Y010430D03*
X004507Y010430D03*
D18*
X005417Y012870D03*
X009417Y012870D03*
D19*
X010023Y008150D03*
X010810Y008150D03*
X010810Y006650D03*
X010023Y006650D03*
X008810Y006650D03*
X008023Y006650D03*
X008023Y008150D03*
X008810Y008150D03*
X006810Y008150D03*
X006023Y008150D03*
X004810Y008150D03*
X004023Y008150D03*
D20*
X001717Y008150D02*
X001117Y008150D01*
X001117Y009150D02*
X001717Y009150D01*
X001717Y010150D02*
X001117Y010150D01*
X001117Y011150D02*
X001717Y011150D01*
X001717Y012150D02*
X001117Y012150D01*
X001117Y013150D02*
X001717Y013150D01*
X001717Y007150D02*
X001117Y007150D01*
X001117Y006150D02*
X001717Y006150D01*
X001717Y005150D02*
X001117Y005150D01*
X001117Y004150D02*
X001717Y004150D01*
X001717Y003150D02*
X001117Y003150D01*
X001117Y002150D02*
X001717Y002150D01*
X002917Y001450D02*
X002917Y000850D01*
X003917Y000850D02*
X003917Y001450D01*
X004917Y001450D02*
X004917Y000850D01*
X005917Y000850D02*
X005917Y001450D01*
X015117Y001650D02*
X015717Y001650D01*
X015717Y002650D02*
X015117Y002650D01*
X015117Y003650D02*
X015717Y003650D01*
X015717Y004650D02*
X015117Y004650D01*
X015117Y005650D02*
X015717Y005650D01*
X015717Y006650D02*
X015117Y006650D01*
X015117Y007650D02*
X015717Y007650D01*
X015717Y008650D02*
X015117Y008650D01*
X015117Y009650D02*
X015717Y009650D01*
X015717Y010650D02*
X015117Y010650D01*
X015117Y011650D02*
X015717Y011650D01*
X015717Y012650D02*
X015117Y012650D01*
D21*
X005251Y014150D03*
X004582Y014150D03*
D22*
X012417Y014315D03*
X012417Y014985D03*
D23*
X013728Y014650D03*
X015106Y014650D03*
D24*
X014417Y012650D03*
X014417Y011650D03*
X014417Y010650D03*
X014417Y009650D03*
X014417Y008650D03*
X013417Y008650D03*
X013417Y009650D03*
X013417Y010650D03*
X013417Y011650D03*
X013417Y012650D03*
X013417Y007650D03*
X014417Y007650D03*
X014417Y006650D03*
X014417Y005650D03*
X014417Y004650D03*
X014417Y003650D03*
X014417Y002650D03*
X014417Y001650D03*
X013417Y001650D03*
X013417Y002650D03*
X013417Y003650D03*
X013417Y004650D03*
X013417Y005650D03*
X013417Y006650D03*
D25*
X012961Y006159D02*
X012375Y006159D01*
X012375Y006232D02*
X012375Y005982D01*
X012320Y005850D01*
X012747Y005850D01*
X012747Y005928D01*
X012969Y006150D01*
X012747Y006372D01*
X012747Y006928D01*
X012969Y007150D01*
X012747Y007372D01*
X012747Y007928D01*
X012969Y008150D01*
X012790Y008329D01*
X012343Y007883D01*
X012375Y007806D01*
X012375Y007557D01*
X012279Y007326D01*
X012241Y007288D01*
X012279Y007250D01*
X012375Y007019D01*
X012375Y006769D01*
X012279Y006539D01*
X012241Y006500D01*
X012279Y006462D01*
X012375Y006232D01*
X012364Y006257D02*
X012862Y006257D01*
X012764Y006356D02*
X012323Y006356D01*
X012283Y006454D02*
X012747Y006454D01*
X012747Y006553D02*
X012285Y006553D01*
X012326Y006651D02*
X012747Y006651D01*
X012747Y006750D02*
X012367Y006750D01*
X012375Y006848D02*
X012747Y006848D01*
X012766Y006947D02*
X012375Y006947D01*
X012364Y007045D02*
X012864Y007045D01*
X012963Y007144D02*
X012323Y007144D01*
X012282Y007242D02*
X012877Y007242D01*
X012779Y007341D02*
X012285Y007341D01*
X012326Y007439D02*
X012747Y007439D01*
X012747Y007538D02*
X012367Y007538D01*
X012375Y007636D02*
X012747Y007636D01*
X012747Y007735D02*
X012375Y007735D01*
X012364Y007833D02*
X012747Y007833D01*
X012751Y007932D02*
X012392Y007932D01*
X012491Y008030D02*
X012849Y008030D01*
X012948Y008129D02*
X012589Y008129D01*
X012688Y008227D02*
X012892Y008227D01*
X012794Y008326D02*
X012786Y008326D01*
X013417Y008650D02*
X013437Y008610D01*
X013857Y008190D01*
X013857Y004470D01*
X013557Y004170D01*
X009417Y004170D01*
X009117Y003870D01*
X007617Y003870D01*
X007609Y003869D01*
X007557Y003570D02*
X007317Y003570D01*
X006717Y004170D01*
X006717Y004830D01*
X007077Y004470D02*
X007317Y004230D01*
X007557Y004230D01*
X007608Y004183D01*
X007617Y004470D02*
X007607Y004498D01*
X007617Y004470D02*
X008217Y004470D01*
X008337Y004350D01*
X012057Y004350D01*
X012417Y004710D01*
X012957Y005070D02*
X013377Y004650D01*
X013417Y004650D01*
X012957Y005070D02*
X007617Y005070D01*
X007605Y005128D01*
X007606Y004813D02*
X007617Y004770D01*
X008397Y004770D01*
X008457Y004710D01*
X008757Y005490D02*
X007617Y005490D01*
X007604Y005443D01*
X007603Y005758D02*
X007617Y005790D01*
X008577Y005790D01*
X008637Y005850D01*
X008757Y005490D02*
X009057Y005790D01*
X010857Y005790D01*
X010206Y006210D02*
X009083Y006210D01*
X008873Y006420D01*
X008649Y006420D01*
X008649Y006916D01*
X008847Y007114D01*
X008847Y007465D01*
X009140Y007465D01*
X009276Y007521D01*
X009380Y007625D01*
X009436Y007761D01*
X009436Y008190D01*
X010184Y008190D01*
X010184Y007761D01*
X010227Y007660D01*
X010227Y007294D01*
X010293Y007227D01*
X010241Y007175D01*
X010184Y007039D01*
X010184Y006261D01*
X010206Y006210D01*
X010186Y006257D02*
X009036Y006257D01*
X008937Y006356D02*
X010184Y006356D01*
X010184Y006454D02*
X008649Y006454D01*
X008649Y006553D02*
X010184Y006553D01*
X010184Y006651D02*
X008649Y006651D01*
X008649Y006750D02*
X010184Y006750D01*
X010184Y006848D02*
X008649Y006848D01*
X008679Y006947D02*
X010184Y006947D01*
X010187Y007045D02*
X008778Y007045D01*
X008847Y007144D02*
X010228Y007144D01*
X010279Y007242D02*
X008847Y007242D01*
X008847Y007341D02*
X010227Y007341D01*
X010227Y007439D02*
X008847Y007439D01*
X009027Y007140D02*
X010017Y008130D01*
X010023Y008150D01*
X010184Y008129D02*
X009436Y008129D01*
X009436Y008030D02*
X010184Y008030D01*
X010184Y007932D02*
X009436Y007932D01*
X009436Y007833D02*
X010184Y007833D01*
X010196Y007735D02*
X009425Y007735D01*
X009384Y007636D02*
X010227Y007636D01*
X010227Y007538D02*
X009292Y007538D01*
X009027Y007140D02*
X008037Y008130D01*
X008023Y008150D01*
X007977Y008190D01*
X007677Y008190D01*
X005937Y009930D01*
X005937Y011010D01*
X006297Y011010D01*
X006297Y013710D01*
X006267Y013740D01*
X006297Y013770D01*
X006957Y013770D01*
X008517Y015330D01*
X014397Y015330D01*
X015057Y014670D01*
X015106Y014650D01*
X015117Y014610D01*
X015117Y012990D01*
X015417Y012690D01*
X015417Y012650D01*
X015417Y011650D01*
X015417Y010650D01*
X015417Y009650D01*
X015417Y008650D01*
X015417Y007650D01*
X015417Y006650D01*
X015417Y005650D01*
X015417Y004650D01*
X015417Y003650D01*
X015087Y003696D02*
X015967Y003696D01*
X015967Y003598D02*
X015087Y003598D01*
X015087Y003499D02*
X015967Y003499D01*
X015967Y003401D02*
X015087Y003401D01*
X015087Y003372D02*
X015087Y003928D01*
X014877Y004138D01*
X014877Y004162D01*
X015087Y004372D01*
X015087Y004928D01*
X014877Y005138D01*
X014877Y005162D01*
X015087Y005372D01*
X015087Y005928D01*
X014877Y006138D01*
X014877Y006162D01*
X015087Y006372D01*
X015087Y006928D01*
X014877Y007138D01*
X014877Y007162D01*
X015087Y007372D01*
X015087Y007928D01*
X014877Y008138D01*
X014877Y008162D01*
X015087Y008372D01*
X015087Y008928D01*
X014877Y009138D01*
X014877Y009162D01*
X015087Y009372D01*
X015087Y009928D01*
X014877Y010138D01*
X014877Y010162D01*
X015087Y010372D01*
X015087Y010928D01*
X014877Y011138D01*
X014877Y011162D01*
X015087Y011372D01*
X015087Y011928D01*
X014877Y012138D01*
X014877Y012162D01*
X015087Y012372D01*
X015087Y012928D01*
X014694Y013320D01*
X014361Y013320D01*
X013696Y013985D01*
X014097Y013985D01*
X014233Y014041D01*
X014337Y014145D01*
X014393Y014281D01*
X014393Y015019D01*
X014337Y015155D01*
X014233Y015259D01*
X014097Y015315D01*
X013625Y015315D01*
X013615Y015326D01*
X013460Y015390D01*
X012947Y015390D01*
X012947Y015391D01*
X012843Y015495D01*
X012707Y015551D01*
X012127Y015551D01*
X011991Y015495D01*
X011886Y015391D01*
X011830Y015255D01*
X011830Y014714D01*
X011857Y014650D01*
X011830Y014586D01*
X011830Y014437D01*
X010495Y013103D01*
X010495Y013377D01*
X010439Y013513D01*
X010335Y013617D01*
X010199Y013673D01*
X009267Y013673D01*
X008635Y014306D01*
X008480Y014370D01*
X008003Y014370D01*
X007906Y014467D01*
X008904Y014467D01*
X008940Y014469D01*
X008974Y014475D01*
X009009Y014483D01*
X009042Y014494D01*
X009075Y014508D01*
X009107Y014524D01*
X009137Y014542D01*
X009165Y014563D01*
X009192Y014586D01*
X009217Y014611D01*
X009240Y014638D01*
X009261Y014666D01*
X009279Y014697D01*
X009296Y014728D01*
X009309Y014761D01*
X009320Y014794D01*
X009328Y014829D01*
X009334Y014864D01*
X009337Y014899D01*
X009337Y015700D01*
X015191Y015700D01*
X015191Y015506D01*
X015302Y015239D01*
X015506Y015035D01*
X015772Y014924D01*
X015967Y014924D01*
X015967Y001376D01*
X015772Y001376D01*
X015506Y001265D01*
X015302Y001061D01*
X015191Y000794D01*
X015191Y000600D01*
X012233Y000600D01*
X012507Y000874D01*
X012507Y001346D01*
X012173Y001680D01*
X011701Y001680D01*
X011491Y001470D01*
X010547Y001470D01*
X010547Y001911D01*
X010178Y002280D01*
X009861Y002280D01*
X009261Y002880D01*
X009401Y003020D01*
X009592Y003020D01*
X009824Y003116D01*
X010001Y003293D01*
X010097Y003525D01*
X010097Y003750D01*
X010737Y003750D01*
X010737Y003525D01*
X010833Y003293D01*
X011010Y003116D01*
X011241Y003020D01*
X011492Y003020D01*
X011724Y003116D01*
X011901Y003293D01*
X011997Y003525D01*
X011997Y003750D01*
X012571Y003750D01*
X012327Y003506D01*
X012327Y003034D01*
X012661Y002700D01*
X012747Y002700D01*
X012747Y002372D01*
X012969Y002150D01*
X012747Y001928D01*
X012747Y001372D01*
X013139Y000980D01*
X013694Y000980D01*
X013917Y001202D01*
X014139Y000980D01*
X014694Y000980D01*
X015087Y001372D01*
X015087Y001928D01*
X014877Y002138D01*
X014877Y002162D01*
X015087Y002372D01*
X015087Y002928D01*
X014877Y003138D01*
X014877Y003162D01*
X015087Y003372D01*
X015016Y003302D02*
X015967Y003302D01*
X015967Y003204D02*
X014918Y003204D01*
X014909Y003105D02*
X015967Y003105D01*
X015967Y003007D02*
X015008Y003007D01*
X015087Y002908D02*
X015967Y002908D01*
X015967Y002810D02*
X015087Y002810D01*
X015087Y002711D02*
X015967Y002711D01*
X015967Y002613D02*
X015087Y002613D01*
X015087Y002514D02*
X015967Y002514D01*
X015967Y002416D02*
X015087Y002416D01*
X015031Y002317D02*
X015967Y002317D01*
X015967Y002219D02*
X014933Y002219D01*
X014894Y002120D02*
X015967Y002120D01*
X015967Y002022D02*
X014993Y002022D01*
X015087Y001923D02*
X015967Y001923D01*
X015967Y001825D02*
X015087Y001825D01*
X015087Y001726D02*
X015967Y001726D01*
X015967Y001628D02*
X015087Y001628D01*
X015087Y001529D02*
X015967Y001529D01*
X015967Y001431D02*
X015087Y001431D01*
X015046Y001332D02*
X015667Y001332D01*
X015474Y001234D02*
X014948Y001234D01*
X014849Y001135D02*
X015376Y001135D01*
X015291Y001037D02*
X014751Y001037D01*
X015210Y000840D02*
X012472Y000840D01*
X012507Y000938D02*
X015251Y000938D01*
X015191Y000741D02*
X012374Y000741D01*
X012275Y000643D02*
X015191Y000643D01*
X015417Y001650D02*
X015417Y002650D01*
X014457Y002670D02*
X014457Y003630D01*
X014417Y003650D01*
X014457Y003690D01*
X014457Y004650D01*
X014417Y004650D01*
X014457Y004650D02*
X014457Y005610D01*
X014417Y005650D01*
X014457Y005670D01*
X014457Y006630D01*
X014417Y006650D01*
X014457Y006690D01*
X014457Y007650D01*
X014417Y007650D01*
X014457Y007650D02*
X014457Y008610D01*
X014417Y008650D01*
X014457Y008670D01*
X014457Y009630D01*
X014417Y009650D01*
X014457Y009690D01*
X014457Y010650D01*
X014417Y010650D01*
X014457Y010650D02*
X014457Y011610D01*
X014417Y011650D01*
X014457Y011670D01*
X014457Y012630D01*
X014417Y012650D01*
X014397Y012690D01*
X012777Y014310D01*
X012417Y014310D01*
X012417Y014315D01*
X012417Y014310D02*
X012297Y014310D01*
X010377Y012390D01*
X010377Y010470D01*
X010327Y010430D01*
X010317Y010410D01*
X008817Y008910D01*
X008817Y008610D01*
X010377Y008610D01*
X010797Y008190D01*
X010810Y008150D01*
X011337Y008310D02*
X011577Y008070D01*
X011937Y008070D01*
X013377Y009510D01*
X013377Y009630D01*
X013417Y009650D01*
X013916Y010099D02*
X013918Y010099D01*
X013917Y010098D02*
X013864Y010150D01*
X013917Y010202D01*
X013969Y010150D01*
X013917Y010098D01*
X013911Y010197D02*
X013922Y010197D01*
X013917Y011098D02*
X013864Y011150D01*
X013917Y011202D01*
X013969Y011150D01*
X013917Y011098D01*
X013896Y011182D02*
X013937Y011182D01*
X013917Y012098D02*
X013864Y012150D01*
X013917Y012202D01*
X013969Y012150D01*
X013917Y012098D01*
X013881Y012167D02*
X013952Y012167D01*
X014881Y012167D02*
X015967Y012167D01*
X015967Y012069D02*
X014946Y012069D01*
X015044Y011970D02*
X015967Y011970D01*
X015967Y011872D02*
X015087Y011872D01*
X015087Y011773D02*
X015967Y011773D01*
X015967Y011675D02*
X015087Y011675D01*
X015087Y011576D02*
X015967Y011576D01*
X015967Y011478D02*
X015087Y011478D01*
X015087Y011379D02*
X015967Y011379D01*
X015967Y011281D02*
X014995Y011281D01*
X014896Y011182D02*
X015967Y011182D01*
X015967Y011084D02*
X014931Y011084D01*
X015029Y010985D02*
X015967Y010985D01*
X015967Y010887D02*
X015087Y010887D01*
X015087Y010788D02*
X015967Y010788D01*
X015967Y010690D02*
X015087Y010690D01*
X015087Y010591D02*
X015967Y010591D01*
X015967Y010493D02*
X015087Y010493D01*
X015087Y010394D02*
X015967Y010394D01*
X015967Y010296D02*
X015010Y010296D01*
X014911Y010197D02*
X015967Y010197D01*
X015967Y010099D02*
X014916Y010099D01*
X015014Y010000D02*
X015967Y010000D01*
X015967Y009902D02*
X015087Y009902D01*
X015087Y009803D02*
X015967Y009803D01*
X015967Y009705D02*
X015087Y009705D01*
X015087Y009606D02*
X015967Y009606D01*
X015967Y009508D02*
X015087Y009508D01*
X015087Y009409D02*
X015967Y009409D01*
X015967Y009311D02*
X015025Y009311D01*
X014926Y009212D02*
X015967Y009212D01*
X015967Y009114D02*
X014901Y009114D01*
X014999Y009015D02*
X015967Y009015D01*
X015967Y008917D02*
X015087Y008917D01*
X015087Y008818D02*
X015967Y008818D01*
X015967Y008720D02*
X015087Y008720D01*
X015087Y008621D02*
X015967Y008621D01*
X015967Y008523D02*
X015087Y008523D01*
X015087Y008424D02*
X015967Y008424D01*
X015967Y008326D02*
X015040Y008326D01*
X014941Y008227D02*
X015967Y008227D01*
X015967Y008129D02*
X014886Y008129D01*
X014984Y008030D02*
X015967Y008030D01*
X015967Y007932D02*
X015083Y007932D01*
X015087Y007833D02*
X015967Y007833D01*
X015967Y007735D02*
X015087Y007735D01*
X015087Y007636D02*
X015967Y007636D01*
X015967Y007538D02*
X015087Y007538D01*
X015087Y007439D02*
X015967Y007439D01*
X015967Y007341D02*
X015055Y007341D01*
X014956Y007242D02*
X015967Y007242D01*
X015967Y007144D02*
X014877Y007144D01*
X014969Y007045D02*
X015967Y007045D01*
X015967Y006947D02*
X015068Y006947D01*
X015087Y006848D02*
X015967Y006848D01*
X015967Y006750D02*
X015087Y006750D01*
X015087Y006651D02*
X015967Y006651D01*
X015967Y006553D02*
X015087Y006553D01*
X015087Y006454D02*
X015967Y006454D01*
X015967Y006356D02*
X015070Y006356D01*
X014971Y006257D02*
X015967Y006257D01*
X015967Y006159D02*
X014877Y006159D01*
X014954Y006060D02*
X015967Y006060D01*
X015967Y005962D02*
X015053Y005962D01*
X015087Y005863D02*
X015967Y005863D01*
X015967Y005765D02*
X015087Y005765D01*
X015087Y005666D02*
X015967Y005666D01*
X015967Y005568D02*
X015087Y005568D01*
X015087Y005469D02*
X015967Y005469D01*
X015967Y005371D02*
X015085Y005371D01*
X014986Y005272D02*
X015967Y005272D01*
X015967Y005174D02*
X014888Y005174D01*
X014939Y005075D02*
X015967Y005075D01*
X015967Y004977D02*
X015038Y004977D01*
X015087Y004878D02*
X015967Y004878D01*
X015967Y004780D02*
X015087Y004780D01*
X015087Y004681D02*
X015967Y004681D01*
X015967Y004583D02*
X015087Y004583D01*
X015087Y004484D02*
X015967Y004484D01*
X015967Y004386D02*
X015087Y004386D01*
X015001Y004287D02*
X015967Y004287D01*
X015967Y004189D02*
X014903Y004189D01*
X014924Y004090D02*
X015967Y004090D01*
X015967Y003992D02*
X015023Y003992D01*
X015087Y003893D02*
X015967Y003893D01*
X015967Y003795D02*
X015087Y003795D01*
X013977Y003570D02*
X013977Y002730D01*
X013917Y002730D01*
X013917Y003030D01*
X013917Y003098D02*
X013864Y003150D01*
X013917Y003202D01*
X013969Y003150D01*
X013917Y003098D01*
X013924Y003105D02*
X013909Y003105D01*
X013857Y003570D02*
X013977Y003570D01*
X013857Y003570D02*
X013857Y002430D01*
X013617Y002190D01*
X013317Y002190D01*
X012777Y001650D01*
X011917Y001650D01*
X011877Y001650D01*
X011457Y001230D01*
X008757Y001230D01*
X008337Y001650D01*
X006917Y001650D01*
X007067Y001726D02*
X006528Y001726D01*
X006568Y001628D02*
X007165Y001628D01*
X007201Y001592D02*
X007319Y001474D01*
X007473Y001410D01*
X008011Y001410D01*
X007887Y001286D01*
X007887Y000814D01*
X008101Y000600D01*
X006538Y000600D01*
X006587Y000717D01*
X006587Y001583D01*
X006485Y001830D01*
X006297Y002017D01*
X006537Y002256D01*
X007201Y001592D01*
X007264Y001529D02*
X006587Y001529D01*
X006587Y001431D02*
X007424Y001431D01*
X007887Y001234D02*
X006587Y001234D01*
X006587Y001332D02*
X007933Y001332D01*
X007887Y001135D02*
X006587Y001135D01*
X006587Y001037D02*
X007887Y001037D01*
X007887Y000938D02*
X006587Y000938D01*
X006587Y000840D02*
X007887Y000840D01*
X007960Y000741D02*
X006587Y000741D01*
X006556Y000643D02*
X008058Y000643D01*
X008457Y001050D02*
X011877Y001050D01*
X011937Y001110D01*
X012324Y001529D02*
X012747Y001529D01*
X012747Y001431D02*
X012422Y001431D01*
X012507Y001332D02*
X012787Y001332D01*
X012886Y001234D02*
X012507Y001234D01*
X012507Y001135D02*
X012984Y001135D01*
X013083Y001037D02*
X012507Y001037D01*
X012747Y001628D02*
X012225Y001628D01*
X012747Y001726D02*
X010547Y001726D01*
X010547Y001628D02*
X011648Y001628D01*
X011550Y001529D02*
X010547Y001529D01*
X010547Y001825D02*
X012747Y001825D01*
X012747Y001923D02*
X010535Y001923D01*
X010436Y002022D02*
X012841Y002022D01*
X012939Y002120D02*
X010338Y002120D01*
X010239Y002219D02*
X012901Y002219D01*
X012802Y002317D02*
X009824Y002317D01*
X009725Y002416D02*
X012747Y002416D01*
X012747Y002514D02*
X009627Y002514D01*
X009528Y002613D02*
X012747Y002613D01*
X012650Y002711D02*
X009430Y002711D01*
X009331Y002810D02*
X012551Y002810D01*
X012453Y002908D02*
X009289Y002908D01*
X009387Y003007D02*
X012354Y003007D01*
X012327Y003105D02*
X011697Y003105D01*
X011811Y003204D02*
X012327Y003204D01*
X012327Y003302D02*
X011904Y003302D01*
X011945Y003401D02*
X012327Y003401D01*
X012327Y003499D02*
X011986Y003499D01*
X011997Y003598D02*
X012418Y003598D01*
X012517Y003696D02*
X011997Y003696D01*
X012897Y003270D02*
X012897Y003150D01*
X013377Y002670D01*
X013417Y002650D01*
X013917Y002202D02*
X013969Y002150D01*
X013917Y002098D01*
X013864Y002150D01*
X013917Y002202D01*
X013939Y002120D02*
X013894Y002120D01*
X014417Y001650D02*
X014457Y001650D01*
X014457Y002610D01*
X014417Y002650D01*
X014457Y002670D01*
X013984Y001135D02*
X013849Y001135D01*
X013751Y001037D02*
X014083Y001037D01*
X011641Y000600D02*
X008813Y000600D01*
X008843Y000630D01*
X011611Y000630D01*
X011641Y000600D01*
X009917Y001650D02*
X009897Y001650D01*
X008577Y002970D01*
X007077Y002970D01*
X007025Y002964D01*
X006717Y002910D02*
X006717Y002670D01*
X007557Y001830D01*
X008697Y001830D01*
X008877Y001650D01*
X008917Y001650D01*
X008626Y002250D02*
X007731Y002250D01*
X007457Y002523D01*
X007468Y002550D01*
X008403Y002550D01*
X008673Y002280D01*
X008656Y002280D01*
X008626Y002250D01*
X008636Y002317D02*
X007664Y002317D01*
X007565Y002416D02*
X008537Y002416D01*
X008439Y002514D02*
X007467Y002514D01*
X006870Y001923D02*
X006391Y001923D01*
X006302Y002022D02*
X006771Y002022D01*
X006673Y002120D02*
X006401Y002120D01*
X006499Y002219D02*
X006574Y002219D01*
X006487Y001825D02*
X006968Y001825D01*
X006357Y002670D02*
X005817Y002130D01*
X005817Y002910D01*
X005765Y002959D01*
X006057Y002970D02*
X006080Y002961D01*
X006057Y002970D02*
X006057Y003270D01*
X006027Y003300D01*
X006057Y003330D01*
X006057Y004350D01*
X005757Y004650D01*
X005757Y006330D01*
X005753Y006339D01*
X005697Y006390D01*
X005697Y006630D01*
X005397Y006930D01*
X004257Y006930D01*
X003477Y006150D01*
X003117Y006150D01*
X003086Y006107D01*
X003153Y006120D02*
X002937Y006120D01*
X002937Y006124D01*
X003079Y006267D01*
X003211Y006267D01*
X003362Y006329D01*
X003153Y006120D01*
X003191Y006159D02*
X002971Y006159D01*
X003070Y006257D02*
X003290Y006257D01*
X003651Y006618D02*
X003783Y006750D01*
X003705Y006750D01*
X003651Y006618D01*
X003664Y006651D02*
X003684Y006651D01*
X003705Y006750D02*
X003782Y006750D01*
X003417Y007170D02*
X003297Y007290D01*
X002577Y007290D01*
X001437Y006150D01*
X001417Y006150D01*
X001417Y005150D02*
X001437Y005130D01*
X003057Y005130D01*
X003357Y005430D01*
X004197Y005430D01*
X004224Y005431D01*
X004225Y005117D02*
X004197Y005070D01*
X003897Y005070D01*
X003117Y004290D01*
X003117Y002970D01*
X003897Y002190D01*
X003897Y001170D01*
X003917Y001150D01*
X004528Y001726D02*
X005306Y001726D01*
X005347Y001825D02*
X005117Y001825D01*
X005093Y001800D02*
X005397Y002104D01*
X005397Y001878D01*
X005349Y001830D01*
X005247Y001583D01*
X005247Y000717D01*
X005295Y000600D01*
X004538Y000600D01*
X004587Y000717D01*
X004587Y001583D01*
X004497Y001800D01*
X004613Y001800D01*
X004617Y001804D01*
X004621Y001800D01*
X005093Y001800D01*
X005216Y001923D02*
X005397Y001923D01*
X005397Y002022D02*
X005314Y002022D01*
X005397Y001650D02*
X004917Y001170D01*
X004917Y001150D01*
X004587Y001135D02*
X005247Y001135D01*
X005247Y001037D02*
X004587Y001037D01*
X004587Y000938D02*
X005247Y000938D01*
X005247Y000840D02*
X004587Y000840D01*
X004587Y000741D02*
X005247Y000741D01*
X005277Y000643D02*
X004556Y000643D01*
X004587Y001234D02*
X005247Y001234D01*
X005247Y001332D02*
X004587Y001332D01*
X004587Y001431D02*
X005247Y001431D01*
X005247Y001529D02*
X004587Y001529D01*
X004568Y001628D02*
X005265Y001628D01*
X005397Y001650D02*
X005397Y002910D01*
X005450Y002958D01*
X005457Y002970D01*
X005457Y003210D01*
X005637Y003390D01*
X005937Y003390D01*
X006027Y003300D01*
X006357Y002970D02*
X006395Y002962D01*
X006357Y002910D01*
X006357Y002670D01*
X006357Y002970D02*
X006357Y005430D01*
X006657Y005730D01*
X006657Y006330D01*
X006698Y006343D01*
X006717Y006390D01*
X006717Y006630D01*
X006807Y006720D01*
X006777Y006750D01*
X006777Y007170D01*
X006417Y007530D01*
X006417Y007050D02*
X005817Y007650D01*
X005757Y007650D01*
X005637Y007770D01*
X005637Y009690D01*
X005217Y009304D02*
X005217Y008803D01*
X005217Y008803D01*
X005217Y008934D01*
X005153Y009088D01*
X004557Y009684D01*
X004557Y011436D01*
X004945Y011824D01*
X005188Y012067D01*
X006199Y012067D01*
X006335Y012123D01*
X006439Y012227D01*
X006495Y012363D01*
X006495Y013377D01*
X006439Y013513D01*
X006335Y013617D01*
X006199Y013673D01*
X005711Y013673D01*
X005762Y013724D01*
X005818Y013860D01*
X005818Y014440D01*
X005807Y014467D01*
X007327Y014467D01*
X007047Y014186D01*
X007047Y013714D01*
X007381Y013380D01*
X007853Y013380D01*
X008003Y013530D01*
X008223Y013530D01*
X008349Y013404D01*
X008338Y013377D01*
X008338Y012363D01*
X008394Y012227D01*
X008498Y012123D01*
X008634Y012067D01*
X009387Y012067D01*
X009387Y011914D01*
X009721Y011580D01*
X009957Y011580D01*
X009957Y011217D01*
X009877Y011184D01*
X009872Y011178D01*
X009866Y011184D01*
X009730Y011240D01*
X009103Y011240D01*
X008967Y011184D01*
X008863Y011080D01*
X008807Y010944D01*
X008807Y009916D01*
X008863Y009780D01*
X008967Y009676D01*
X008983Y009670D01*
X008637Y009324D01*
X007195Y010766D01*
X007040Y010830D01*
X006937Y010830D01*
X006937Y010944D01*
X006880Y011080D01*
X006776Y011184D01*
X006640Y011240D01*
X006013Y011240D01*
X005877Y011184D01*
X005872Y011178D01*
X005866Y011184D01*
X005730Y011240D01*
X005103Y011240D01*
X004967Y011184D01*
X004863Y011080D01*
X004807Y010944D01*
X004807Y009916D01*
X004863Y009780D01*
X004967Y009676D01*
X005067Y009635D01*
X005067Y009454D01*
X005217Y009304D01*
X005210Y009311D02*
X004930Y009311D01*
X004832Y009409D02*
X005112Y009409D01*
X005067Y009508D02*
X004733Y009508D01*
X004635Y009606D02*
X005067Y009606D01*
X004939Y009705D02*
X004557Y009705D01*
X004497Y009630D02*
X004497Y010410D01*
X004507Y010430D01*
X004557Y010470D01*
X005097Y011010D01*
X005937Y011010D01*
X005875Y011182D02*
X005868Y011182D01*
X006297Y011010D02*
X006657Y011010D01*
X007197Y010470D01*
X008457Y010470D01*
X008507Y010430D01*
X008807Y010394D02*
X007567Y010394D01*
X007665Y010296D02*
X008807Y010296D01*
X008807Y010197D02*
X007764Y010197D01*
X007862Y010099D02*
X008807Y010099D01*
X008807Y010000D02*
X007961Y010000D01*
X008059Y009902D02*
X008813Y009902D01*
X008854Y009803D02*
X008158Y009803D01*
X008256Y009705D02*
X008939Y009705D01*
X008919Y009606D02*
X008355Y009606D01*
X008453Y009508D02*
X008820Y009508D01*
X008722Y009409D02*
X008552Y009409D01*
X007955Y008818D02*
X007181Y008818D01*
X007140Y008835D02*
X007047Y008835D01*
X007047Y009026D01*
X006713Y009360D01*
X006241Y009360D01*
X006237Y009356D01*
X006233Y009360D01*
X006113Y009360D01*
X006207Y009454D01*
X006207Y009620D01*
X006640Y009620D01*
X006776Y009676D01*
X006880Y009780D01*
X006913Y009860D01*
X008199Y008574D01*
X008184Y008539D01*
X008184Y007920D01*
X008041Y007920D01*
X007891Y007770D01*
X007791Y007770D01*
X007436Y008124D01*
X007436Y008539D01*
X007380Y008675D01*
X007276Y008779D01*
X007140Y008835D01*
X007047Y008917D02*
X007856Y008917D01*
X007758Y009015D02*
X007047Y009015D01*
X006959Y009114D02*
X007659Y009114D01*
X007561Y009212D02*
X006861Y009212D01*
X006762Y009311D02*
X007462Y009311D01*
X007364Y009409D02*
X006162Y009409D01*
X006207Y009508D02*
X007265Y009508D01*
X007167Y009606D02*
X006207Y009606D01*
X006804Y009705D02*
X007068Y009705D01*
X006970Y009803D02*
X006890Y009803D01*
X006957Y010410D02*
X006357Y010410D01*
X006327Y010430D01*
X006957Y010410D02*
X008817Y008550D01*
X008817Y008190D01*
X008810Y008150D01*
X008817Y008550D02*
X008817Y008610D01*
X008184Y008523D02*
X007436Y008523D01*
X007436Y008424D02*
X008184Y008424D01*
X008184Y008326D02*
X007436Y008326D01*
X007436Y008227D02*
X008184Y008227D01*
X008184Y008129D02*
X007436Y008129D01*
X007531Y008030D02*
X008184Y008030D01*
X008184Y007932D02*
X007629Y007932D01*
X007728Y007833D02*
X007954Y007833D01*
X008277Y007350D02*
X007617Y007350D01*
X006837Y008130D01*
X006810Y008150D01*
X006777Y008190D01*
X006477Y008490D01*
X006477Y008790D01*
X005997Y008790D02*
X005997Y008190D01*
X006023Y008150D01*
X005397Y007530D02*
X004797Y008130D01*
X004810Y008150D01*
X004797Y008190D01*
X004797Y008850D01*
X004137Y009510D01*
X004137Y011610D01*
X004707Y012180D01*
X003297Y013590D01*
X002877Y013590D01*
X002697Y013410D01*
X002697Y012450D01*
X001437Y011190D01*
X001417Y011150D01*
X001417Y010150D02*
X002517Y011250D01*
X002517Y011850D01*
X003057Y012390D01*
X003086Y012406D01*
X003666Y012167D02*
X004100Y012167D01*
X004113Y012180D02*
X003899Y011966D01*
X003899Y011966D01*
X003781Y011848D01*
X003717Y011694D01*
X003717Y009426D01*
X003781Y009272D01*
X003899Y009154D01*
X004309Y008743D01*
X004241Y008675D01*
X004184Y008539D01*
X004184Y007761D01*
X004241Y007625D01*
X004276Y007590D01*
X003803Y007590D01*
X004047Y007834D01*
X004047Y008306D01*
X003713Y008640D01*
X003694Y008640D01*
X003618Y008824D01*
X003580Y008863D01*
X003618Y008901D01*
X003713Y009131D01*
X003713Y009381D01*
X003618Y009612D01*
X003580Y009650D01*
X003618Y009688D01*
X003713Y009919D01*
X003713Y010169D01*
X003618Y010399D01*
X003580Y010437D01*
X003618Y010476D01*
X003713Y010706D01*
X003713Y010956D01*
X003618Y011187D01*
X003580Y011225D01*
X003618Y011263D01*
X003713Y011494D01*
X003713Y011743D01*
X003618Y011974D01*
X003580Y012012D01*
X003618Y012050D01*
X003713Y012281D01*
X003713Y012531D01*
X003679Y012614D01*
X004113Y012180D01*
X004027Y012266D02*
X003707Y012266D01*
X003713Y012364D02*
X003929Y012364D01*
X003830Y012463D02*
X003713Y012463D01*
X003701Y012561D02*
X003732Y012561D01*
X003625Y012069D02*
X004001Y012069D01*
X003903Y011970D02*
X003620Y011970D01*
X003660Y011872D02*
X003804Y011872D01*
X003750Y011773D02*
X003701Y011773D01*
X003713Y011675D02*
X003717Y011675D01*
X003713Y011576D02*
X003717Y011576D01*
X003707Y011478D02*
X003717Y011478D01*
X003717Y011379D02*
X003666Y011379D01*
X003625Y011281D02*
X003717Y011281D01*
X003717Y011182D02*
X003620Y011182D01*
X003661Y011084D02*
X003717Y011084D01*
X003717Y010985D02*
X003701Y010985D01*
X003713Y010887D02*
X003717Y010887D01*
X003713Y010788D02*
X003717Y010788D01*
X003706Y010690D02*
X003717Y010690D01*
X003717Y010591D02*
X003666Y010591D01*
X003625Y010493D02*
X003717Y010493D01*
X003717Y010394D02*
X003620Y010394D01*
X003661Y010296D02*
X003717Y010296D01*
X003717Y010197D02*
X003702Y010197D01*
X003713Y010099D02*
X003717Y010099D01*
X003713Y010000D02*
X003717Y010000D01*
X003706Y009902D02*
X003717Y009902D01*
X003717Y009803D02*
X003665Y009803D01*
X003625Y009705D02*
X003717Y009705D01*
X003717Y009606D02*
X003620Y009606D01*
X003661Y009508D02*
X003717Y009508D01*
X003724Y009409D02*
X003702Y009409D01*
X003713Y009311D02*
X003765Y009311D01*
X003713Y009212D02*
X003841Y009212D01*
X003939Y009114D02*
X003706Y009114D01*
X003665Y009015D02*
X004038Y009015D01*
X004017Y009150D02*
X004017Y008190D01*
X004023Y008150D01*
X004047Y008129D02*
X004184Y008129D01*
X004184Y008227D02*
X004047Y008227D01*
X004027Y008326D02*
X004184Y008326D01*
X004184Y008424D02*
X003929Y008424D01*
X003830Y008523D02*
X004184Y008523D01*
X004219Y008621D02*
X003732Y008621D01*
X003661Y008720D02*
X004286Y008720D01*
X004235Y008818D02*
X003621Y008818D01*
X003624Y008917D02*
X004136Y008917D01*
X004184Y008030D02*
X004047Y008030D01*
X004047Y007932D02*
X004184Y007932D01*
X004184Y007833D02*
X004046Y007833D01*
X003947Y007735D02*
X004196Y007735D01*
X004236Y007636D02*
X003849Y007636D01*
X003477Y008070D02*
X001497Y008070D01*
X001417Y008150D01*
X002164Y007650D02*
X002253Y007561D01*
X002339Y007646D01*
X002348Y007650D01*
X002164Y007650D01*
X002164Y007650D01*
X002178Y007636D02*
X002329Y007636D01*
X002301Y008490D02*
X002285Y008530D01*
X002164Y008650D01*
X002285Y008770D01*
X002387Y009017D01*
X002387Y009283D01*
X002321Y009441D01*
X002561Y009681D01*
X002592Y009650D01*
X002554Y009612D01*
X002458Y009381D01*
X002458Y009131D01*
X002554Y008901D01*
X002592Y008863D01*
X002554Y008824D01*
X002458Y008594D01*
X002458Y008490D01*
X002301Y008490D01*
X002288Y008523D02*
X002458Y008523D01*
X002470Y008621D02*
X002193Y008621D01*
X002234Y008720D02*
X002511Y008720D01*
X002551Y008818D02*
X002304Y008818D01*
X002345Y008917D02*
X002548Y008917D01*
X002507Y009015D02*
X002386Y009015D01*
X002387Y009114D02*
X002466Y009114D01*
X002458Y009212D02*
X002387Y009212D01*
X002375Y009311D02*
X002458Y009311D01*
X002470Y009409D02*
X002335Y009409D01*
X002388Y009508D02*
X002511Y009508D01*
X002487Y009606D02*
X002552Y009606D01*
X002697Y010410D02*
X002697Y011250D01*
X003057Y011610D01*
X003086Y011619D01*
X002233Y012581D02*
X002096Y012718D01*
X001850Y012820D01*
X000983Y012820D01*
X000867Y012772D01*
X000867Y014924D01*
X001061Y014924D01*
X001233Y014996D01*
X001233Y014899D01*
X001236Y014864D01*
X001242Y014829D01*
X001250Y014794D01*
X001261Y014761D01*
X001274Y014728D01*
X001290Y014697D01*
X001309Y014666D01*
X001330Y014638D01*
X001353Y014611D01*
X001378Y014586D01*
X001405Y014563D01*
X001433Y014542D01*
X001463Y014524D01*
X001495Y014508D01*
X001527Y014494D01*
X001561Y014483D01*
X001595Y014475D01*
X001630Y014469D01*
X001666Y014467D01*
X004026Y014467D01*
X004015Y014440D01*
X004015Y013860D01*
X004047Y013784D01*
X004047Y013434D01*
X003535Y013946D01*
X003380Y014010D01*
X003213Y014010D01*
X002793Y014010D01*
X002639Y013946D01*
X002521Y013828D01*
X002341Y013648D01*
X002277Y013494D01*
X002277Y012624D01*
X002233Y012581D01*
X002277Y012660D02*
X002155Y012660D01*
X002277Y012758D02*
X002000Y012758D01*
X002277Y012857D02*
X000867Y012857D01*
X000867Y012955D02*
X002277Y012955D01*
X002277Y013054D02*
X000867Y013054D01*
X000867Y013152D02*
X002277Y013152D01*
X002277Y013251D02*
X000867Y013251D01*
X000867Y013349D02*
X002277Y013349D01*
X002277Y013448D02*
X000867Y013448D01*
X000867Y013546D02*
X002298Y013546D01*
X002339Y013645D02*
X000867Y013645D01*
X000867Y013743D02*
X002436Y013743D01*
X002534Y013842D02*
X000867Y013842D01*
X000867Y013940D02*
X002633Y013940D01*
X002157Y013170D02*
X003537Y014550D01*
X005457Y014550D01*
X006267Y013740D01*
X006268Y013645D02*
X007116Y013645D01*
X007047Y013743D02*
X005770Y013743D01*
X005811Y013842D02*
X007047Y013842D01*
X007047Y013940D02*
X005818Y013940D01*
X005818Y014039D02*
X007047Y014039D01*
X007047Y014137D02*
X005818Y014137D01*
X005818Y014236D02*
X007096Y014236D01*
X007195Y014334D02*
X005818Y014334D01*
X005818Y014433D02*
X007293Y014433D01*
X007617Y013950D02*
X008397Y013950D01*
X009417Y012930D01*
X009417Y012870D01*
X009417Y012870D01*
X009957Y012330D01*
X009957Y012150D01*
X009528Y011773D02*
X004894Y011773D01*
X004945Y011824D02*
X004945Y011824D01*
X004992Y011872D02*
X009429Y011872D01*
X009387Y011970D02*
X005091Y011970D01*
X004795Y011675D02*
X009626Y011675D01*
X009957Y011576D02*
X004697Y011576D01*
X004598Y011478D02*
X009957Y011478D01*
X009957Y011379D02*
X004557Y011379D01*
X004557Y011281D02*
X009957Y011281D01*
X009875Y011182D02*
X009868Y011182D01*
X008965Y011182D02*
X006778Y011182D01*
X006876Y011084D02*
X008867Y011084D01*
X008824Y010985D02*
X006920Y010985D01*
X006937Y010887D02*
X008807Y010887D01*
X008807Y010788D02*
X007142Y010788D01*
X007271Y010690D02*
X008807Y010690D01*
X008807Y010591D02*
X007370Y010591D01*
X007468Y010493D02*
X008807Y010493D01*
X009910Y009409D02*
X010070Y009409D01*
X010008Y009508D02*
X010168Y009508D01*
X010201Y009540D02*
X009867Y009206D01*
X009867Y009030D01*
X009531Y009030D01*
X010121Y009620D01*
X010640Y009620D01*
X010776Y009676D01*
X010880Y009780D01*
X010937Y009916D01*
X010937Y010944D01*
X010880Y011080D01*
X010797Y011163D01*
X010797Y012216D01*
X011126Y012545D01*
X011120Y012531D01*
X011120Y012281D01*
X011215Y012050D01*
X011254Y012012D01*
X011215Y011974D01*
X011120Y011743D01*
X011120Y011494D01*
X011215Y011263D01*
X011254Y011225D01*
X011215Y011187D01*
X011120Y010956D01*
X011120Y010706D01*
X011215Y010476D01*
X011254Y010437D01*
X011215Y010399D01*
X011120Y010169D01*
X011120Y009919D01*
X011215Y009688D01*
X011254Y009650D01*
X011215Y009612D01*
X011120Y009381D01*
X011120Y009241D01*
X011035Y009326D01*
X010880Y009390D01*
X010823Y009390D01*
X010673Y009540D01*
X010201Y009540D01*
X010107Y009606D02*
X011213Y009606D01*
X011209Y009705D02*
X010804Y009705D01*
X010890Y009803D02*
X011168Y009803D01*
X011127Y009902D02*
X010931Y009902D01*
X010937Y010000D02*
X011120Y010000D01*
X011120Y010099D02*
X010937Y010099D01*
X010937Y010197D02*
X011132Y010197D01*
X011173Y010296D02*
X010937Y010296D01*
X010937Y010394D02*
X011213Y010394D01*
X011208Y010493D02*
X010937Y010493D01*
X010937Y010591D02*
X011168Y010591D01*
X011127Y010690D02*
X010937Y010690D01*
X010937Y010788D02*
X011120Y010788D01*
X011120Y010887D02*
X010937Y010887D01*
X010920Y010985D02*
X011132Y010985D01*
X011173Y011084D02*
X010876Y011084D01*
X010797Y011182D02*
X011214Y011182D01*
X011208Y011281D02*
X010797Y011281D01*
X010797Y011379D02*
X011167Y011379D01*
X011127Y011478D02*
X010797Y011478D01*
X010797Y011576D02*
X011120Y011576D01*
X011120Y011675D02*
X010797Y011675D01*
X010797Y011773D02*
X011132Y011773D01*
X011173Y011872D02*
X010797Y011872D01*
X010797Y011970D02*
X011214Y011970D01*
X011208Y012069D02*
X010797Y012069D01*
X010797Y012167D02*
X011167Y012167D01*
X011126Y012266D02*
X010846Y012266D01*
X010945Y012364D02*
X011120Y012364D01*
X011120Y012463D02*
X011043Y012463D01*
X010545Y013152D02*
X010495Y013152D01*
X010495Y013251D02*
X010643Y013251D01*
X010742Y013349D02*
X010495Y013349D01*
X010466Y013448D02*
X010840Y013448D01*
X010939Y013546D02*
X010406Y013546D01*
X010268Y013645D02*
X011037Y013645D01*
X011136Y013743D02*
X009198Y013743D01*
X009099Y013842D02*
X011234Y013842D01*
X011333Y013940D02*
X009001Y013940D01*
X008902Y014039D02*
X011431Y014039D01*
X011530Y014137D02*
X008804Y014137D01*
X008705Y014236D02*
X011628Y014236D01*
X011727Y014334D02*
X008567Y014334D01*
X007940Y014433D02*
X011825Y014433D01*
X011830Y014531D02*
X009119Y014531D01*
X009233Y014630D02*
X011848Y014630D01*
X011830Y014728D02*
X009296Y014728D01*
X009328Y014827D02*
X011830Y014827D01*
X011830Y014925D02*
X009337Y014925D01*
X009337Y015024D02*
X011830Y015024D01*
X011830Y015122D02*
X009337Y015122D01*
X009337Y015221D02*
X011830Y015221D01*
X011857Y015319D02*
X009337Y015319D01*
X009337Y015418D02*
X011913Y015418D01*
X012041Y015516D02*
X009337Y015516D01*
X009337Y015615D02*
X015191Y015615D01*
X015191Y015516D02*
X012792Y015516D01*
X012920Y015418D02*
X015228Y015418D01*
X015268Y015319D02*
X013622Y015319D01*
X013377Y014970D02*
X013677Y014670D01*
X013728Y014650D01*
X013377Y014970D02*
X012417Y014970D01*
X012417Y014985D01*
X012329Y013749D02*
X012707Y013749D01*
X012733Y013759D01*
X013173Y013320D01*
X013139Y013320D01*
X012747Y012928D01*
X012747Y012372D01*
X012969Y012150D01*
X012747Y011928D01*
X012747Y011372D01*
X012969Y011150D01*
X012747Y010928D01*
X012747Y010372D01*
X012969Y010150D01*
X012747Y009928D01*
X012747Y009474D01*
X012354Y009081D01*
X012375Y009131D01*
X012375Y009381D01*
X012279Y009612D01*
X012241Y009650D01*
X012279Y009688D01*
X012375Y009919D01*
X012375Y010169D01*
X012279Y010399D01*
X012241Y010437D01*
X012279Y010476D01*
X012375Y010706D01*
X012375Y010956D01*
X012279Y011187D01*
X012241Y011225D01*
X012279Y011263D01*
X012375Y011494D01*
X012375Y011743D01*
X012279Y011974D01*
X012241Y012012D01*
X012279Y012050D01*
X012375Y012281D01*
X012375Y012531D01*
X012279Y012761D01*
X012241Y012800D01*
X012279Y012838D01*
X012375Y013068D01*
X012375Y013318D01*
X012279Y013549D01*
X012204Y013624D01*
X012329Y013749D01*
X012324Y013743D02*
X012750Y013743D01*
X012848Y013645D02*
X012225Y013645D01*
X012280Y013546D02*
X012947Y013546D01*
X013045Y013448D02*
X012321Y013448D01*
X012362Y013349D02*
X013144Y013349D01*
X013070Y013251D02*
X012375Y013251D01*
X012375Y013152D02*
X012971Y013152D01*
X012873Y013054D02*
X012369Y013054D01*
X012328Y012955D02*
X012774Y012955D01*
X012747Y012857D02*
X012287Y012857D01*
X012281Y012758D02*
X012747Y012758D01*
X012747Y012660D02*
X012321Y012660D01*
X012362Y012561D02*
X012747Y012561D01*
X012747Y012463D02*
X012375Y012463D01*
X012375Y012364D02*
X012755Y012364D01*
X012854Y012266D02*
X012368Y012266D01*
X012328Y012167D02*
X012952Y012167D01*
X012888Y012069D02*
X012287Y012069D01*
X012281Y011970D02*
X012789Y011970D01*
X012747Y011872D02*
X012322Y011872D01*
X012363Y011773D02*
X012747Y011773D01*
X012747Y011675D02*
X012375Y011675D01*
X012375Y011576D02*
X012747Y011576D01*
X012747Y011478D02*
X012368Y011478D01*
X012327Y011379D02*
X012747Y011379D01*
X012839Y011281D02*
X012287Y011281D01*
X012281Y011182D02*
X012937Y011182D01*
X012903Y011084D02*
X012322Y011084D01*
X012363Y010985D02*
X012804Y010985D01*
X012747Y010887D02*
X012375Y010887D01*
X012375Y010788D02*
X012747Y010788D01*
X012747Y010690D02*
X012368Y010690D01*
X012327Y010591D02*
X012747Y010591D01*
X012747Y010493D02*
X012286Y010493D01*
X012281Y010394D02*
X012747Y010394D01*
X012824Y010296D02*
X012322Y010296D01*
X012363Y010197D02*
X012922Y010197D01*
X012918Y010099D02*
X012375Y010099D01*
X012375Y010000D02*
X012819Y010000D01*
X012747Y009902D02*
X012368Y009902D01*
X012327Y009803D02*
X012747Y009803D01*
X012747Y009705D02*
X012286Y009705D01*
X012282Y009606D02*
X012747Y009606D01*
X012747Y009508D02*
X012322Y009508D01*
X012363Y009409D02*
X012682Y009409D01*
X012583Y009311D02*
X012375Y009311D01*
X012375Y009212D02*
X012485Y009212D01*
X012386Y009114D02*
X012367Y009114D01*
X011337Y008430D02*
X011337Y008310D01*
X011337Y008430D02*
X010797Y008970D01*
X010437Y008970D01*
X009971Y009311D02*
X009811Y009311D01*
X009873Y009212D02*
X009713Y009212D01*
X009614Y009114D02*
X009867Y009114D01*
X010705Y009508D02*
X011172Y009508D01*
X011131Y009409D02*
X010804Y009409D01*
X011050Y009311D02*
X011120Y009311D01*
X010797Y007530D02*
X010797Y006690D01*
X010810Y006650D01*
X010023Y006650D02*
X010017Y006690D01*
X009477Y006690D01*
X009027Y007140D01*
X008817Y006690D02*
X008810Y006650D01*
X008817Y006690D02*
X009477Y006690D01*
X009177Y005430D02*
X013197Y005430D01*
X013417Y005650D01*
X012879Y006060D02*
X012375Y006060D01*
X012366Y005962D02*
X012781Y005962D01*
X012747Y005863D02*
X012326Y005863D01*
X010737Y003696D02*
X010097Y003696D01*
X010097Y003598D02*
X010737Y003598D01*
X010747Y003499D02*
X010086Y003499D01*
X010045Y003401D02*
X010788Y003401D01*
X010829Y003302D02*
X010004Y003302D01*
X009911Y003204D02*
X010922Y003204D01*
X011036Y003105D02*
X009797Y003105D01*
X009467Y003650D02*
X009417Y003630D01*
X008757Y002970D01*
X008577Y002970D01*
X008583Y003390D02*
X008231Y003390D01*
X008231Y003450D01*
X008643Y003450D01*
X008583Y003390D01*
X008593Y003401D02*
X008231Y003401D01*
X007611Y003554D02*
X007557Y003570D01*
X006710Y002963D02*
X006717Y002910D01*
X005817Y002130D02*
X005817Y001230D01*
X005877Y001170D01*
X005917Y001150D01*
X004857Y002370D02*
X004857Y002910D01*
X004820Y002956D01*
X005135Y002957D02*
X005157Y002970D01*
X005157Y003330D01*
X005697Y003870D01*
X005517Y004170D02*
X005517Y004410D01*
X005517Y004170D02*
X004917Y003570D01*
X004257Y003570D01*
X004231Y003542D01*
X004229Y003857D02*
X004197Y003870D01*
X003657Y003870D01*
X003297Y003990D02*
X003297Y003450D01*
X004377Y002370D01*
X004340Y003001D02*
X004279Y003062D01*
X004340Y003062D01*
X004340Y003001D01*
X004340Y003007D02*
X004334Y003007D01*
X003477Y002130D02*
X001437Y002130D01*
X001417Y002150D01*
X001850Y001480D02*
X000983Y001480D01*
X000867Y001528D01*
X000867Y001376D01*
X001061Y001376D01*
X001328Y001265D01*
X001532Y001061D01*
X001642Y000794D01*
X001642Y000600D01*
X002295Y000600D01*
X002247Y000717D01*
X002247Y001583D01*
X002299Y001710D01*
X002224Y001710D01*
X002096Y001582D01*
X001850Y001480D01*
X001968Y001529D02*
X002247Y001529D01*
X002247Y001431D02*
X000867Y001431D01*
X001166Y001332D02*
X002247Y001332D01*
X002247Y001234D02*
X001359Y001234D01*
X001458Y001135D02*
X002247Y001135D01*
X002247Y001037D02*
X001542Y001037D01*
X001583Y000938D02*
X002247Y000938D01*
X002247Y000840D02*
X001624Y000840D01*
X001642Y000741D02*
X002247Y000741D01*
X002277Y000643D02*
X001642Y000643D01*
X002142Y001628D02*
X002265Y001628D01*
X002264Y002550D02*
X002164Y002650D01*
X002285Y002770D01*
X002387Y003017D01*
X002387Y003283D01*
X002285Y003530D01*
X002164Y003650D01*
X002285Y003770D01*
X002387Y004017D01*
X002387Y004283D01*
X002285Y004530D01*
X002164Y004650D01*
X002224Y004710D01*
X002943Y004710D01*
X002879Y004646D01*
X002879Y004646D01*
X002761Y004528D01*
X002697Y004374D01*
X002697Y002886D01*
X002761Y002732D01*
X002943Y002550D01*
X002264Y002550D01*
X002202Y002613D02*
X002880Y002613D01*
X002782Y002711D02*
X002225Y002711D01*
X002301Y002810D02*
X002729Y002810D01*
X002697Y002908D02*
X002342Y002908D01*
X002382Y003007D02*
X002697Y003007D01*
X002697Y003105D02*
X002387Y003105D01*
X002387Y003204D02*
X002697Y003204D01*
X002697Y003302D02*
X002379Y003302D01*
X002338Y003401D02*
X002697Y003401D01*
X002697Y003499D02*
X002297Y003499D01*
X002217Y003598D02*
X002697Y003598D01*
X002697Y003696D02*
X002210Y003696D01*
X002295Y003795D02*
X002697Y003795D01*
X002697Y003893D02*
X002335Y003893D01*
X002376Y003992D02*
X002697Y003992D01*
X002697Y004090D02*
X002387Y004090D01*
X002387Y004189D02*
X002697Y004189D01*
X002697Y004287D02*
X002385Y004287D01*
X002344Y004386D02*
X002702Y004386D01*
X002742Y004484D02*
X002304Y004484D01*
X002232Y004583D02*
X002815Y004583D01*
X002914Y004681D02*
X002195Y004681D01*
X002517Y005490D02*
X002517Y006510D01*
X002997Y005550D02*
X003177Y005550D01*
X004377Y006750D01*
X005277Y006750D01*
X005397Y006630D01*
X005397Y006390D01*
X005438Y006338D01*
X005157Y006330D02*
X005157Y005910D01*
X005517Y005550D01*
X005517Y004890D01*
X004797Y004170D01*
X004797Y003930D01*
X004557Y004230D02*
X005157Y004830D01*
X005157Y005430D01*
X004797Y005790D02*
X004797Y006330D01*
X004808Y006336D01*
X005123Y006337D02*
X005157Y006330D01*
X005901Y005720D02*
X006053Y005720D01*
X006001Y005668D01*
X005937Y005514D01*
X005937Y004796D01*
X005934Y004799D01*
X005937Y004806D01*
X005937Y005634D01*
X005901Y005720D01*
X005923Y005666D02*
X006000Y005666D01*
X005959Y005568D02*
X005937Y005568D01*
X005937Y005469D02*
X005937Y005469D01*
X005937Y005371D02*
X005937Y005371D01*
X005937Y005272D02*
X005937Y005272D01*
X005937Y005174D02*
X005937Y005174D01*
X005937Y005075D02*
X005937Y005075D01*
X005937Y004977D02*
X005937Y004977D01*
X005937Y004878D02*
X005937Y004878D01*
X006957Y005550D02*
X006957Y006330D01*
X007013Y006344D01*
X006807Y006720D02*
X006837Y006750D01*
X007917Y006750D01*
X007977Y006690D01*
X008023Y006650D01*
X007203Y007170D02*
X007197Y007176D01*
X007197Y007170D01*
X007203Y007170D01*
X006357Y006630D02*
X006357Y006390D01*
X006383Y006342D01*
X006357Y006630D02*
X005817Y007170D01*
X003417Y007170D01*
X004257Y006150D02*
X004257Y005790D01*
X004223Y005746D01*
X004797Y004950D02*
X004677Y004830D01*
X004257Y004830D01*
X004226Y004802D01*
X004227Y004487D02*
X004197Y004470D01*
X003777Y004470D01*
X003297Y003990D01*
X004228Y004172D02*
X004257Y004230D01*
X004557Y004230D01*
X007402Y008621D02*
X008152Y008621D01*
X008053Y008720D02*
X007335Y008720D01*
X005217Y008818D02*
X005217Y008818D01*
X005217Y008917D02*
X005217Y008917D01*
X005217Y009015D02*
X005183Y009015D01*
X005217Y009114D02*
X005127Y009114D01*
X005217Y009212D02*
X005029Y009212D01*
X004854Y009803D02*
X004557Y009803D01*
X004557Y009902D02*
X004813Y009902D01*
X004807Y010000D02*
X004557Y010000D01*
X004557Y010099D02*
X004807Y010099D01*
X004807Y010197D02*
X004557Y010197D01*
X004557Y010296D02*
X004807Y010296D01*
X004807Y010394D02*
X004557Y010394D01*
X004557Y010493D02*
X004807Y010493D01*
X004807Y010591D02*
X004557Y010591D01*
X004557Y010690D02*
X004807Y010690D01*
X004807Y010788D02*
X004557Y010788D01*
X004557Y010887D02*
X004807Y010887D01*
X004824Y010985D02*
X004557Y010985D01*
X004557Y011084D02*
X004867Y011084D01*
X004965Y011182D02*
X004557Y011182D01*
X004707Y012180D02*
X005397Y012870D01*
X005417Y012870D01*
X005397Y012930D01*
X005277Y013050D01*
X005277Y014130D01*
X005251Y014150D01*
X004617Y014130D02*
X004617Y013590D01*
X004617Y014130D02*
X004582Y014150D01*
X004015Y014137D02*
X000867Y014137D01*
X000867Y014039D02*
X004015Y014039D01*
X004015Y013940D02*
X003541Y013940D01*
X003639Y013842D02*
X004023Y013842D01*
X004047Y013743D02*
X003738Y013743D01*
X003836Y013645D02*
X004047Y013645D01*
X004047Y013546D02*
X003935Y013546D01*
X004033Y013448D02*
X004047Y013448D01*
X004015Y014236D02*
X000867Y014236D01*
X000867Y014334D02*
X004015Y014334D01*
X004015Y014433D02*
X000867Y014433D01*
X000867Y014531D02*
X001451Y014531D01*
X001337Y014630D02*
X000867Y014630D01*
X000867Y014728D02*
X001274Y014728D01*
X001242Y014827D02*
X000867Y014827D01*
X001063Y014925D02*
X001233Y014925D01*
X001437Y013170D02*
X001417Y013150D01*
X001437Y013170D02*
X002157Y013170D01*
X002697Y010410D02*
X001437Y009150D01*
X001417Y009150D01*
X006203Y012069D02*
X008631Y012069D01*
X008455Y012167D02*
X006379Y012167D01*
X006455Y012266D02*
X008379Y012266D01*
X008338Y012364D02*
X006495Y012364D01*
X006495Y012463D02*
X008338Y012463D01*
X008338Y012561D02*
X006495Y012561D01*
X006495Y012660D02*
X008338Y012660D01*
X008338Y012758D02*
X006495Y012758D01*
X006495Y012857D02*
X008338Y012857D01*
X008338Y012955D02*
X006495Y012955D01*
X006495Y013054D02*
X008338Y013054D01*
X008338Y013152D02*
X006495Y013152D01*
X006495Y013251D02*
X008338Y013251D01*
X008338Y013349D02*
X006495Y013349D01*
X006466Y013448D02*
X007313Y013448D01*
X007215Y013546D02*
X006406Y013546D01*
X007920Y013448D02*
X008305Y013448D01*
X013741Y013940D02*
X015967Y013940D01*
X015967Y013842D02*
X013839Y013842D01*
X013938Y013743D02*
X015967Y013743D01*
X015967Y013645D02*
X014036Y013645D01*
X014135Y013546D02*
X015967Y013546D01*
X015967Y013448D02*
X014233Y013448D01*
X014332Y013349D02*
X015967Y013349D01*
X015967Y013251D02*
X014764Y013251D01*
X014862Y013152D02*
X015967Y013152D01*
X015967Y013054D02*
X014961Y013054D01*
X015059Y012955D02*
X015967Y012955D01*
X015967Y012857D02*
X015087Y012857D01*
X015087Y012758D02*
X015967Y012758D01*
X015967Y012660D02*
X015087Y012660D01*
X015087Y012561D02*
X015967Y012561D01*
X015967Y012463D02*
X015087Y012463D01*
X015078Y012364D02*
X015967Y012364D01*
X015967Y012266D02*
X014980Y012266D01*
X014226Y014039D02*
X015967Y014039D01*
X015967Y014137D02*
X014329Y014137D01*
X014374Y014236D02*
X015967Y014236D01*
X015967Y014334D02*
X014393Y014334D01*
X014393Y014433D02*
X015967Y014433D01*
X015967Y014531D02*
X014393Y014531D01*
X014393Y014630D02*
X015967Y014630D01*
X015967Y014728D02*
X014393Y014728D01*
X014393Y014827D02*
X015967Y014827D01*
X015771Y014925D02*
X014393Y014925D01*
X014391Y015024D02*
X015533Y015024D01*
X015418Y015122D02*
X014350Y015122D01*
X014271Y015221D02*
X015320Y015221D01*
X013917Y009202D02*
X013969Y009150D01*
X013917Y009098D01*
X013864Y009150D01*
X013917Y009202D01*
X013901Y009114D02*
X013933Y009114D01*
D26*
X010797Y007530D03*
X010437Y008970D03*
X008277Y007350D03*
X008637Y005850D03*
X009177Y005430D03*
X008457Y004710D03*
X007077Y004470D03*
X006717Y004830D03*
X006957Y005550D03*
X006417Y007050D03*
X006417Y007530D03*
X005397Y007530D03*
X005997Y008790D03*
X006477Y008790D03*
X005637Y009690D03*
X004497Y009630D03*
X004017Y009150D03*
X003477Y008070D03*
X002517Y006510D03*
X002997Y005550D03*
X002517Y005490D03*
X003657Y003870D03*
X004797Y003930D03*
X005517Y004410D03*
X005697Y003870D03*
X004797Y004950D03*
X005157Y005430D03*
X004797Y005790D03*
X004257Y006150D03*
X004377Y002370D03*
X004857Y002370D03*
X003477Y002130D03*
X008457Y001050D03*
X011937Y001110D03*
X013917Y003030D03*
X012897Y003270D03*
X012417Y004710D03*
X010857Y005790D03*
X009957Y012150D03*
X007617Y013950D03*
X004617Y013590D03*
M02*
